solid OpenSCAD_Model
  facet normal -0 0 -1
    outer loop
      vertex 71.3292 -23.1763 0
      vertex 16.84 -23.1783 0
      vertex 27.2478 8.85333 0
    endloop
  endfacet
  facet normal 0 0 -1
    outer loop
      vertex 0 28.65 0
      vertex 27.2478 8.85333 0
      vertex 16.84 -23.1783 0
    endloop
  endfacet
  facet normal 0 0 -1
    outer loop
      vertex -16.84 -23.1783 0
      vertex 16.84 -23.1783 0
      vertex 0 -75 0
    endloop
  endfacet
  facet normal 0 0 -1
    outer loop
      vertex 27.2478 8.85333 0
      vertex 0 28.65 0
      vertex 44.0839 60.6763 0
    endloop
  endfacet
  facet normal 0 0 -1
    outer loop
      vertex 16.84 -23.1783 0
      vertex -16.84 -23.1783 0
      vertex 0 28.65 0
    endloop
  endfacet
  facet normal 0 0 -1
    outer loop
      vertex -27.2478 8.85333 0
      vertex 0 28.65 0
      vertex -16.84 -23.1783 0
    endloop
  endfacet
  facet normal -0 0 -1
    outer loop
      vertex 0 28.65 0
      vertex -27.2478 8.85333 0
      vertex -44.0839 60.6763 0
    endloop
  endfacet
  facet normal 0 0 -1
    outer loop
      vertex -16.84 -23.1783 0
      vertex -71.3292 -23.1763 0
      vertex -27.2478 8.85333 0
    endloop
  endfacet
  facet normal 0 0 1
    outer loop
      vertex 0 28.65 20
      vertex 40.2801 55.4408 20
      vertex 44.0839 60.6763 20
    endloop
  endfacet
  facet normal -0 0 1
    outer loop
      vertex 0 28.65 20
      vertex 0 26.1779 20
      vertex 40.2801 55.4408 20
    endloop
  endfacet
  facet normal 0 0 1
    outer loop
      vertex 0 28.65 20
      vertex -40.2801 55.4408 20
      vertex 0 26.1779 20
    endloop
  endfacet
  facet normal -0 -0 1
    outer loop
      vertex -40.2801 55.4408 20
      vertex 0 28.65 20
      vertex -44.0839 60.6763 20
    endloop
  endfacet
  facet normal -0 0 1
    outer loop
      vertex 40.2801 55.4408 20
      vertex 27.2478 8.85333 20
      vertex 44.0839 60.6763 20
    endloop
  endfacet
  facet normal 0 -0 1
    outer loop
      vertex 27.2478 8.85333 20
      vertex 40.2801 55.4408 20
      vertex 24.8967 8.08942 20
    endloop
  endfacet
  facet normal 0 0 1
    outer loop
      vertex 27.2478 8.85333 20
      vertex 65.1746 -21.1765 20
      vertex 71.3292 -23.1763 20
    endloop
  endfacet
  facet normal 0 0 1
    outer loop
      vertex 65.1746 -21.1765 20
      vertex 27.2478 8.85333 20
      vertex 24.8967 8.08942 20
    endloop
  endfacet
  facet normal 0 0 1
    outer loop
      vertex 65.1746 -21.1765 20
      vertex 16.84 -23.1783 20
      vertex 71.3292 -23.1763 20
    endloop
  endfacet
  facet normal -0 0 1
    outer loop
      vertex 15.387 -21.1784 20
      vertex 16.84 -23.1783 20
      vertex 65.1746 -21.1765 20
    endloop
  endfacet
  facet normal 0 0 1
    outer loop
      vertex 0 -68.5286 20
      vertex 16.84 -23.1783 20
      vertex 15.387 -21.1784 20
    endloop
  endfacet
  facet normal -0 0 1
    outer loop
      vertex 0 -68.5286 20
      vertex 0 -75 20
      vertex 16.84 -23.1783 20
    endloop
  endfacet
  facet normal -0 0 1
    outer loop
      vertex -16.84 -23.1783 20
      vertex 0 -68.5286 20
      vertex -15.387 -21.1784 20
    endloop
  endfacet
  facet normal 0 0 1
    outer loop
      vertex 0 -68.5286 20
      vertex -16.84 -23.1783 20
      vertex 0 -75 20
    endloop
  endfacet
  facet normal 0 0 1
    outer loop
      vertex -65.1746 -21.1765 20
      vertex -16.84 -23.1783 20
      vertex -15.387 -21.1784 20
    endloop
  endfacet
  facet normal 0 0 1
    outer loop
      vertex -16.84 -23.1783 20
      vertex -65.1746 -21.1765 20
      vertex -71.3292 -23.1763 20
    endloop
  endfacet
  facet normal 0 0 1
    outer loop
      vertex -40.2801 55.4408 20
      vertex -27.2478 8.85333 20
      vertex -24.8967 8.08942 20
    endloop
  endfacet
  facet normal 0 0 1
    outer loop
      vertex -27.2478 8.85333 20
      vertex -40.2801 55.4408 20
      vertex -44.0839 60.6763 20
    endloop
  endfacet
  facet normal 0 0 1
    outer loop
      vertex -27.2478 8.85333 20
      vertex -65.1746 -21.1765 20
      vertex -24.8967 8.08942 20
    endloop
  endfacet
  facet normal 0 -0 1
    outer loop
      vertex -65.1746 -21.1765 20
      vertex -27.2478 8.85333 20
      vertex -71.3292 -23.1763 20
    endloop
  endfacet
  facet normal 3.67045e-05 -1 0
    outer loop
      vertex 16.84 -23.1783 0
      vertex 71.3292 -23.1763 20
      vertex 16.84 -23.1783 20
    endloop
  endfacet
  facet normal 3.67045e-05 -1 0
    outer loop
      vertex 71.3292 -23.1763 20
      vertex 16.84 -23.1783 0
      vertex 71.3292 -23.1763 0
    endloop
  endfacet
  facet normal 0.587817 0.808994 -0
    outer loop
      vertex 71.3292 -23.1763 0
      vertex 27.2478 8.85333 20
      vertex 71.3292 -23.1763 20
    endloop
  endfacet
  facet normal 0.587817 0.808994 0
    outer loop
      vertex 27.2478 8.85333 20
      vertex 71.3292 -23.1763 0
      vertex 27.2478 8.85333 0
    endloop
  endfacet
  facet normal 0.951068 -0.30898 0
    outer loop
      vertex 27.2478 8.85333 20
      vertex 44.0839 60.6763 0
      vertex 44.0839 60.6763 20
    endloop
  endfacet
  facet normal 0.951068 -0.30898 0
    outer loop
      vertex 44.0839 60.6763 0
      vertex 27.2478 8.85333 20
      vertex 27.2478 8.85333 0
    endloop
  endfacet
  facet normal -0.587755 0.809039 0
    outer loop
      vertex 44.0839 60.6763 0
      vertex 0 28.65 20
      vertex 44.0839 60.6763 20
    endloop
  endfacet
  facet normal -0.587755 0.809039 0
    outer loop
      vertex 0 28.65 20
      vertex 44.0839 60.6763 0
      vertex 0 28.65 0
    endloop
  endfacet
  facet normal 0.587755 0.809039 -0
    outer loop
      vertex 0 28.65 0
      vertex -44.0839 60.6763 20
      vertex 0 28.65 20
    endloop
  endfacet
  facet normal 0.587755 0.809039 0
    outer loop
      vertex -44.0839 60.6763 20
      vertex 0 28.65 0
      vertex -44.0839 60.6763 0
    endloop
  endfacet
  facet normal -0.951068 -0.30898 0
    outer loop
      vertex -27.2478 8.85333 0
      vertex -44.0839 60.6763 20
      vertex -44.0839 60.6763 0
    endloop
  endfacet
  facet normal -0.951068 -0.30898 0
    outer loop
      vertex -44.0839 60.6763 20
      vertex -27.2478 8.85333 0
      vertex -27.2478 8.85333 20
    endloop
  endfacet
  facet normal -0.587817 0.808994 0
    outer loop
      vertex -27.2478 8.85333 0
      vertex -71.3292 -23.1763 20
      vertex -27.2478 8.85333 20
    endloop
  endfacet
  facet normal -0.587817 0.808994 0
    outer loop
      vertex -71.3292 -23.1763 20
      vertex -27.2478 8.85333 0
      vertex -71.3292 -23.1763 0
    endloop
  endfacet
  facet normal -3.67045e-05 -1 0
    outer loop
      vertex -71.3292 -23.1763 0
      vertex -16.84 -23.1783 20
      vertex -71.3292 -23.1763 20
    endloop
  endfacet
  facet normal -3.67045e-05 -1 -0
    outer loop
      vertex -16.84 -23.1783 20
      vertex -71.3292 -23.1763 0
      vertex -16.84 -23.1783 0
    endloop
  endfacet
  facet normal -0.951045 -0.309052 0
    outer loop
      vertex 0 -75 0
      vertex -16.84 -23.1783 20
      vertex -16.84 -23.1783 0
    endloop
  endfacet
  facet normal -0.951045 -0.309052 0
    outer loop
      vertex -16.84 -23.1783 20
      vertex 0 -75 0
      vertex 0 -75 20
    endloop
  endfacet
  facet normal 0.951045 -0.309052 0
    outer loop
      vertex 0 -75 20
      vertex 16.84 -23.1783 0
      vertex 16.84 -23.1783 20
    endloop
  endfacet
  facet normal 0.951045 -0.309052 0
    outer loop
      vertex 16.84 -23.1783 0
      vertex 0 -75 20
      vertex 0 -75 0
    endloop
  endfacet
  facet normal 0 0 1
    outer loop
      vertex 0 26.1779 2
      vertex 39.8046 54.7864 2
      vertex 40.2801 55.4408 2
    endloop
  endfacet
  facet normal -0 0 1
    outer loop
      vertex 0 26.1779 2
      vertex 0 25.8689 2
      vertex 39.8046 54.7864 2
    endloop
  endfacet
  facet normal 0 0 1
    outer loop
      vertex 0 26.1779 2
      vertex -39.8046 54.7864 2
      vertex 0 25.8689 2
    endloop
  endfacet
  facet normal -0 -0 1
    outer loop
      vertex -39.8046 54.7864 2
      vertex 0 26.1779 2
      vertex -40.2801 55.4408 2
    endloop
  endfacet
  facet normal -0 0 1
    outer loop
      vertex 39.8046 54.7864 2
      vertex 24.8967 8.08942 2
      vertex 40.2801 55.4408 2
    endloop
  endfacet
  facet normal 0 -0 1
    outer loop
      vertex 24.8967 8.08942 2
      vertex 39.8046 54.7864 2
      vertex 24.6028 7.99393 2
    endloop
  endfacet
  facet normal 0 0 1
    outer loop
      vertex 24.8967 8.08942 2
      vertex 64.4052 -20.9265 2
      vertex 65.1746 -21.1765 2
    endloop
  endfacet
  facet normal 0 0 1
    outer loop
      vertex 64.4052 -20.9265 2
      vertex 24.8967 8.08942 2
      vertex 24.6028 7.99393 2
    endloop
  endfacet
  facet normal 0 0 1
    outer loop
      vertex 64.4052 -20.9265 2
      vertex 15.387 -21.1784 2
      vertex 65.1746 -21.1765 2
    endloop
  endfacet
  facet normal -0 0 1
    outer loop
      vertex 15.2054 -20.9284 2
      vertex 15.387 -21.1784 2
      vertex 64.4052 -20.9265 2
    endloop
  endfacet
  facet normal 0 0 1
    outer loop
      vertex 0 -67.7197 2
      vertex 15.387 -21.1784 2
      vertex 15.2054 -20.9284 2
    endloop
  endfacet
  facet normal -0 0 1
    outer loop
      vertex 0 -67.7197 2
      vertex 0 -68.5286 2
      vertex 15.387 -21.1784 2
    endloop
  endfacet
  facet normal -0 0 1
    outer loop
      vertex -15.387 -21.1784 2
      vertex 0 -67.7197 2
      vertex -15.2054 -20.9284 2
    endloop
  endfacet
  facet normal 0 0 1
    outer loop
      vertex 0 -67.7197 2
      vertex -15.387 -21.1784 2
      vertex 0 -68.5286 2
    endloop
  endfacet
  facet normal 0 0 1
    outer loop
      vertex -64.4052 -20.9265 2
      vertex -15.387 -21.1784 2
      vertex -15.2054 -20.9284 2
    endloop
  endfacet
  facet normal 0 0 1
    outer loop
      vertex -15.387 -21.1784 2
      vertex -64.4052 -20.9265 2
      vertex -65.1746 -21.1765 2
    endloop
  endfacet
  facet normal 0 0 1
    outer loop
      vertex -39.8046 54.7864 2
      vertex -24.8967 8.08942 2
      vertex -24.6028 7.99393 2
    endloop
  endfacet
  facet normal 0 0 1
    outer loop
      vertex -24.8967 8.08942 2
      vertex -39.8046 54.7864 2
      vertex -40.2801 55.4408 2
    endloop
  endfacet
  facet normal 0 0 1
    outer loop
      vertex -24.8967 8.08942 2
      vertex -64.4052 -20.9265 2
      vertex -24.6028 7.99393 2
    endloop
  endfacet
  facet normal 0 -0 1
    outer loop
      vertex -64.4052 -20.9265 2
      vertex -24.8967 8.08942 2
      vertex -65.1746 -21.1765 2
    endloop
  endfacet
  facet normal -0 0 1
    outer loop
      vertex 0 23.8913 2
      vertex 22.7219 7.3828 2
      vertex 36.7616 50.598 2
    endloop
  endfacet
  facet normal 0 0 1
    outer loop
      vertex 22.7219 7.3828 2
      vertex 0 23.8913 2
      vertex 14.0429 -19.3284 2
    endloop
  endfacet
  facet normal 0 0 1
    outer loop
      vertex -14.0429 -19.3284 2
      vertex 14.0429 -19.3284 2
      vertex 0 23.8913 2
    endloop
  endfacet
  facet normal 0 0 1
    outer loop
      vertex 14.0429 -19.3284 2
      vertex -14.0429 -19.3284 2
      vertex 0 -62.5426 2
    endloop
  endfacet
  facet normal 0 0 1
    outer loop
      vertex 0 23.8913 2
      vertex -22.7219 7.3828 2
      vertex -14.0429 -19.3284 2
    endloop
  endfacet
  facet normal 0 -0 1
    outer loop
      vertex -22.7219 7.3828 2
      vertex 0 23.8913 2
      vertex -36.7616 50.598 2
    endloop
  endfacet
  facet normal 0 0 1
    outer loop
      vertex 59.4815 -19.3267 2
      vertex 22.7219 7.3828 2
      vertex 14.0429 -19.3284 2
    endloop
  endfacet
  facet normal 0 0 1
    outer loop
      vertex -14.0429 -19.3284 2
      vertex -22.7219 7.3828 2
      vertex -59.4815 -19.3267 2
    endloop
  endfacet
  facet normal -3.81621e-05 1 0
    outer loop
      vertex 65.1746 -21.1765 2
      vertex 15.387 -21.1784 20
      vertex 65.1746 -21.1765 20
    endloop
  endfacet
  facet normal -3.81621e-05 1 0
    outer loop
      vertex 15.387 -21.1784 20
      vertex 65.1746 -21.1765 2
      vertex 15.387 -21.1784 2
    endloop
  endfacet
  facet normal -0.587816 -0.808995 0
    outer loop
      vertex 24.8967 8.08942 2
      vertex 65.1746 -21.1765 20
      vertex 24.8967 8.08942 20
    endloop
  endfacet
  facet normal -0.587816 -0.808995 -0
    outer loop
      vertex 65.1746 -21.1765 20
      vertex 24.8967 8.08942 2
      vertex 65.1746 -21.1765 2
    endloop
  endfacet
  facet normal -0.951068 0.308981 0
    outer loop
      vertex 24.8967 8.08942 2
      vertex 40.2801 55.4408 20
      vertex 40.2801 55.4408 2
    endloop
  endfacet
  facet normal -0.951068 0.308981 0
    outer loop
      vertex 40.2801 55.4408 20
      vertex 24.8967 8.08942 2
      vertex 24.8967 8.08942 20
    endloop
  endfacet
  facet normal 0.587755 -0.809039 0
    outer loop
      vertex 0 26.1779 2
      vertex 40.2801 55.4408 20
      vertex 0 26.1779 20
    endloop
  endfacet
  facet normal 0.587755 -0.809039 0
    outer loop
      vertex 40.2801 55.4408 20
      vertex 0 26.1779 2
      vertex 40.2801 55.4408 2
    endloop
  endfacet
  facet normal -0.587755 -0.809039 0
    outer loop
      vertex -40.2801 55.4408 2
      vertex 0 26.1779 20
      vertex -40.2801 55.4408 20
    endloop
  endfacet
  facet normal -0.587755 -0.809039 -0
    outer loop
      vertex 0 26.1779 20
      vertex -40.2801 55.4408 2
      vertex 0 26.1779 2
    endloop
  endfacet
  facet normal 0.951068 0.308981 0
    outer loop
      vertex -24.8967 8.08942 20
      vertex -40.2801 55.4408 2
      vertex -40.2801 55.4408 20
    endloop
  endfacet
  facet normal 0.951068 0.308981 0
    outer loop
      vertex -40.2801 55.4408 2
      vertex -24.8967 8.08942 20
      vertex -24.8967 8.08942 2
    endloop
  endfacet
  facet normal 0.587816 -0.808995 0
    outer loop
      vertex -65.1746 -21.1765 2
      vertex -24.8967 8.08942 20
      vertex -65.1746 -21.1765 20
    endloop
  endfacet
  facet normal 0.587816 -0.808995 0
    outer loop
      vertex -24.8967 8.08942 20
      vertex -65.1746 -21.1765 2
      vertex -24.8967 8.08942 2
    endloop
  endfacet
  facet normal 3.81621e-05 1 -0
    outer loop
      vertex -15.387 -21.1784 2
      vertex -65.1746 -21.1765 20
      vertex -15.387 -21.1784 20
    endloop
  endfacet
  facet normal 3.81621e-05 1 0
    outer loop
      vertex -65.1746 -21.1765 20
      vertex -15.387 -21.1784 2
      vertex -65.1746 -21.1765 2
    endloop
  endfacet
  facet normal 0.951045 0.309053 0
    outer loop
      vertex 0 -68.5286 20
      vertex -15.387 -21.1784 2
      vertex -15.387 -21.1784 20
    endloop
  endfacet
  facet normal 0.951045 0.309053 0
    outer loop
      vertex -15.387 -21.1784 2
      vertex 0 -68.5286 20
      vertex 0 -68.5286 2
    endloop
  endfacet
  facet normal -0.951045 0.309053 0
    outer loop
      vertex 0 -68.5286 2
      vertex 15.387 -21.1784 20
      vertex 15.387 -21.1784 2
    endloop
  endfacet
  facet normal -0.951045 0.309053 0
    outer loop
      vertex 15.387 -21.1784 20
      vertex 0 -68.5286 2
      vertex 0 -68.5286 20
    endloop
  endfacet
  facet normal 0 0 1
    outer loop
      vertex 0 25.8689 28
      vertex 36.7616 50.598 28
      vertex 39.8046 54.7864 28
    endloop
  endfacet
  facet normal -0 0 1
    outer loop
      vertex 0 25.8689 28
      vertex 0 23.8913 28
      vertex 36.7616 50.598 28
    endloop
  endfacet
  facet normal 0 0 1
    outer loop
      vertex 0 25.8689 28
      vertex -36.7616 50.598 28
      vertex 0 23.8913 28
    endloop
  endfacet
  facet normal -0 -0 1
    outer loop
      vertex -36.7616 50.598 28
      vertex 0 25.8689 28
      vertex -39.8046 54.7864 28
    endloop
  endfacet
  facet normal -0 0 1
    outer loop
      vertex 36.7616 50.598 28
      vertex 24.6028 7.99393 28
      vertex 39.8046 54.7864 28
    endloop
  endfacet
  facet normal 0 -0 1
    outer loop
      vertex 24.6028 7.99393 28
      vertex 36.7616 50.598 28
      vertex 22.7219 7.3828 28
    endloop
  endfacet
  facet normal 0 0 1
    outer loop
      vertex 24.6028 7.99393 28
      vertex 59.4815 -19.3267 28
      vertex 64.4052 -20.9265 28
    endloop
  endfacet
  facet normal 0 0 1
    outer loop
      vertex 59.4815 -19.3267 28
      vertex 24.6028 7.99393 28
      vertex 22.7219 7.3828 28
    endloop
  endfacet
  facet normal 0 0 1
    outer loop
      vertex 59.4815 -19.3267 28
      vertex 15.2054 -20.9284 28
      vertex 64.4052 -20.9265 28
    endloop
  endfacet
  facet normal -0 0 1
    outer loop
      vertex 14.0429 -19.3284 28
      vertex 15.2054 -20.9284 28
      vertex 59.4815 -19.3267 28
    endloop
  endfacet
  facet normal 0 0 1
    outer loop
      vertex 0 -62.5426 28
      vertex 15.2054 -20.9284 28
      vertex 14.0429 -19.3284 28
    endloop
  endfacet
  facet normal -0 0 1
    outer loop
      vertex 0 -62.5426 28
      vertex 0 -67.7197 28
      vertex 15.2054 -20.9284 28
    endloop
  endfacet
  facet normal -0 0 1
    outer loop
      vertex -15.2054 -20.9284 28
      vertex 0 -62.5426 28
      vertex -14.0429 -19.3284 28
    endloop
  endfacet
  facet normal 0 0 1
    outer loop
      vertex 0 -62.5426 28
      vertex -15.2054 -20.9284 28
      vertex 0 -67.7197 28
    endloop
  endfacet
  facet normal 0 0 1
    outer loop
      vertex -59.4815 -19.3267 28
      vertex -15.2054 -20.9284 28
      vertex -14.0429 -19.3284 28
    endloop
  endfacet
  facet normal 0 0 1
    outer loop
      vertex -15.2054 -20.9284 28
      vertex -59.4815 -19.3267 28
      vertex -64.4052 -20.9265 28
    endloop
  endfacet
  facet normal 0 0 1
    outer loop
      vertex -36.7616 50.598 28
      vertex -24.6028 7.99393 28
      vertex -22.7219 7.3828 28
    endloop
  endfacet
  facet normal 0 0 1
    outer loop
      vertex -24.6028 7.99393 28
      vertex -36.7616 50.598 28
      vertex -39.8046 54.7864 28
    endloop
  endfacet
  facet normal 0 0 1
    outer loop
      vertex -24.6028 7.99393 28
      vertex -59.4815 -19.3267 28
      vertex -22.7219 7.3828 28
    endloop
  endfacet
  facet normal 0 -0 1
    outer loop
      vertex -59.4815 -19.3267 28
      vertex -24.6028 7.99393 28
      vertex -64.4052 -20.9265 28
    endloop
  endfacet
  facet normal 3.8618e-05 -1 0
    outer loop
      vertex 15.2054 -20.9284 2
      vertex 64.4052 -20.9265 26.2
      vertex 15.2054 -20.9284 26.2
    endloop
  endfacet
  facet normal 3.8618e-05 -1 0
    outer loop
      vertex 64.4052 -20.9265 26.2
      vertex 15.2054 -20.9284 2
      vertex 64.4052 -20.9265 2
    endloop
  endfacet
  facet normal 3.8618e-05 -1 0
    outer loop
      vertex 15.2054 -20.9284 27.4
      vertex 64.4052 -20.9265 28
      vertex 15.2054 -20.9284 28
    endloop
  endfacet
  facet normal 3.8618e-05 -1 0
    outer loop
      vertex 64.4052 -20.9265 28
      vertex 15.2054 -20.9284 27.4
      vertex 64.4052 -20.9265 27.4
    endloop
  endfacet
  facet normal 0.587816 0.808995 -0
    outer loop
      vertex 64.4052 -20.9265 2
      vertex 24.6028 7.99393 26.2
      vertex 64.4052 -20.9265 26.2
    endloop
  endfacet
  facet normal 0.587816 0.808995 0
    outer loop
      vertex 24.6028 7.99393 26.2
      vertex 64.4052 -20.9265 2
      vertex 24.6028 7.99393 2
    endloop
  endfacet
  facet normal 0.587816 0.808995 -0
    outer loop
      vertex 64.4052 -20.9265 27.4
      vertex 24.6028 7.99393 28
      vertex 64.4052 -20.9265 28
    endloop
  endfacet
  facet normal 0.587816 0.808995 0
    outer loop
      vertex 24.6028 7.99393 28
      vertex 64.4052 -20.9265 27.4
      vertex 24.6028 7.99393 27.4
    endloop
  endfacet
  facet normal 0.951068 -0.30898 0
    outer loop
      vertex 24.6028 7.99393 26.2
      vertex 39.8046 54.7864 2
      vertex 39.8046 54.7864 26.2
    endloop
  endfacet
  facet normal 0.951068 -0.30898 0
    outer loop
      vertex 39.8046 54.7864 2
      vertex 24.6028 7.99393 26.2
      vertex 24.6028 7.99393 2
    endloop
  endfacet
  facet normal 0.951068 -0.30898 0
    outer loop
      vertex 24.6028 7.99393 28
      vertex 39.8046 54.7864 27.4
      vertex 39.8046 54.7864 28
    endloop
  endfacet
  facet normal 0.951068 -0.30898 0
    outer loop
      vertex 39.8046 54.7864 27.4
      vertex 24.6028 7.99393 28
      vertex 24.6028 7.99393 27.4
    endloop
  endfacet
  facet normal -0.587756 0.809039 0
    outer loop
      vertex 39.8046 54.7864 2
      vertex 0 25.8689 26.2
      vertex 39.8046 54.7864 26.2
    endloop
  endfacet
  facet normal -0.587756 0.809039 0
    outer loop
      vertex 0 25.8689 26.2
      vertex 39.8046 54.7864 2
      vertex 0 25.8689 2
    endloop
  endfacet
  facet normal -0.587756 0.809039 0
    outer loop
      vertex 39.8046 54.7864 27.4
      vertex 0 25.8689 28
      vertex 39.8046 54.7864 28
    endloop
  endfacet
  facet normal -0.587756 0.809039 0
    outer loop
      vertex 0 25.8689 28
      vertex 39.8046 54.7864 27.4
      vertex 0 25.8689 27.4
    endloop
  endfacet
  facet normal 0.587756 0.809039 -0
    outer loop
      vertex 0 25.8689 2
      vertex -39.8046 54.7864 26.2
      vertex 0 25.8689 26.2
    endloop
  endfacet
  facet normal 0.587756 0.809039 0
    outer loop
      vertex -39.8046 54.7864 26.2
      vertex 0 25.8689 2
      vertex -39.8046 54.7864 2
    endloop
  endfacet
  facet normal 0.587756 0.809039 -0
    outer loop
      vertex 0 25.8689 27.4
      vertex -39.8046 54.7864 28
      vertex 0 25.8689 28
    endloop
  endfacet
  facet normal 0.587756 0.809039 0
    outer loop
      vertex -39.8046 54.7864 28
      vertex 0 25.8689 27.4
      vertex -39.8046 54.7864 27.4
    endloop
  endfacet
  facet normal -0.951068 -0.30898 0
    outer loop
      vertex -24.6028 7.99393 2
      vertex -39.8046 54.7864 26.2
      vertex -39.8046 54.7864 2
    endloop
  endfacet
  facet normal -0.951068 -0.30898 0
    outer loop
      vertex -39.8046 54.7864 26.2
      vertex -24.6028 7.99393 2
      vertex -24.6028 7.99393 26.2
    endloop
  endfacet
  facet normal -0.951068 -0.30898 0
    outer loop
      vertex -24.6028 7.99393 27.4
      vertex -39.8046 54.7864 28
      vertex -39.8046 54.7864 27.4
    endloop
  endfacet
  facet normal -0.951068 -0.30898 0
    outer loop
      vertex -39.8046 54.7864 28
      vertex -24.6028 7.99393 27.4
      vertex -24.6028 7.99393 28
    endloop
  endfacet
  facet normal -0.587816 0.808995 0
    outer loop
      vertex -24.6028 7.99393 2
      vertex -64.4052 -20.9265 26.2
      vertex -24.6028 7.99393 26.2
    endloop
  endfacet
  facet normal -0.587816 0.808995 0
    outer loop
      vertex -64.4052 -20.9265 26.2
      vertex -24.6028 7.99393 2
      vertex -64.4052 -20.9265 2
    endloop
  endfacet
  facet normal -0.587816 0.808995 0
    outer loop
      vertex -24.6028 7.99393 27.4
      vertex -64.4052 -20.9265 28
      vertex -24.6028 7.99393 28
    endloop
  endfacet
  facet normal -0.587816 0.808995 0
    outer loop
      vertex -64.4052 -20.9265 28
      vertex -24.6028 7.99393 27.4
      vertex -64.4052 -20.9265 27.4
    endloop
  endfacet
  facet normal -3.8618e-05 -1 0
    outer loop
      vertex -64.4052 -20.9265 2
      vertex -15.2054 -20.9284 26.2
      vertex -64.4052 -20.9265 26.2
    endloop
  endfacet
  facet normal -3.8618e-05 -1 -0
    outer loop
      vertex -15.2054 -20.9284 26.2
      vertex -64.4052 -20.9265 2
      vertex -15.2054 -20.9284 2
    endloop
  endfacet
  facet normal -3.8618e-05 -1 0
    outer loop
      vertex -64.4052 -20.9265 27.4
      vertex -15.2054 -20.9284 28
      vertex -64.4052 -20.9265 28
    endloop
  endfacet
  facet normal -3.8618e-05 -1 -0
    outer loop
      vertex -15.2054 -20.9284 28
      vertex -64.4052 -20.9265 27.4
      vertex -15.2054 -20.9284 27.4
    endloop
  endfacet
  facet normal -0.951045 -0.309053 0
    outer loop
      vertex 0 -67.7197 2
      vertex -15.2054 -20.9284 26.2
      vertex -15.2054 -20.9284 2
    endloop
  endfacet
  facet normal -0.951045 -0.309053 0
    outer loop
      vertex -15.2054 -20.9284 26.2
      vertex 0 -67.7197 2
      vertex 0 -67.7197 26.2
    endloop
  endfacet
  facet normal -0.951045 -0.309053 0
    outer loop
      vertex 0 -67.7197 27.4
      vertex -15.2054 -20.9284 28
      vertex -15.2054 -20.9284 27.4
    endloop
  endfacet
  facet normal -0.951045 -0.309053 0
    outer loop
      vertex -15.2054 -20.9284 28
      vertex 0 -67.7197 27.4
      vertex 0 -67.7197 28
    endloop
  endfacet
  facet normal 0.951045 -0.309053 0
    outer loop
      vertex 0 -67.7197 26.2
      vertex 15.2054 -20.9284 2
      vertex 15.2054 -20.9284 26.2
    endloop
  endfacet
  facet normal 0.951045 -0.309053 0
    outer loop
      vertex 15.2054 -20.9284 2
      vertex 0 -67.7197 26.2
      vertex 0 -67.7197 2
    endloop
  endfacet
  facet normal 0.951045 -0.309053 0
    outer loop
      vertex 0 -67.7197 28
      vertex 15.2054 -20.9284 27.4
      vertex 15.2054 -20.9284 28
    endloop
  endfacet
  facet normal 0.951045 -0.309053 0
    outer loop
      vertex 15.2054 -20.9284 27.4
      vertex 0 -67.7197 28
      vertex 0 -67.7197 27.4
    endloop
  endfacet
  facet normal 3.74131e-05 1 -0
    outer loop
      vertex -14.0429 -19.3284 2
      vertex -59.4815 -19.3267 28
      vertex -14.0429 -19.3284 28
    endloop
  endfacet
  facet normal 3.74131e-05 1 0
    outer loop
      vertex -59.4815 -19.3267 28
      vertex -14.0429 -19.3284 2
      vertex -59.4815 -19.3267 2
    endloop
  endfacet
  facet normal 0.587815 -0.808995 0
    outer loop
      vertex -59.4815 -19.3267 2
      vertex -22.7219 7.3828 28
      vertex -59.4815 -19.3267 28
    endloop
  endfacet
  facet normal 0.587815 -0.808995 0
    outer loop
      vertex -22.7219 7.3828 28
      vertex -59.4815 -19.3267 2
      vertex -22.7219 7.3828 2
    endloop
  endfacet
  facet normal 0.951068 0.308982 0
    outer loop
      vertex -22.7219 7.3828 28
      vertex -36.7616 50.598 2
      vertex -36.7616 50.598 28
    endloop
  endfacet
  facet normal 0.951068 0.308982 0
    outer loop
      vertex -36.7616 50.598 2
      vertex -22.7219 7.3828 28
      vertex -22.7219 7.3828 2
    endloop
  endfacet
  facet normal -0.587754 -0.80904 0
    outer loop
      vertex -36.7616 50.598 2
      vertex 0 23.8913 28
      vertex -36.7616 50.598 28
    endloop
  endfacet
  facet normal -0.587754 -0.80904 -0
    outer loop
      vertex 0 23.8913 28
      vertex -36.7616 50.598 2
      vertex 0 23.8913 2
    endloop
  endfacet
  facet normal 0.587754 -0.80904 0
    outer loop
      vertex 0 23.8913 2
      vertex 36.7616 50.598 28
      vertex 0 23.8913 28
    endloop
  endfacet
  facet normal 0.587754 -0.80904 0
    outer loop
      vertex 36.7616 50.598 28
      vertex 0 23.8913 2
      vertex 36.7616 50.598 2
    endloop
  endfacet
  facet normal -0.951068 0.308982 0
    outer loop
      vertex 22.7219 7.3828 2
      vertex 36.7616 50.598 28
      vertex 36.7616 50.598 2
    endloop
  endfacet
  facet normal -0.951068 0.308982 0
    outer loop
      vertex 36.7616 50.598 28
      vertex 22.7219 7.3828 2
      vertex 22.7219 7.3828 28
    endloop
  endfacet
  facet normal -0.587815 -0.808995 0
    outer loop
      vertex 22.7219 7.3828 2
      vertex 59.4815 -19.3267 28
      vertex 22.7219 7.3828 28
    endloop
  endfacet
  facet normal -0.587815 -0.808995 -0
    outer loop
      vertex 59.4815 -19.3267 28
      vertex 22.7219 7.3828 2
      vertex 59.4815 -19.3267 2
    endloop
  endfacet
  facet normal -3.74131e-05 1 0
    outer loop
      vertex 59.4815 -19.3267 2
      vertex 14.0429 -19.3284 28
      vertex 59.4815 -19.3267 28
    endloop
  endfacet
  facet normal -3.74131e-05 1 0
    outer loop
      vertex 14.0429 -19.3284 28
      vertex 59.4815 -19.3267 2
      vertex 14.0429 -19.3284 2
    endloop
  endfacet
  facet normal -0.951045 0.309052 0
    outer loop
      vertex 0 -62.5426 2
      vertex 14.0429 -19.3284 28
      vertex 14.0429 -19.3284 2
    endloop
  endfacet
  facet normal -0.951045 0.309052 0
    outer loop
      vertex 14.0429 -19.3284 28
      vertex 0 -62.5426 2
      vertex 0 -62.5426 28
    endloop
  endfacet
  facet normal 0.951045 0.309052 0
    outer loop
      vertex 0 -62.5426 28
      vertex -14.0429 -19.3284 2
      vertex -14.0429 -19.3284 28
    endloop
  endfacet
  facet normal 0.951045 0.309052 0
    outer loop
      vertex -14.0429 -19.3284 2
      vertex 0 -62.5426 28
      vertex 0 -62.5426 2
    endloop
  endfacet
  facet normal 0 0 -1
    outer loop
      vertex 15.5686 -21.4284 26.2
      vertex 64.4052 -20.9265 26.2
      vertex 65.9439 -21.4265 26.2
    endloop
  endfacet
  facet normal 0 0 -1
    outer loop
      vertex 15.5686 -21.4284 26.2
      vertex 15.2054 -20.9284 26.2
      vertex 64.4052 -20.9265 26.2
    endloop
  endfacet
  facet normal 0 0 -1
    outer loop
      vertex 0 -67.7197 26.2
      vertex 15.5686 -21.4284 26.2
      vertex 0 -69.3376 26.2
    endloop
  endfacet
  facet normal -0 0 -1
    outer loop
      vertex 15.5686 -21.4284 26.2
      vertex 0 -67.7197 26.2
      vertex 15.2054 -20.9284 26.2
    endloop
  endfacet
  facet normal 0 0 -1
    outer loop
      vertex -15.5686 -21.4284 26.2
      vertex 0 -67.7197 26.2
      vertex 0 -69.3376 26.2
    endloop
  endfacet
  facet normal 0 0 -1
    outer loop
      vertex 0 -67.7197 26.2
      vertex -15.5686 -21.4284 26.2
      vertex -15.2054 -20.9284 26.2
    endloop
  endfacet
  facet normal 0 0 -1
    outer loop
      vertex -15.5686 -21.4284 26.2
      vertex -64.4052 -20.9265 26.2
      vertex -15.2054 -20.9284 26.2
    endloop
  endfacet
  facet normal 0 -0 -1
    outer loop
      vertex -64.4052 -20.9265 26.2
      vertex -15.5686 -21.4284 26.2
      vertex -65.9439 -21.4265 26.2
    endloop
  endfacet
  facet normal 0 0 -1
    outer loop
      vertex 64.4052 -20.9265 26.2
      vertex 25.1906 8.18491 26.2
      vertex 65.9439 -21.4265 26.2
    endloop
  endfacet
  facet normal 0 -0 -1
    outer loop
      vertex 25.1906 8.18491 26.2
      vertex 64.4052 -20.9265 26.2
      vertex 24.6028 7.99393 26.2
    endloop
  endfacet
  facet normal 0 0 -1
    outer loop
      vertex 25.1906 8.18491 26.2
      vertex 39.8046 54.7864 26.2
      vertex 40.7556 56.0953 26.2
    endloop
  endfacet
  facet normal 0 0 -1
    outer loop
      vertex 39.8046 54.7864 26.2
      vertex 25.1906 8.18491 26.2
      vertex 24.6028 7.99393 26.2
    endloop
  endfacet
  facet normal 0 0 -1
    outer loop
      vertex 0 26.4869 26.2
      vertex 39.8046 54.7864 26.2
      vertex 0 25.8689 26.2
    endloop
  endfacet
  facet normal -0 0 -1
    outer loop
      vertex 39.8046 54.7864 26.2
      vertex 0 26.4869 26.2
      vertex 40.7556 56.0953 26.2
    endloop
  endfacet
  facet normal 0 0 -1
    outer loop
      vertex -39.8046 54.7864 26.2
      vertex 0 26.4869 26.2
      vertex 0 25.8689 26.2
    endloop
  endfacet
  facet normal 0 0 -1
    outer loop
      vertex 0 26.4869 26.2
      vertex -39.8046 54.7864 26.2
      vertex -40.7556 56.0953 26.2
    endloop
  endfacet
  facet normal 0 0 -1
    outer loop
      vertex -64.4052 -20.9265 26.2
      vertex -25.1906 8.18491 26.2
      vertex -24.6028 7.99393 26.2
    endloop
  endfacet
  facet normal 0 0 -1
    outer loop
      vertex -25.1906 8.18491 26.2
      vertex -64.4052 -20.9265 26.2
      vertex -65.9439 -21.4265 26.2
    endloop
  endfacet
  facet normal 0 0 -1
    outer loop
      vertex -25.1906 8.18491 26.2
      vertex -39.8046 54.7864 26.2
      vertex -24.6028 7.99393 26.2
    endloop
  endfacet
  facet normal -0 -0 -1
    outer loop
      vertex -39.8046 54.7864 26.2
      vertex -25.1906 8.18491 26.2
      vertex -40.7556 56.0953 26.2
    endloop
  endfacet
  facet normal 0 0 1
    outer loop
      vertex 0 26.4869 27.4
      vertex 39.8046 54.7864 27.4
      vertex 40.7556 56.0953 27.4
    endloop
  endfacet
  facet normal -0 0 1
    outer loop
      vertex 0 26.4869 27.4
      vertex 0 25.8689 27.4
      vertex 39.8046 54.7864 27.4
    endloop
  endfacet
  facet normal 0 0 1
    outer loop
      vertex 0 26.4869 27.4
      vertex -39.8046 54.7864 27.4
      vertex 0 25.8689 27.4
    endloop
  endfacet
  facet normal -0 -0 1
    outer loop
      vertex -39.8046 54.7864 27.4
      vertex 0 26.4869 27.4
      vertex -40.7556 56.0953 27.4
    endloop
  endfacet
  facet normal -0 0 1
    outer loop
      vertex 39.8046 54.7864 27.4
      vertex 25.1906 8.18491 27.4
      vertex 40.7556 56.0953 27.4
    endloop
  endfacet
  facet normal 0 -0 1
    outer loop
      vertex 25.1906 8.18491 27.4
      vertex 39.8046 54.7864 27.4
      vertex 24.6028 7.99393 27.4
    endloop
  endfacet
  facet normal 0 0 1
    outer loop
      vertex 25.1906 8.18491 27.4
      vertex 64.4052 -20.9265 27.4
      vertex 65.9439 -21.4265 27.4
    endloop
  endfacet
  facet normal 0 0 1
    outer loop
      vertex 64.4052 -20.9265 27.4
      vertex 25.1906 8.18491 27.4
      vertex 24.6028 7.99393 27.4
    endloop
  endfacet
  facet normal 0 0 1
    outer loop
      vertex 64.4052 -20.9265 27.4
      vertex 15.5686 -21.4284 27.4
      vertex 65.9439 -21.4265 27.4
    endloop
  endfacet
  facet normal -0 0 1
    outer loop
      vertex 15.2054 -20.9284 27.4
      vertex 15.5686 -21.4284 27.4
      vertex 64.4052 -20.9265 27.4
    endloop
  endfacet
  facet normal 0 0 1
    outer loop
      vertex 0 -67.7197 27.4
      vertex 15.5686 -21.4284 27.4
      vertex 15.2054 -20.9284 27.4
    endloop
  endfacet
  facet normal -0 0 1
    outer loop
      vertex 0 -67.7197 27.4
      vertex 0 -69.3376 27.4
      vertex 15.5686 -21.4284 27.4
    endloop
  endfacet
  facet normal -0 0 1
    outer loop
      vertex -15.5686 -21.4284 27.4
      vertex 0 -67.7197 27.4
      vertex -15.2054 -20.9284 27.4
    endloop
  endfacet
  facet normal 0 0 1
    outer loop
      vertex 0 -67.7197 27.4
      vertex -15.5686 -21.4284 27.4
      vertex 0 -69.3376 27.4
    endloop
  endfacet
  facet normal 0 0 1
    outer loop
      vertex -64.4052 -20.9265 27.4
      vertex -15.5686 -21.4284 27.4
      vertex -15.2054 -20.9284 27.4
    endloop
  endfacet
  facet normal 0 0 1
    outer loop
      vertex -15.5686 -21.4284 27.4
      vertex -64.4052 -20.9265 27.4
      vertex -65.9439 -21.4265 27.4
    endloop
  endfacet
  facet normal 0 0 1
    outer loop
      vertex -39.8046 54.7864 27.4
      vertex -25.1906 8.18491 27.4
      vertex -24.6028 7.99393 27.4
    endloop
  endfacet
  facet normal 0 0 1
    outer loop
      vertex -25.1906 8.18491 27.4
      vertex -39.8046 54.7864 27.4
      vertex -40.7556 56.0953 27.4
    endloop
  endfacet
  facet normal 0 0 1
    outer loop
      vertex -25.1906 8.18491 27.4
      vertex -64.4052 -20.9265 27.4
      vertex -24.6028 7.99393 27.4
    endloop
  endfacet
  facet normal 0 -0 1
    outer loop
      vertex -64.4052 -20.9265 27.4
      vertex -25.1906 8.18491 27.4
      vertex -65.9439 -21.4265 27.4
    endloop
  endfacet
  facet normal 3.77169e-05 -1 0
    outer loop
      vertex 15.5686 -21.4284 26.2
      vertex 65.9439 -21.4265 27.4
      vertex 15.5686 -21.4284 27.4
    endloop
  endfacet
  facet normal 3.77169e-05 -1 0
    outer loop
      vertex 65.9439 -21.4265 27.4
      vertex 15.5686 -21.4284 26.2
      vertex 65.9439 -21.4265 26.2
    endloop
  endfacet
  facet normal 0.587816 0.808994 -0
    outer loop
      vertex 65.9439 -21.4265 26.2
      vertex 25.1906 8.18491 27.4
      vertex 65.9439 -21.4265 27.4
    endloop
  endfacet
  facet normal 0.587816 0.808994 0
    outer loop
      vertex 25.1906 8.18491 27.4
      vertex 65.9439 -21.4265 26.2
      vertex 25.1906 8.18491 26.2
    endloop
  endfacet
  facet normal 0.951068 -0.308981 0
    outer loop
      vertex 25.1906 8.18491 27.4
      vertex 40.7556 56.0953 26.2
      vertex 40.7556 56.0953 27.4
    endloop
  endfacet
  facet normal 0.951068 -0.308981 0
    outer loop
      vertex 40.7556 56.0953 26.2
      vertex 25.1906 8.18491 27.4
      vertex 25.1906 8.18491 26.2
    endloop
  endfacet
  facet normal -0.587756 0.809038 0
    outer loop
      vertex 40.7556 56.0953 26.2
      vertex 0 26.4869 27.4
      vertex 40.7556 56.0953 27.4
    endloop
  endfacet
  facet normal -0.587756 0.809038 0
    outer loop
      vertex 0 26.4869 27.4
      vertex 40.7556 56.0953 26.2
      vertex 0 26.4869 26.2
    endloop
  endfacet
  facet normal 0.587756 0.809038 -0
    outer loop
      vertex 0 26.4869 26.2
      vertex -40.7556 56.0953 27.4
      vertex 0 26.4869 27.4
    endloop
  endfacet
  facet normal 0.587756 0.809038 0
    outer loop
      vertex -40.7556 56.0953 27.4
      vertex 0 26.4869 26.2
      vertex -40.7556 56.0953 26.2
    endloop
  endfacet
  facet normal -0.951068 -0.308981 0
    outer loop
      vertex -25.1906 8.18491 26.2
      vertex -40.7556 56.0953 27.4
      vertex -40.7556 56.0953 26.2
    endloop
  endfacet
  facet normal -0.951068 -0.308981 0
    outer loop
      vertex -40.7556 56.0953 27.4
      vertex -25.1906 8.18491 26.2
      vertex -25.1906 8.18491 27.4
    endloop
  endfacet
  facet normal -0.587816 0.808994 0
    outer loop
      vertex -25.1906 8.18491 26.2
      vertex -65.9439 -21.4265 27.4
      vertex -25.1906 8.18491 27.4
    endloop
  endfacet
  facet normal -0.587816 0.808994 0
    outer loop
      vertex -65.9439 -21.4265 27.4
      vertex -25.1906 8.18491 26.2
      vertex -65.9439 -21.4265 26.2
    endloop
  endfacet
  facet normal -3.77169e-05 -1 0
    outer loop
      vertex -65.9439 -21.4265 26.2
      vertex -15.5686 -21.4284 27.4
      vertex -65.9439 -21.4265 27.4
    endloop
  endfacet
  facet normal -3.77169e-05 -1 -0
    outer loop
      vertex -15.5686 -21.4284 27.4
      vertex -65.9439 -21.4265 26.2
      vertex -15.5686 -21.4284 26.2
    endloop
  endfacet
  facet normal -0.951045 -0.309052 0
    outer loop
      vertex 0 -69.3376 26.2
      vertex -15.5686 -21.4284 27.4
      vertex -15.5686 -21.4284 26.2
    endloop
  endfacet
  facet normal -0.951045 -0.309052 0
    outer loop
      vertex -15.5686 -21.4284 27.4
      vertex 0 -69.3376 26.2
      vertex 0 -69.3376 27.4
    endloop
  endfacet
  facet normal 0.951045 -0.309052 0
    outer loop
      vertex 0 -69.3376 27.4
      vertex 15.5686 -21.4284 26.2
      vertex 15.5686 -21.4284 27.4
    endloop
  endfacet
  facet normal 0.951045 -0.309052 0
    outer loop
      vertex 15.5686 -21.4284 26.2
      vertex 0 -69.3376 27.4
      vertex 0 -69.3376 26.2
    endloop
  endfacet
endsolid OpenSCAD_Model
