solid OpenSCAD_Model
  facet normal 0.0980567 0 -0.995181
    outer loop
      vertex 0.392418 -53.65 14.0128
      vertex 0.783156 -29.2189 14.0513
      vertex 0.783156 -53.65 14.0513
    endloop
  endfacet
  facet normal 0.0980567 0 -0.995181
    outer loop
      vertex 0.783156 -29.2189 14.0513
      vertex 0.392418 -53.65 14.0128
      vertex 0.392418 -28.9351 14.0128
    endloop
  endfacet
  facet normal 0.0980567 0 -0.995181
    outer loop
      vertex 0.392418 -26.9574 14.0128
      vertex 0.783156 -22.65 14.0513
      vertex 0.783156 -27.2413 14.0513
    endloop
  endfacet
  facet normal 0.0980567 0 -0.995181
    outer loop
      vertex 0.783156 -22.65 14.0513
      vertex 0.392418 -26.9574 14.0128
      vertex 0.392418 -22.65 14.0128
    endloop
  endfacet
  facet normal -0.729783 0 -0.683678
    outer loop
      vertex -4.24264 -53.65 15.7574
      vertex -4.51104 -31.9272 16.0439
      vertex -4.24264 -31.7322 15.7574
    endloop
  endfacet
  facet normal -0.729783 -0 -0.683678
    outer loop
      vertex -4.51104 -31.9272 16.0439
      vertex -4.24264 -53.65 15.7574
      vertex -4.51104 -53.65 16.0439
    endloop
  endfacet
  facet normal -0.729783 0 -0.683678
    outer loop
      vertex -4.24264 -29.2601 15.7574
      vertex -4.51104 -22.65 16.0439
      vertex -4.24264 -22.65 15.7574
    endloop
  endfacet
  facet normal -0.729783 -0 -0.683678
    outer loop
      vertex -4.51104 -22.65 16.0439
      vertex -4.24264 -29.2601 15.7574
      vertex -4.51104 -29.4551 16.0439
    endloop
  endfacet
  facet normal 0 1 -0
    outer loop
      vertex 5.98715 -22.65 19.6076
      vertex -6 -22.65 20
      vertex 6 -22.65 20
    endloop
  endfacet
  facet normal 0 1 0
    outer loop
      vertex 5.98715 -22.65 19.6076
      vertex -5.98715 -22.65 19.6076
      vertex -6 -22.65 20
    endloop
  endfacet
  facet normal 0 1 -0
    outer loop
      vertex 5.94867 -22.65 19.2168
      vertex -5.98715 -22.65 19.6076
      vertex 5.98715 -22.65 19.6076
    endloop
  endfacet
  facet normal 0 1 0
    outer loop
      vertex 5.94867 -22.65 19.2168
      vertex -5.94867 -22.65 19.2168
      vertex -5.98715 -22.65 19.6076
    endloop
  endfacet
  facet normal 0 1 -0
    outer loop
      vertex 5.88471 -22.65 18.8295
      vertex -5.94867 -22.65 19.2168
      vertex 5.94867 -22.65 19.2168
    endloop
  endfacet
  facet normal 0 1 0
    outer loop
      vertex 5.88471 -22.65 18.8295
      vertex -5.88471 -22.65 18.8295
      vertex -5.94867 -22.65 19.2168
    endloop
  endfacet
  facet normal 0 1 -0
    outer loop
      vertex 5.79555 -22.65 18.4471
      vertex -5.88471 -22.65 18.8295
      vertex 5.88471 -22.65 18.8295
    endloop
  endfacet
  facet normal 0 1 0
    outer loop
      vertex 5.79555 -22.65 18.4471
      vertex -5.79555 -22.65 18.4471
      vertex -5.88471 -22.65 18.8295
    endloop
  endfacet
  facet normal 0 1 -0
    outer loop
      vertex 5.68158 -22.65 18.0714
      vertex -5.79555 -22.65 18.4471
      vertex 5.79555 -22.65 18.4471
    endloop
  endfacet
  facet normal 0 1 0
    outer loop
      vertex 5.68158 -22.65 18.0714
      vertex -5.68158 -22.65 18.0714
      vertex -5.79555 -22.65 18.4471
    endloop
  endfacet
  facet normal 0 1 -0
    outer loop
      vertex 5.54328 -22.65 17.7039
      vertex -5.68158 -22.65 18.0714
      vertex 5.68158 -22.65 18.0714
    endloop
  endfacet
  facet normal 0 1 0
    outer loop
      vertex 5.54328 -22.65 17.7039
      vertex -5.54328 -22.65 17.7039
      vertex -5.68158 -22.65 18.0714
    endloop
  endfacet
  facet normal 0 1 -0
    outer loop
      vertex 5.38124 -22.65 17.3463
      vertex -5.54328 -22.65 17.7039
      vertex 5.54328 -22.65 17.7039
    endloop
  endfacet
  facet normal 0 1 0
    outer loop
      vertex 5.38124 -22.65 17.3463
      vertex -5.38124 -22.65 17.3463
      vertex -5.54328 -22.65 17.7039
    endloop
  endfacet
  facet normal 0 1 -0
    outer loop
      vertex 5.19615 -22.65 17
      vertex -5.38124 -22.65 17.3463
      vertex 5.38124 -22.65 17.3463
    endloop
  endfacet
  facet normal 0 1 0
    outer loop
      vertex 5.19615 -22.65 17
      vertex -5.19615 -22.65 17
      vertex -5.38124 -22.65 17.3463
    endloop
  endfacet
  facet normal 0 1 -0
    outer loop
      vertex 4.98882 -22.65 16.6666
      vertex -5.19615 -22.65 17
      vertex 5.19615 -22.65 17
    endloop
  endfacet
  facet normal 0 1 0
    outer loop
      vertex 4.98882 -22.65 16.6666
      vertex -4.98882 -22.65 16.6666
      vertex -5.19615 -22.65 17
    endloop
  endfacet
  facet normal 0 1 -0
    outer loop
      vertex 4.76012 -22.65 16.3474
      vertex -4.98882 -22.65 16.6666
      vertex 4.98882 -22.65 16.6666
    endloop
  endfacet
  facet normal 0 1 0
    outer loop
      vertex 4.76012 -22.65 16.3474
      vertex -4.76012 -22.65 16.3474
      vertex -4.98882 -22.65 16.6666
    endloop
  endfacet
  facet normal 0 1 -0
    outer loop
      vertex 4.51104 -22.65 16.0439
      vertex -4.76012 -22.65 16.3474
      vertex 4.76012 -22.65 16.3474
    endloop
  endfacet
  facet normal 0 1 0
    outer loop
      vertex 4.51104 -22.65 16.0439
      vertex -4.51104 -22.65 16.0439
      vertex -4.76012 -22.65 16.3474
    endloop
  endfacet
  facet normal 0 1 -0
    outer loop
      vertex 4.24264 -22.65 15.7574
      vertex -4.51104 -22.65 16.0439
      vertex 4.51104 -22.65 16.0439
    endloop
  endfacet
  facet normal 0 1 0
    outer loop
      vertex 4.24264 -22.65 15.7574
      vertex -4.24264 -22.65 15.7574
      vertex -4.51104 -22.65 16.0439
    endloop
  endfacet
  facet normal 0 1 -0
    outer loop
      vertex 3.95607 -22.65 15.489
      vertex -4.24264 -22.65 15.7574
      vertex 4.24264 -22.65 15.7574
    endloop
  endfacet
  facet normal 0 1 0
    outer loop
      vertex 3.95607 -22.65 15.489
      vertex -3.95607 -22.65 15.489
      vertex -4.24264 -22.65 15.7574
    endloop
  endfacet
  facet normal 0 1 -0
    outer loop
      vertex 3.65257 -22.65 15.2399
      vertex -3.95607 -22.65 15.489
      vertex 3.95607 -22.65 15.489
    endloop
  endfacet
  facet normal 0 1 0
    outer loop
      vertex 3.65257 -22.65 15.2399
      vertex -3.65257 -22.65 15.2399
      vertex -3.95607 -22.65 15.489
    endloop
  endfacet
  facet normal 0 1 -0
    outer loop
      vertex 3.33342 -22.65 15.0112
      vertex -3.65257 -22.65 15.2399
      vertex 3.65257 -22.65 15.2399
    endloop
  endfacet
  facet normal 0 1 0
    outer loop
      vertex 3.33342 -22.65 15.0112
      vertex -3.33342 -22.65 15.0112
      vertex -3.65257 -22.65 15.2399
    endloop
  endfacet
  facet normal 0 1 -0
    outer loop
      vertex 3 -22.65 14.8038
      vertex -3.33342 -22.65 15.0112
      vertex 3.33342 -22.65 15.0112
    endloop
  endfacet
  facet normal 0 1 0
    outer loop
      vertex 3 -22.65 14.8038
      vertex -3 -22.65 14.8038
      vertex -3.33342 -22.65 15.0112
    endloop
  endfacet
  facet normal 0 1 -0
    outer loop
      vertex 2.65373 -22.65 14.6188
      vertex -3 -22.65 14.8038
      vertex 3 -22.65 14.8038
    endloop
  endfacet
  facet normal 0 1 0
    outer loop
      vertex 2.65373 -22.65 14.6188
      vertex -2.65373 -22.65 14.6188
      vertex -3 -22.65 14.8038
    endloop
  endfacet
  facet normal 0 1 -0
    outer loop
      vertex 2.2961 -22.65 14.4567
      vertex -2.65373 -22.65 14.6188
      vertex 2.65373 -22.65 14.6188
    endloop
  endfacet
  facet normal 0 1 0
    outer loop
      vertex 2.2961 -22.65 14.4567
      vertex -2.2961 -22.65 14.4567
      vertex -2.65373 -22.65 14.6188
    endloop
  endfacet
  facet normal 0 1 -0
    outer loop
      vertex 1.92864 -22.65 14.3184
      vertex -2.2961 -22.65 14.4567
      vertex 2.2961 -22.65 14.4567
    endloop
  endfacet
  facet normal 0 1 0
    outer loop
      vertex 1.92864 -22.65 14.3184
      vertex -1.92864 -22.65 14.3184
      vertex -2.2961 -22.65 14.4567
    endloop
  endfacet
  facet normal 0 1 -0
    outer loop
      vertex 1.55291 -22.65 14.2044
      vertex -1.92864 -22.65 14.3184
      vertex 1.92864 -22.65 14.3184
    endloop
  endfacet
  facet normal 0 1 0
    outer loop
      vertex 1.55291 -22.65 14.2044
      vertex -1.55291 -22.65 14.2044
      vertex -1.92864 -22.65 14.3184
    endloop
  endfacet
  facet normal 0 1 -0
    outer loop
      vertex 1.17054 -22.65 14.1153
      vertex -1.55291 -22.65 14.2044
      vertex 1.55291 -22.65 14.2044
    endloop
  endfacet
  facet normal 0 1 0
    outer loop
      vertex 1.17054 -22.65 14.1153
      vertex -1.17054 -22.65 14.1153
      vertex -1.55291 -22.65 14.2044
    endloop
  endfacet
  facet normal 0 1 -0
    outer loop
      vertex 0.783156 -22.65 14.0513
      vertex -1.17054 -22.65 14.1153
      vertex 1.17054 -22.65 14.1153
    endloop
  endfacet
  facet normal 0 1 0
    outer loop
      vertex 0.783156 -22.65 14.0513
      vertex -0.783156 -22.65 14.0513
      vertex -1.17054 -22.65 14.1153
    endloop
  endfacet
  facet normal 0 1 -0
    outer loop
      vertex 0.392418 -22.65 14.0128
      vertex -0.783156 -22.65 14.0513
      vertex 0.783156 -22.65 14.0513
    endloop
  endfacet
  facet normal 0 1 0
    outer loop
      vertex 0.392418 -22.65 14.0128
      vertex -0.392418 -22.65 14.0128
      vertex -0.783156 -22.65 14.0513
    endloop
  endfacet
  facet normal -0 1 0
    outer loop
      vertex -0.392418 -22.65 14.0128
      vertex 0.392418 -22.65 14.0128
      vertex 0 -22.65 14
    endloop
  endfacet
  facet normal 0.412834 0 -0.910806
    outer loop
      vertex 2.2961 -27.846 14.4567
      vertex 2.65373 -22.65 14.6188
      vertex 2.65373 -28.1058 14.6188
    endloop
  endfacet
  facet normal 0.412834 0 -0.910806
    outer loop
      vertex 2.65373 -22.65 14.6188
      vertex 2.2961 -27.846 14.4567
      vertex 2.2961 -22.65 14.4567
    endloop
  endfacet
  facet normal 0.412834 0 -0.910806
    outer loop
      vertex 2.2961 -53.65 14.4567
      vertex 2.65373 -30.5779 14.6188
      vertex 2.65373 -53.65 14.6188
    endloop
  endfacet
  facet normal 0.412834 0 -0.910806
    outer loop
      vertex 2.65373 -30.5779 14.6188
      vertex 2.2961 -53.65 14.4567
      vertex 2.2961 -30.3181 14.4567
    endloop
  endfacet
  facet normal 0.729783 0 -0.683678
    outer loop
      vertex 4.24264 -53.65 15.7574
      vertex 4.51104 -31.9272 16.0439
      vertex 4.51104 -53.65 16.0439
    endloop
  endfacet
  facet normal 0.729783 0 -0.683678
    outer loop
      vertex 4.51104 -31.9272 16.0439
      vertex 4.24264 -53.65 15.7574
      vertex 4.24264 -31.7322 15.7574
    endloop
  endfacet
  facet normal 0.729783 0 -0.683678
    outer loop
      vertex 4.51104 -22.65 16.0439
      vertex 4.24264 -29.2601 15.7574
      vertex 4.24264 -22.65 15.7574
    endloop
  endfacet
  facet normal 0.729783 0 -0.683678
    outer loop
      vertex 4.24264 -29.2601 15.7574
      vertex 4.51104 -22.65 16.0439
      vertex 4.51104 -29.4551 16.0439
    endloop
  endfacet
  facet normal 0.582478 0 -0.812846
    outer loop
      vertex 3.33342 -28.5996 15.0112
      vertex 3.65257 -22.65 15.2399
      vertex 3.65257 -28.8315 15.2399
    endloop
  endfacet
  facet normal 0.582478 0 -0.812846
    outer loop
      vertex 3.65257 -22.65 15.2399
      vertex 3.33342 -28.5996 15.0112
      vertex 3.33342 -22.65 15.0112
    endloop
  endfacet
  facet normal 0.582478 0 -0.812846
    outer loop
      vertex 3.33342 -53.65 15.0112
      vertex 3.65257 -31.3035 15.2399
      vertex 3.65257 -53.65 15.2399
    endloop
  endfacet
  facet normal 0.582478 0 -0.812846
    outer loop
      vertex 3.65257 -31.3035 15.2399
      vertex 3.33342 -53.65 15.0112
      vertex 3.33342 -31.0717 15.0112
    endloop
  endfacet
  facet normal 0.93592 0 -0.352212
    outer loop
      vertex 5.54328 -53.65 17.7039
      vertex 5.68158 -32.7776 18.0714
      vertex 5.68158 -53.65 18.0714
    endloop
  endfacet
  facet normal 0.93592 0 -0.352212
    outer loop
      vertex 5.68158 -32.7776 18.0714
      vertex 5.54328 -53.65 17.7039
      vertex 5.54328 -32.6771 17.7039
    endloop
  endfacet
  facet normal 0.93592 0 -0.352212
    outer loop
      vertex 5.68158 -22.65 18.0714
      vertex 5.54328 -30.205 17.7039
      vertex 5.54328 -22.65 17.7039
    endloop
  endfacet
  facet normal 0.93592 0 -0.352212
    outer loop
      vertex 5.54328 -30.205 17.7039
      vertex 5.68158 -22.65 18.0714
      vertex 5.68158 -30.3055 18.0714
    endloop
  endfacet
  facet normal -0.352245 -0 -0.935908
    outer loop
      vertex -2.2961 -30.3181 14.4567
      vertex -1.92864 -53.65 14.3184
      vertex -2.2961 -53.65 14.4567
    endloop
  endfacet
  facet normal -0.352245 0 -0.935908
    outer loop
      vertex -1.92864 -53.65 14.3184
      vertex -2.2961 -30.3181 14.4567
      vertex -1.92864 -30.0511 14.3184
    endloop
  endfacet
  facet normal -0.35233 -0 -0.935876
    outer loop
      vertex -2.14539 -27.7365 14.4
      vertex -1.92864 -28.0735 14.3184
      vertex -2.14539 -28.2309 14.4
    endloop
  endfacet
  facet normal -0.35233 0 -0.935876
    outer loop
      vertex -1.92864 -28.0735 14.3184
      vertex -2.14539 -27.7365 14.4
      vertex -1.92864 -22.65 14.3184
    endloop
  endfacet
  facet normal -0.352124 -0 -0.935953
    outer loop
      vertex -2.2961 -22.65 14.4567
      vertex -2.14539 -27.7365 14.4
      vertex -2.2961 -27.846 14.4567
    endloop
  endfacet
  facet normal -0.352245 -4.1115e-06 -0.935908
    outer loop
      vertex -2.14539 -27.7365 14.4
      vertex -2.2961 -22.65 14.4567
      vertex -1.92864 -22.65 14.3184
    endloop
  endfacet
  facet normal -0.812889 0 -0.582418
    outer loop
      vertex -4.76012 -29.6361 16.3474
      vertex -4.98882 -22.65 16.6666
      vertex -4.76012 -22.65 16.3474
    endloop
  endfacet
  facet normal -0.812889 -0 -0.582418
    outer loop
      vertex -4.98882 -22.65 16.6666
      vertex -4.76012 -29.6361 16.3474
      vertex -4.98882 -29.8022 16.6666
    endloop
  endfacet
  facet normal -0.812889 0 -0.582418
    outer loop
      vertex -4.76012 -53.65 16.3474
      vertex -4.98882 -32.2743 16.6666
      vertex -4.76012 -32.1081 16.3474
    endloop
  endfacet
  facet normal -0.812889 -0 -0.582418
    outer loop
      vertex -4.98882 -32.2743 16.6666
      vertex -4.76012 -53.65 16.3474
      vertex -4.98882 -53.65 16.6666
    endloop
  endfacet
  facet normal -0.773005 0 -0.634399
    outer loop
      vertex -4.51104 -29.4551 16.0439
      vertex -4.76012 -22.65 16.3474
      vertex -4.51104 -22.65 16.0439
    endloop
  endfacet
  facet normal -0.773005 -0 -0.634399
    outer loop
      vertex -4.76012 -22.65 16.3474
      vertex -4.51104 -29.4551 16.0439
      vertex -4.76012 -29.6361 16.3474
    endloop
  endfacet
  facet normal -0.773005 0 -0.634399
    outer loop
      vertex -4.51104 -53.65 16.0439
      vertex -4.76012 -32.1081 16.3474
      vertex -4.51104 -31.9272 16.0439
    endloop
  endfacet
  facet normal -0.773005 -0 -0.634399
    outer loop
      vertex -4.76012 -32.1081 16.3474
      vertex -4.51104 -53.65 16.0439
      vertex -4.76012 -53.65 16.3474
    endloop
  endfacet
  facet normal -0.956938 0 -0.290291
    outer loop
      vertex -5.68158 -30.3055 18.0714
      vertex -5.79555 -22.65 18.4471
      vertex -5.68158 -22.65 18.0714
    endloop
  endfacet
  facet normal -0.956938 -0 -0.290291
    outer loop
      vertex -5.79555 -22.65 18.4471
      vertex -5.68158 -30.3055 18.0714
      vertex -5.79555 -30.3883 18.4471
    endloop
  endfacet
  facet normal -0.956938 0 -0.290291
    outer loop
      vertex -5.68158 -53.65 18.0714
      vertex -5.79555 -32.8604 18.4471
      vertex -5.68158 -32.7776 18.0714
    endloop
  endfacet
  facet normal -0.956938 -0 -0.290291
    outer loop
      vertex -5.79555 -32.8604 18.4471
      vertex -5.68158 -53.65 18.0714
      vertex -5.79555 -53.65 18.4471
    endloop
  endfacet
  facet normal -0.93592 0 -0.352212
    outer loop
      vertex -5.54328 -53.65 17.7039
      vertex -5.68158 -32.7776 18.0714
      vertex -5.54328 -32.6771 17.7039
    endloop
  endfacet
  facet normal -0.93592 -0 -0.352212
    outer loop
      vertex -5.68158 -32.7776 18.0714
      vertex -5.54328 -53.65 17.7039
      vertex -5.68158 -53.65 18.0714
    endloop
  endfacet
  facet normal -0.93592 0 -0.352212
    outer loop
      vertex -5.54328 -30.205 17.7039
      vertex -5.68158 -22.65 18.0714
      vertex -5.54328 -22.65 17.7039
    endloop
  endfacet
  facet normal -0.93592 -0 -0.352212
    outer loop
      vertex -5.68158 -22.65 18.0714
      vertex -5.54328 -30.205 17.7039
      vertex -5.68158 -30.3055 18.0714
    endloop
  endfacet
  facet normal -0.999464 0 -0.0327297
    outer loop
      vertex -5.98715 -30.5275 19.6076
      vertex -6 -22.65 20
      vertex -5.98715 -22.65 19.6076
    endloop
  endfacet
  facet normal -0.999464 -0 -0.0327297
    outer loop
      vertex -6 -22.65 20
      vertex -5.98715 -30.5275 19.6076
      vertex -6 -30.5368 20
    endloop
  endfacet
  facet normal -0.999464 0 -0.0327297
    outer loop
      vertex -5.98715 -53.65 19.6076
      vertex -6 -33.0089 20
      vertex -5.98715 -32.9996 19.6076
    endloop
  endfacet
  facet normal -0.999464 -0 -0.0327297
    outer loop
      vertex -6 -33.0089 20
      vertex -5.98715 -53.65 19.6076
      vertex -6 -53.65 20
    endloop
  endfacet
  facet normal 0.226941 0 -0.973909
    outer loop
      vertex 1.17054 -27.5227 14.1153
      vertex 1.55291 -22.65 14.2044
      vertex 1.55291 -27.8005 14.2044
    endloop
  endfacet
  facet normal 0.226941 0 -0.973909
    outer loop
      vertex 1.55291 -22.65 14.2044
      vertex 1.17054 -27.5227 14.1153
      vertex 1.17054 -22.65 14.1153
    endloop
  endfacet
  facet normal 0.226941 0 -0.973909
    outer loop
      vertex 1.17054 -53.65 14.1153
      vertex 1.55291 -29.7782 14.2044
      vertex 1.55291 -53.65 14.2044
    endloop
  endfacet
  facet normal 0.226941 0 -0.973909
    outer loop
      vertex 1.55291 -29.7782 14.2044
      vertex 1.17054 -53.65 14.1153
      vertex 1.17054 -29.5004 14.1153
    endloop
  endfacet
  facet normal 0.29034 0 -0.956924
    outer loop
      vertex 1.55291 -27.8005 14.2044
      vertex 1.92864 -22.65 14.3184
      vertex 1.92864 -28.0735 14.3184
    endloop
  endfacet
  facet normal 0.29034 0 -0.956924
    outer loop
      vertex 1.92864 -22.65 14.3184
      vertex 1.55291 -27.8005 14.2044
      vertex 1.55291 -22.65 14.2044
    endloop
  endfacet
  facet normal 0.29034 0 -0.956924
    outer loop
      vertex 1.55291 -53.65 14.2044
      vertex 1.92864 -30.0511 14.3184
      vertex 1.92864 -53.65 14.3184
    endloop
  endfacet
  facet normal 0.29034 0 -0.956924
    outer loop
      vertex 1.92864 -30.0511 14.3184
      vertex 1.55291 -53.65 14.2044
      vertex 1.55291 -29.7782 14.2044
    endloop
  endfacet
  facet normal 0.35233 0 -0.935876
    outer loop
      vertex 2.14539 -28.2309 14.4
      vertex 1.92864 -28.0735 14.3184
      vertex 2.14539 -27.7365 14.4
    endloop
  endfacet
  facet normal 0.352124 0 -0.935953
    outer loop
      vertex 2.14539 -27.7365 14.4
      vertex 2.2961 -22.65 14.4567
      vertex 2.2961 -27.846 14.4567
    endloop
  endfacet
  facet normal 0.35233 0 -0.935876
    outer loop
      vertex 1.92864 -22.65 14.3184
      vertex 2.14539 -27.7365 14.4
      vertex 1.92864 -28.0735 14.3184
    endloop
  endfacet
  facet normal 0.352245 -4.1115e-06 -0.935908
    outer loop
      vertex 2.14539 -27.7365 14.4
      vertex 1.92864 -22.65 14.3184
      vertex 2.2961 -22.65 14.4567
    endloop
  endfacet
  facet normal 0.352245 0 -0.935908
    outer loop
      vertex 1.92864 -53.65 14.3184
      vertex 2.2961 -30.3181 14.4567
      vertex 2.2961 -53.65 14.4567
    endloop
  endfacet
  facet normal 0.352245 0 -0.935908
    outer loop
      vertex 2.2961 -30.3181 14.4567
      vertex 1.92864 -53.65 14.3184
      vertex 1.92864 -30.0511 14.3184
    endloop
  endfacet
  facet normal 0.63443 0 -0.77298
    outer loop
      vertex 3.65257 -28.8315 15.2399
      vertex 3.95607 -22.65 15.489
      vertex 3.95607 -29.052 15.489
    endloop
  endfacet
  facet normal 0.63443 0 -0.77298
    outer loop
      vertex 3.95607 -22.65 15.489
      vertex 3.65257 -28.8315 15.2399
      vertex 3.65257 -22.65 15.2399
    endloop
  endfacet
  facet normal 0.63443 0 -0.77298
    outer loop
      vertex 3.65257 -53.65 15.2399
      vertex 3.95607 -31.524 15.489
      vertex 3.95607 -53.65 15.489
    endloop
  endfacet
  facet normal 0.63443 0 -0.77298
    outer loop
      vertex 3.95607 -31.524 15.489
      vertex 3.65257 -53.65 15.2399
      vertex 3.65257 -31.3035 15.2399
    endloop
  endfacet
  facet normal 0.683589 0 -0.729867
    outer loop
      vertex 3.95607 -53.65 15.489
      vertex 4.24264 -31.7322 15.7574
      vertex 4.24264 -53.65 15.7574
    endloop
  endfacet
  facet normal 0.683589 0 -0.729867
    outer loop
      vertex 4.24264 -31.7322 15.7574
      vertex 3.95607 -53.65 15.489
      vertex 3.95607 -31.524 15.489
    endloop
  endfacet
  facet normal 0.683589 0 -0.729867
    outer loop
      vertex 3.95607 -29.052 15.489
      vertex 4.24264 -22.65 15.7574
      vertex 4.24264 -29.2601 15.7574
    endloop
  endfacet
  facet normal 0.683589 0 -0.729867
    outer loop
      vertex 4.24264 -22.65 15.7574
      vertex 3.95607 -29.052 15.489
      vertex 3.95607 -22.65 15.489
    endloop
  endfacet
  facet normal 0.471228 0 -0.882011
    outer loop
      vertex 2.65373 -28.1058 14.6188
      vertex 3 -22.65 14.8038
      vertex 3 -28.3574 14.8038
    endloop
  endfacet
  facet normal 0.471228 0 -0.882011
    outer loop
      vertex 3 -22.65 14.8038
      vertex 2.65373 -28.1058 14.6188
      vertex 2.65373 -22.65 14.6188
    endloop
  endfacet
  facet normal 0.471228 0 -0.882011
    outer loop
      vertex 2.65373 -53.65 14.6188
      vertex 3 -30.8294 14.8038
      vertex 3 -53.65 14.8038
    endloop
  endfacet
  facet normal 0.471228 0 -0.882011
    outer loop
      vertex 3 -30.8294 14.8038
      vertex 2.65373 -53.65 14.6188
      vertex 2.65373 -30.5779 14.6188
    endloop
  endfacet
  facet normal 0.528189 0 -0.849127
    outer loop
      vertex 3 -53.65 14.8038
      vertex 3.33342 -31.0717 15.0112
      vertex 3.33342 -53.65 15.0112
    endloop
  endfacet
  facet normal 0.528189 0 -0.849127
    outer loop
      vertex 3.33342 -31.0717 15.0112
      vertex 3 -53.65 14.8038
      vertex 3 -30.8294 14.8038
    endloop
  endfacet
  facet normal 0.528189 0 -0.849127
    outer loop
      vertex 3 -28.3574 14.8038
      vertex 3.33342 -22.65 15.0112
      vertex 3.33342 -28.5996 15.0112
    endloop
  endfacet
  facet normal 0.528189 0 -0.849127
    outer loop
      vertex 3.33342 -22.65 15.0112
      vertex 3 -28.3574 14.8038
      vertex 3 -22.65 14.8038
    endloop
  endfacet
  facet normal 0.849192 0 -0.528084
    outer loop
      vertex 5.19615 -22.65 17
      vertex 4.98882 -29.8022 16.6666
      vertex 4.98882 -22.65 16.6666
    endloop
  endfacet
  facet normal 0.849192 0 -0.528084
    outer loop
      vertex 4.98882 -29.8022 16.6666
      vertex 5.19615 -22.65 17
      vertex 5.19615 -29.9529 17
    endloop
  endfacet
  facet normal 0.849192 0 -0.528084
    outer loop
      vertex 4.98882 -53.65 16.6666
      vertex 5.19615 -32.4249 17
      vertex 5.19615 -53.65 17
    endloop
  endfacet
  facet normal 0.849192 0 -0.528084
    outer loop
      vertex 5.19615 -32.4249 17
      vertex 4.98882 -53.65 16.6666
      vertex 4.98882 -32.2743 16.6666
    endloop
  endfacet
  facet normal 0.773005 0 -0.634399
    outer loop
      vertex 4.76012 -22.65 16.3474
      vertex 4.51104 -29.4551 16.0439
      vertex 4.51104 -22.65 16.0439
    endloop
  endfacet
  facet normal 0.773005 0 -0.634399
    outer loop
      vertex 4.51104 -29.4551 16.0439
      vertex 4.76012 -22.65 16.3474
      vertex 4.76012 -29.6361 16.3474
    endloop
  endfacet
  facet normal 0.773005 0 -0.634399
    outer loop
      vertex 4.51104 -53.65 16.0439
      vertex 4.76012 -32.1081 16.3474
      vertex 4.76012 -53.65 16.3474
    endloop
  endfacet
  facet normal 0.773005 0 -0.634399
    outer loop
      vertex 4.76012 -32.1081 16.3474
      vertex 4.51104 -53.65 16.0439
      vertex 4.51104 -31.9272 16.0439
    endloop
  endfacet
  facet normal 0.812889 0 -0.582418
    outer loop
      vertex 4.98882 -22.65 16.6666
      vertex 4.76012 -29.6361 16.3474
      vertex 4.76012 -22.65 16.3474
    endloop
  endfacet
  facet normal 0.812889 0 -0.582418
    outer loop
      vertex 4.76012 -29.6361 16.3474
      vertex 4.98882 -22.65 16.6666
      vertex 4.98882 -29.8022 16.6666
    endloop
  endfacet
  facet normal 0.812889 0 -0.582418
    outer loop
      vertex 4.76012 -53.65 16.3474
      vertex 4.98882 -32.2743 16.6666
      vertex 4.98882 -53.65 16.6666
    endloop
  endfacet
  facet normal 0.812889 0 -0.582418
    outer loop
      vertex 4.98882 -32.2743 16.6666
      vertex 4.76012 -53.65 16.3474
      vertex 4.76012 -32.1081 16.3474
    endloop
  endfacet
  facet normal 0.881933 0 -0.471375
    outer loop
      vertex 5.19615 -53.65 17
      vertex 5.38124 -32.5594 17.3463
      vertex 5.38124 -53.65 17.3463
    endloop
  endfacet
  facet normal 0.881933 0 -0.471375
    outer loop
      vertex 5.38124 -32.5594 17.3463
      vertex 5.19615 -53.65 17
      vertex 5.19615 -32.4249 17
    endloop
  endfacet
  facet normal 0.881933 0 -0.471375
    outer loop
      vertex 5.38124 -22.65 17.3463
      vertex 5.19615 -29.9529 17
      vertex 5.19615 -22.65 17
    endloop
  endfacet
  facet normal 0.881933 0 -0.471375
    outer loop
      vertex 5.19615 -29.9529 17
      vertex 5.38124 -22.65 17.3463
      vertex 5.38124 -30.0873 17.3463
    endloop
  endfacet
  facet normal 0.910851 0 -0.412736
    outer loop
      vertex 5.38124 -53.65 17.3463
      vertex 5.54328 -32.6771 17.7039
      vertex 5.54328 -53.65 17.7039
    endloop
  endfacet
  facet normal 0.910851 0 -0.412736
    outer loop
      vertex 5.54328 -32.6771 17.7039
      vertex 5.38124 -53.65 17.3463
      vertex 5.38124 -32.5594 17.3463
    endloop
  endfacet
  facet normal 0.910851 0 -0.412736
    outer loop
      vertex 5.54328 -22.65 17.7039
      vertex 5.38124 -30.0873 17.3463
      vertex 5.38124 -22.65 17.3463
    endloop
  endfacet
  facet normal 0.910851 0 -0.412736
    outer loop
      vertex 5.38124 -30.0873 17.3463
      vertex 5.54328 -22.65 17.7039
      vertex 5.54328 -30.205 17.7039
    endloop
  endfacet
  facet normal 0.986637 0 -0.162936
    outer loop
      vertex 5.88471 -53.65 18.8295
      vertex 5.94867 -32.9716 19.2168
      vertex 5.94867 -53.65 19.2168
    endloop
  endfacet
  facet normal 0.986637 0 -0.162936
    outer loop
      vertex 5.94867 -32.9716 19.2168
      vertex 5.88471 -53.65 18.8295
      vertex 5.88471 -32.9251 18.8295
    endloop
  endfacet
  facet normal 0.986637 0 -0.162936
    outer loop
      vertex 5.94867 -22.65 19.2168
      vertex 5.88471 -30.4531 18.8295
      vertex 5.88471 -22.65 18.8295
    endloop
  endfacet
  facet normal 0.986637 0 -0.162936
    outer loop
      vertex 5.88471 -30.4531 18.8295
      vertex 5.94867 -22.65 19.2168
      vertex 5.94867 -30.4995 19.2168
    endloop
  endfacet
  facet normal -0.0980567 -0 -0.995181
    outer loop
      vertex -0.783156 -22.65 14.0513
      vertex -0.392418 -26.9574 14.0128
      vertex -0.783156 -27.2413 14.0513
    endloop
  endfacet
  facet normal -0.0980567 0 -0.995181
    outer loop
      vertex -0.392418 -26.9574 14.0128
      vertex -0.783156 -22.65 14.0513
      vertex -0.392418 -22.65 14.0128
    endloop
  endfacet
  facet normal -0.0980567 -0 -0.995181
    outer loop
      vertex -0.783156 -29.2189 14.0513
      vertex -0.392418 -53.65 14.0128
      vertex -0.783156 -53.65 14.0513
    endloop
  endfacet
  facet normal -0.0980567 0 -0.995181
    outer loop
      vertex -0.392418 -53.65 14.0128
      vertex -0.783156 -29.2189 14.0513
      vertex -0.392418 -28.9351 14.0128
    endloop
  endfacet
  facet normal -0.528189 -0 -0.849127
    outer loop
      vertex -3.33342 -22.65 15.0112
      vertex -3 -28.3574 14.8038
      vertex -3.33342 -28.5996 15.0112
    endloop
  endfacet
  facet normal -0.528189 0 -0.849127
    outer loop
      vertex -3 -28.3574 14.8038
      vertex -3.33342 -22.65 15.0112
      vertex -3 -22.65 14.8038
    endloop
  endfacet
  facet normal -0.528189 -0 -0.849127
    outer loop
      vertex -3.33342 -31.0717 15.0112
      vertex -3 -53.65 14.8038
      vertex -3.33342 -53.65 15.0112
    endloop
  endfacet
  facet normal -0.528189 0 -0.849127
    outer loop
      vertex -3 -53.65 14.8038
      vertex -3.33342 -31.0717 15.0112
      vertex -3 -30.8294 14.8038
    endloop
  endfacet
  facet normal -0.63443 -0 -0.77298
    outer loop
      vertex -3.95607 -22.65 15.489
      vertex -3.65257 -28.8315 15.2399
      vertex -3.95607 -29.052 15.489
    endloop
  endfacet
  facet normal -0.63443 0 -0.77298
    outer loop
      vertex -3.65257 -28.8315 15.2399
      vertex -3.95607 -22.65 15.489
      vertex -3.65257 -22.65 15.2399
    endloop
  endfacet
  facet normal -0.63443 -0 -0.77298
    outer loop
      vertex -3.95607 -31.524 15.489
      vertex -3.65257 -53.65 15.2399
      vertex -3.95607 -53.65 15.489
    endloop
  endfacet
  facet normal -0.63443 0 -0.77298
    outer loop
      vertex -3.65257 -53.65 15.2399
      vertex -3.95607 -31.524 15.489
      vertex -3.65257 -31.3035 15.2399
    endloop
  endfacet
  facet normal -0.582478 -0 -0.812846
    outer loop
      vertex -3.65257 -22.65 15.2399
      vertex -3.33342 -28.5996 15.0112
      vertex -3.65257 -28.8315 15.2399
    endloop
  endfacet
  facet normal -0.582478 0 -0.812846
    outer loop
      vertex -3.33342 -28.5996 15.0112
      vertex -3.65257 -22.65 15.2399
      vertex -3.33342 -22.65 15.0112
    endloop
  endfacet
  facet normal -0.582478 -0 -0.812846
    outer loop
      vertex -3.65257 -31.3035 15.2399
      vertex -3.33342 -53.65 15.0112
      vertex -3.65257 -53.65 15.2399
    endloop
  endfacet
  facet normal -0.582478 0 -0.812846
    outer loop
      vertex -3.33342 -53.65 15.0112
      vertex -3.65257 -31.3035 15.2399
      vertex -3.33342 -31.0717 15.0112
    endloop
  endfacet
  facet normal -0.471228 -0 -0.882011
    outer loop
      vertex -3 -30.8294 14.8038
      vertex -2.65373 -53.65 14.6188
      vertex -3 -53.65 14.8038
    endloop
  endfacet
  facet normal -0.471228 0 -0.882011
    outer loop
      vertex -2.65373 -53.65 14.6188
      vertex -3 -30.8294 14.8038
      vertex -2.65373 -30.5779 14.6188
    endloop
  endfacet
  facet normal -0.471228 -0 -0.882011
    outer loop
      vertex -3 -22.65 14.8038
      vertex -2.65373 -28.1058 14.6188
      vertex -3 -28.3574 14.8038
    endloop
  endfacet
  facet normal -0.471228 0 -0.882011
    outer loop
      vertex -2.65373 -28.1058 14.6188
      vertex -3 -22.65 14.8038
      vertex -2.65373 -22.65 14.6188
    endloop
  endfacet
  facet normal -0.163001 -0 -0.986626
    outer loop
      vertex -1.17054 -22.65 14.1153
      vertex -0.783156 -27.2413 14.0513
      vertex -1.17054 -27.5227 14.1153
    endloop
  endfacet
  facet normal -0.163001 0 -0.986626
    outer loop
      vertex -0.783156 -27.2413 14.0513
      vertex -1.17054 -22.65 14.1153
      vertex -0.783156 -22.65 14.0513
    endloop
  endfacet
  facet normal -0.163001 -0 -0.986626
    outer loop
      vertex -1.17054 -29.5004 14.1153
      vertex -0.783156 -53.65 14.0513
      vertex -1.17054 -53.65 14.1153
    endloop
  endfacet
  facet normal -0.163001 0 -0.986626
    outer loop
      vertex -0.783156 -53.65 14.0513
      vertex -1.17054 -29.5004 14.1153
      vertex -0.783156 -29.2189 14.0513
    endloop
  endfacet
  facet normal -0.226941 -0 -0.973909
    outer loop
      vertex -1.55291 -22.65 14.2044
      vertex -1.17054 -27.5227 14.1153
      vertex -1.55291 -27.8005 14.2044
    endloop
  endfacet
  facet normal -0.226941 0 -0.973909
    outer loop
      vertex -1.17054 -27.5227 14.1153
      vertex -1.55291 -22.65 14.2044
      vertex -1.17054 -22.65 14.1153
    endloop
  endfacet
  facet normal -0.226941 -0 -0.973909
    outer loop
      vertex -1.55291 -29.7782 14.2044
      vertex -1.17054 -53.65 14.1153
      vertex -1.55291 -53.65 14.2044
    endloop
  endfacet
  facet normal -0.226941 0 -0.973909
    outer loop
      vertex -1.17054 -53.65 14.1153
      vertex -1.55291 -29.7782 14.2044
      vertex -1.17054 -29.5004 14.1153
    endloop
  endfacet
  facet normal -0.683589 -0 -0.729867
    outer loop
      vertex -4.24264 -22.65 15.7574
      vertex -3.95607 -29.052 15.489
      vertex -4.24264 -29.2601 15.7574
    endloop
  endfacet
  facet normal -0.683589 0 -0.729867
    outer loop
      vertex -3.95607 -29.052 15.489
      vertex -4.24264 -22.65 15.7574
      vertex -3.95607 -22.65 15.489
    endloop
  endfacet
  facet normal -0.683589 -0 -0.729867
    outer loop
      vertex -4.24264 -31.7322 15.7574
      vertex -3.95607 -53.65 15.489
      vertex -4.24264 -53.65 15.7574
    endloop
  endfacet
  facet normal -0.683589 0 -0.729867
    outer loop
      vertex -3.95607 -53.65 15.489
      vertex -4.24264 -31.7322 15.7574
      vertex -3.95607 -31.524 15.489
    endloop
  endfacet
  facet normal -0.881933 0 -0.471375
    outer loop
      vertex -5.19615 -29.9529 17
      vertex -5.38124 -22.65 17.3463
      vertex -5.19615 -22.65 17
    endloop
  endfacet
  facet normal -0.881933 -0 -0.471375
    outer loop
      vertex -5.38124 -22.65 17.3463
      vertex -5.19615 -29.9529 17
      vertex -5.38124 -30.0873 17.3463
    endloop
  endfacet
  facet normal -0.881933 0 -0.471375
    outer loop
      vertex -5.19615 -53.65 17
      vertex -5.38124 -32.5594 17.3463
      vertex -5.19615 -32.4249 17
    endloop
  endfacet
  facet normal -0.881933 -0 -0.471375
    outer loop
      vertex -5.38124 -32.5594 17.3463
      vertex -5.19615 -53.65 17
      vertex -5.38124 -53.65 17.3463
    endloop
  endfacet
  facet normal -0.849192 0 -0.528084
    outer loop
      vertex -4.98882 -29.8022 16.6666
      vertex -5.19615 -22.65 17
      vertex -4.98882 -22.65 16.6666
    endloop
  endfacet
  facet normal -0.849192 -0 -0.528084
    outer loop
      vertex -5.19615 -22.65 17
      vertex -4.98882 -29.8022 16.6666
      vertex -5.19615 -29.9529 17
    endloop
  endfacet
  facet normal -0.849192 0 -0.528084
    outer loop
      vertex -4.98882 -53.65 16.6666
      vertex -5.19615 -32.4249 17
      vertex -4.98882 -32.2743 16.6666
    endloop
  endfacet
  facet normal -0.849192 -0 -0.528084
    outer loop
      vertex -5.19615 -32.4249 17
      vertex -4.98882 -53.65 16.6666
      vertex -5.19615 -53.65 17
    endloop
  endfacet
  facet normal -0.910851 0 -0.412736
    outer loop
      vertex -5.38124 -30.0873 17.3463
      vertex -5.54328 -22.65 17.7039
      vertex -5.38124 -22.65 17.3463
    endloop
  endfacet
  facet normal -0.910851 -0 -0.412736
    outer loop
      vertex -5.54328 -22.65 17.7039
      vertex -5.38124 -30.0873 17.3463
      vertex -5.54328 -30.205 17.7039
    endloop
  endfacet
  facet normal -0.910851 0 -0.412736
    outer loop
      vertex -5.38124 -53.65 17.3463
      vertex -5.54328 -32.6771 17.7039
      vertex -5.38124 -32.5594 17.3463
    endloop
  endfacet
  facet normal -0.910851 -0 -0.412736
    outer loop
      vertex -5.54328 -32.6771 17.7039
      vertex -5.38124 -53.65 17.3463
      vertex -5.54328 -53.65 17.7039
    endloop
  endfacet
  facet normal -0.973879 0 -0.227069
    outer loop
      vertex -5.79555 -30.3883 18.4471
      vertex -5.88471 -22.65 18.8295
      vertex -5.79555 -22.65 18.4471
    endloop
  endfacet
  facet normal -0.973879 -0 -0.227069
    outer loop
      vertex -5.88471 -22.65 18.8295
      vertex -5.79555 -30.3883 18.4471
      vertex -5.88471 -30.4531 18.8295
    endloop
  endfacet
  facet normal -0.973879 0 -0.227069
    outer loop
      vertex -5.79555 -53.65 18.4471
      vertex -5.88471 -32.9251 18.8295
      vertex -5.79555 -32.8604 18.4471
    endloop
  endfacet
  facet normal -0.973879 -0 -0.227069
    outer loop
      vertex -5.88471 -32.9251 18.8295
      vertex -5.79555 -53.65 18.4471
      vertex -5.88471 -53.65 18.8295
    endloop
  endfacet
  facet normal -0.995187 0 -0.0979908
    outer loop
      vertex -5.94867 -30.4995 19.2168
      vertex -5.98715 -22.65 19.6076
      vertex -5.94867 -22.65 19.2168
    endloop
  endfacet
  facet normal -0.995187 -0 -0.0979908
    outer loop
      vertex -5.98715 -22.65 19.6076
      vertex -5.94867 -30.4995 19.2168
      vertex -5.98715 -30.5275 19.6076
    endloop
  endfacet
  facet normal -0.995187 0 -0.0979908
    outer loop
      vertex -5.94867 -53.65 19.2168
      vertex -5.98715 -32.9996 19.6076
      vertex -5.94867 -32.9716 19.2168
    endloop
  endfacet
  facet normal -0.995187 -0 -0.0979908
    outer loop
      vertex -5.98715 -32.9996 19.6076
      vertex -5.94867 -53.65 19.2168
      vertex -5.98715 -53.65 19.6076
    endloop
  endfacet
  facet normal 0 -1 0
    outer loop
      vertex -5.98715 -53.65 19.6076
      vertex 6 -53.65 20
      vertex -6 -53.65 20
    endloop
  endfacet
  facet normal 0 -1 0
    outer loop
      vertex -5.98715 -53.65 19.6076
      vertex 5.98715 -53.65 19.6076
      vertex 6 -53.65 20
    endloop
  endfacet
  facet normal 0 -1 0
    outer loop
      vertex -5.94867 -53.65 19.2168
      vertex 5.98715 -53.65 19.6076
      vertex -5.98715 -53.65 19.6076
    endloop
  endfacet
  facet normal 0 -1 0
    outer loop
      vertex -5.94867 -53.65 19.2168
      vertex 5.94867 -53.65 19.2168
      vertex 5.98715 -53.65 19.6076
    endloop
  endfacet
  facet normal 0 -1 0
    outer loop
      vertex -5.88471 -53.65 18.8295
      vertex 5.94867 -53.65 19.2168
      vertex -5.94867 -53.65 19.2168
    endloop
  endfacet
  facet normal 0 -1 0
    outer loop
      vertex -5.88471 -53.65 18.8295
      vertex 5.88471 -53.65 18.8295
      vertex 5.94867 -53.65 19.2168
    endloop
  endfacet
  facet normal 0 -1 0
    outer loop
      vertex -5.79555 -53.65 18.4471
      vertex 5.88471 -53.65 18.8295
      vertex -5.88471 -53.65 18.8295
    endloop
  endfacet
  facet normal 0 -1 0
    outer loop
      vertex -5.79555 -53.65 18.4471
      vertex 5.79555 -53.65 18.4471
      vertex 5.88471 -53.65 18.8295
    endloop
  endfacet
  facet normal 0 -1 0
    outer loop
      vertex -5.68158 -53.65 18.0714
      vertex 5.79555 -53.65 18.4471
      vertex -5.79555 -53.65 18.4471
    endloop
  endfacet
  facet normal 0 -1 0
    outer loop
      vertex -5.68158 -53.65 18.0714
      vertex 5.68158 -53.65 18.0714
      vertex 5.79555 -53.65 18.4471
    endloop
  endfacet
  facet normal 0 -1 0
    outer loop
      vertex -5.54328 -53.65 17.7039
      vertex 5.68158 -53.65 18.0714
      vertex -5.68158 -53.65 18.0714
    endloop
  endfacet
  facet normal 0 -1 0
    outer loop
      vertex -5.54328 -53.65 17.7039
      vertex 5.54328 -53.65 17.7039
      vertex 5.68158 -53.65 18.0714
    endloop
  endfacet
  facet normal 0 -1 0
    outer loop
      vertex -5.38124 -53.65 17.3463
      vertex 5.54328 -53.65 17.7039
      vertex -5.54328 -53.65 17.7039
    endloop
  endfacet
  facet normal 0 -1 0
    outer loop
      vertex -5.38124 -53.65 17.3463
      vertex 5.38124 -53.65 17.3463
      vertex 5.54328 -53.65 17.7039
    endloop
  endfacet
  facet normal 0 -1 0
    outer loop
      vertex -5.19615 -53.65 17
      vertex 5.38124 -53.65 17.3463
      vertex -5.38124 -53.65 17.3463
    endloop
  endfacet
  facet normal 0 -1 0
    outer loop
      vertex -5.19615 -53.65 17
      vertex 5.19615 -53.65 17
      vertex 5.38124 -53.65 17.3463
    endloop
  endfacet
  facet normal 0 -1 0
    outer loop
      vertex -4.98882 -53.65 16.6666
      vertex 5.19615 -53.65 17
      vertex -5.19615 -53.65 17
    endloop
  endfacet
  facet normal 0 -1 0
    outer loop
      vertex -4.98882 -53.65 16.6666
      vertex 4.98882 -53.65 16.6666
      vertex 5.19615 -53.65 17
    endloop
  endfacet
  facet normal 0 -1 0
    outer loop
      vertex -4.76012 -53.65 16.3474
      vertex 4.98882 -53.65 16.6666
      vertex -4.98882 -53.65 16.6666
    endloop
  endfacet
  facet normal 0 -1 0
    outer loop
      vertex -4.76012 -53.65 16.3474
      vertex 4.76012 -53.65 16.3474
      vertex 4.98882 -53.65 16.6666
    endloop
  endfacet
  facet normal 0 -1 0
    outer loop
      vertex -4.51104 -53.65 16.0439
      vertex 4.76012 -53.65 16.3474
      vertex -4.76012 -53.65 16.3474
    endloop
  endfacet
  facet normal 0 -1 0
    outer loop
      vertex -4.51104 -53.65 16.0439
      vertex 4.51104 -53.65 16.0439
      vertex 4.76012 -53.65 16.3474
    endloop
  endfacet
  facet normal 0 -1 0
    outer loop
      vertex -4.24264 -53.65 15.7574
      vertex 4.51104 -53.65 16.0439
      vertex -4.51104 -53.65 16.0439
    endloop
  endfacet
  facet normal 0 -1 0
    outer loop
      vertex -4.24264 -53.65 15.7574
      vertex 4.24264 -53.65 15.7574
      vertex 4.51104 -53.65 16.0439
    endloop
  endfacet
  facet normal 0 -1 0
    outer loop
      vertex -3.95607 -53.65 15.489
      vertex 4.24264 -53.65 15.7574
      vertex -4.24264 -53.65 15.7574
    endloop
  endfacet
  facet normal 0 -1 0
    outer loop
      vertex -3.95607 -53.65 15.489
      vertex 3.95607 -53.65 15.489
      vertex 4.24264 -53.65 15.7574
    endloop
  endfacet
  facet normal 0 -1 0
    outer loop
      vertex -3.65257 -53.65 15.2399
      vertex 3.95607 -53.65 15.489
      vertex -3.95607 -53.65 15.489
    endloop
  endfacet
  facet normal 0 -1 0
    outer loop
      vertex -3.65257 -53.65 15.2399
      vertex 3.65257 -53.65 15.2399
      vertex 3.95607 -53.65 15.489
    endloop
  endfacet
  facet normal 0 -1 0
    outer loop
      vertex -3.33342 -53.65 15.0112
      vertex 3.65257 -53.65 15.2399
      vertex -3.65257 -53.65 15.2399
    endloop
  endfacet
  facet normal 0 -1 0
    outer loop
      vertex -3.33342 -53.65 15.0112
      vertex 3.33342 -53.65 15.0112
      vertex 3.65257 -53.65 15.2399
    endloop
  endfacet
  facet normal 0 -1 0
    outer loop
      vertex -3 -53.65 14.8038
      vertex 3.33342 -53.65 15.0112
      vertex -3.33342 -53.65 15.0112
    endloop
  endfacet
  facet normal 0 -1 0
    outer loop
      vertex -3 -53.65 14.8038
      vertex 3 -53.65 14.8038
      vertex 3.33342 -53.65 15.0112
    endloop
  endfacet
  facet normal 0 -1 0
    outer loop
      vertex -2.65373 -53.65 14.6188
      vertex 3 -53.65 14.8038
      vertex -3 -53.65 14.8038
    endloop
  endfacet
  facet normal 0 -1 0
    outer loop
      vertex -2.65373 -53.65 14.6188
      vertex 2.65373 -53.65 14.6188
      vertex 3 -53.65 14.8038
    endloop
  endfacet
  facet normal 0 -1 0
    outer loop
      vertex -2.2961 -53.65 14.4567
      vertex 2.65373 -53.65 14.6188
      vertex -2.65373 -53.65 14.6188
    endloop
  endfacet
  facet normal 0 -1 0
    outer loop
      vertex -2.2961 -53.65 14.4567
      vertex 2.2961 -53.65 14.4567
      vertex 2.65373 -53.65 14.6188
    endloop
  endfacet
  facet normal 0 -1 0
    outer loop
      vertex -1.92864 -53.65 14.3184
      vertex 2.2961 -53.65 14.4567
      vertex -2.2961 -53.65 14.4567
    endloop
  endfacet
  facet normal 0 -1 0
    outer loop
      vertex -1.92864 -53.65 14.3184
      vertex 1.92864 -53.65 14.3184
      vertex 2.2961 -53.65 14.4567
    endloop
  endfacet
  facet normal 0 -1 0
    outer loop
      vertex -1.55291 -53.65 14.2044
      vertex 1.92864 -53.65 14.3184
      vertex -1.92864 -53.65 14.3184
    endloop
  endfacet
  facet normal 0 -1 0
    outer loop
      vertex -1.55291 -53.65 14.2044
      vertex 1.55291 -53.65 14.2044
      vertex 1.92864 -53.65 14.3184
    endloop
  endfacet
  facet normal 0 -1 0
    outer loop
      vertex -1.17054 -53.65 14.1153
      vertex 1.55291 -53.65 14.2044
      vertex -1.55291 -53.65 14.2044
    endloop
  endfacet
  facet normal 0 -1 0
    outer loop
      vertex -1.17054 -53.65 14.1153
      vertex 1.17054 -53.65 14.1153
      vertex 1.55291 -53.65 14.2044
    endloop
  endfacet
  facet normal 0 -1 0
    outer loop
      vertex -0.783156 -53.65 14.0513
      vertex 1.17054 -53.65 14.1153
      vertex -1.17054 -53.65 14.1153
    endloop
  endfacet
  facet normal 0 -1 0
    outer loop
      vertex -0.783156 -53.65 14.0513
      vertex 0.783156 -53.65 14.0513
      vertex 1.17054 -53.65 14.1153
    endloop
  endfacet
  facet normal 0 -1 0
    outer loop
      vertex -0.392418 -53.65 14.0128
      vertex 0.783156 -53.65 14.0513
      vertex -0.783156 -53.65 14.0513
    endloop
  endfacet
  facet normal 0 -1 0
    outer loop
      vertex -0.392418 -53.65 14.0128
      vertex 0.392418 -53.65 14.0128
      vertex 0.783156 -53.65 14.0513
    endloop
  endfacet
  facet normal -0 -1 0
    outer loop
      vertex 0.392418 -53.65 14.0128
      vertex -0.392418 -53.65 14.0128
      vertex 0 -53.65 14
    endloop
  endfacet
  facet normal 0.163001 0 -0.986626
    outer loop
      vertex 0.783156 -27.2413 14.0513
      vertex 1.17054 -22.65 14.1153
      vertex 1.17054 -27.5227 14.1153
    endloop
  endfacet
  facet normal 0.163001 0 -0.986626
    outer loop
      vertex 1.17054 -22.65 14.1153
      vertex 0.783156 -27.2413 14.0513
      vertex 0.783156 -22.65 14.0513
    endloop
  endfacet
  facet normal 0.163001 0 -0.986626
    outer loop
      vertex 0.783156 -53.65 14.0513
      vertex 1.17054 -29.5004 14.1153
      vertex 1.17054 -53.65 14.1153
    endloop
  endfacet
  facet normal 0.163001 0 -0.986626
    outer loop
      vertex 1.17054 -29.5004 14.1153
      vertex 0.783156 -53.65 14.0513
      vertex 0.783156 -29.2189 14.0513
    endloop
  endfacet
  facet normal 0.956938 0 -0.290291
    outer loop
      vertex 5.79555 -22.65 18.4471
      vertex 5.68158 -30.3055 18.0714
      vertex 5.68158 -22.65 18.0714
    endloop
  endfacet
  facet normal 0.956938 0 -0.290291
    outer loop
      vertex 5.68158 -30.3055 18.0714
      vertex 5.79555 -22.65 18.4471
      vertex 5.79555 -30.3883 18.4471
    endloop
  endfacet
  facet normal 0.956938 0 -0.290291
    outer loop
      vertex 5.68158 -53.65 18.0714
      vertex 5.79555 -32.8604 18.4471
      vertex 5.79555 -53.65 18.4471
    endloop
  endfacet
  facet normal 0.956938 0 -0.290291
    outer loop
      vertex 5.79555 -32.8604 18.4471
      vertex 5.68158 -53.65 18.0714
      vertex 5.68158 -32.7776 18.0714
    endloop
  endfacet
  facet normal 0.973879 0 -0.227069
    outer loop
      vertex 5.79555 -53.65 18.4471
      vertex 5.88471 -32.9251 18.8295
      vertex 5.88471 -53.65 18.8295
    endloop
  endfacet
  facet normal 0.973879 0 -0.227069
    outer loop
      vertex 5.88471 -32.9251 18.8295
      vertex 5.79555 -53.65 18.4471
      vertex 5.79555 -32.8604 18.4471
    endloop
  endfacet
  facet normal 0.973879 0 -0.227069
    outer loop
      vertex 5.88471 -22.65 18.8295
      vertex 5.79555 -30.3883 18.4471
      vertex 5.79555 -22.65 18.4471
    endloop
  endfacet
  facet normal 0.973879 0 -0.227069
    outer loop
      vertex 5.79555 -30.3883 18.4471
      vertex 5.88471 -22.65 18.8295
      vertex 5.88471 -30.4531 18.8295
    endloop
  endfacet
  facet normal -0.412834 -0 -0.910806
    outer loop
      vertex -2.65373 -30.5779 14.6188
      vertex -2.2961 -53.65 14.4567
      vertex -2.65373 -53.65 14.6188
    endloop
  endfacet
  facet normal -0.412834 0 -0.910806
    outer loop
      vertex -2.2961 -53.65 14.4567
      vertex -2.65373 -30.5779 14.6188
      vertex -2.2961 -30.3181 14.4567
    endloop
  endfacet
  facet normal -0.412834 -0 -0.910806
    outer loop
      vertex -2.65373 -22.65 14.6188
      vertex -2.2961 -27.846 14.4567
      vertex -2.65373 -28.1058 14.6188
    endloop
  endfacet
  facet normal -0.412834 0 -0.910806
    outer loop
      vertex -2.2961 -27.846 14.4567
      vertex -2.65373 -22.65 14.6188
      vertex -2.2961 -22.65 14.4567
    endloop
  endfacet
  facet normal -0.29034 -0 -0.956924
    outer loop
      vertex -1.92864 -22.65 14.3184
      vertex -1.55291 -27.8005 14.2044
      vertex -1.92864 -28.0735 14.3184
    endloop
  endfacet
  facet normal -0.29034 0 -0.956924
    outer loop
      vertex -1.55291 -27.8005 14.2044
      vertex -1.92864 -22.65 14.3184
      vertex -1.55291 -22.65 14.2044
    endloop
  endfacet
  facet normal -0.29034 -0 -0.956924
    outer loop
      vertex -1.92864 -30.0511 14.3184
      vertex -1.55291 -53.65 14.2044
      vertex -1.92864 -53.65 14.3184
    endloop
  endfacet
  facet normal -0.29034 0 -0.956924
    outer loop
      vertex -1.55291 -53.65 14.2044
      vertex -1.92864 -30.0511 14.3184
      vertex -1.55291 -29.7782 14.2044
    endloop
  endfacet
  facet normal -0.0326009 -0 -0.999468
    outer loop
      vertex -0.392418 -22.65 14.0128
      vertex 0 -26.6723 14
      vertex -0.392418 -26.9574 14.0128
    endloop
  endfacet
  facet normal -0.0326009 0 -0.999468
    outer loop
      vertex 0 -26.6723 14
      vertex -0.392418 -22.65 14.0128
      vertex 0 -22.65 14
    endloop
  endfacet
  facet normal -0.0326009 -0 -0.999468
    outer loop
      vertex -0.392418 -28.9351 14.0128
      vertex 0 -53.65 14
      vertex -0.392418 -53.65 14.0128
    endloop
  endfacet
  facet normal -0.0326009 0 -0.999468
    outer loop
      vertex 0 -53.65 14
      vertex -0.392418 -28.9351 14.0128
      vertex 0 -28.65 14
    endloop
  endfacet
  facet normal 0.0326009 0 -0.999468
    outer loop
      vertex 0 -53.65 14
      vertex 0.392418 -28.9351 14.0128
      vertex 0.392418 -53.65 14.0128
    endloop
  endfacet
  facet normal 0.0326009 0 -0.999468
    outer loop
      vertex 0.392418 -28.9351 14.0128
      vertex 0 -53.65 14
      vertex 0 -28.65 14
    endloop
  endfacet
  facet normal 0.0326009 0 -0.999468
    outer loop
      vertex 0 -26.6723 14
      vertex 0.392418 -22.65 14.0128
      vertex 0.392418 -26.9574 14.0128
    endloop
  endfacet
  facet normal 0.0326009 0 -0.999468
    outer loop
      vertex 0.392418 -22.65 14.0128
      vertex 0 -26.6723 14
      vertex 0 -22.65 14
    endloop
  endfacet
  facet normal -0.986637 0 -0.162936
    outer loop
      vertex -5.88471 -30.4531 18.8295
      vertex -5.94867 -22.65 19.2168
      vertex -5.88471 -22.65 18.8295
    endloop
  endfacet
  facet normal -0.986637 -0 -0.162936
    outer loop
      vertex -5.94867 -22.65 19.2168
      vertex -5.88471 -30.4531 18.8295
      vertex -5.94867 -30.4995 19.2168
    endloop
  endfacet
  facet normal -0.986637 0 -0.162936
    outer loop
      vertex -5.88471 -53.65 18.8295
      vertex -5.94867 -32.9716 19.2168
      vertex -5.88471 -32.9251 18.8295
    endloop
  endfacet
  facet normal -0.986637 -0 -0.162936
    outer loop
      vertex -5.94867 -32.9716 19.2168
      vertex -5.88471 -53.65 18.8295
      vertex -5.94867 -53.65 19.2168
    endloop
  endfacet
  facet normal 0.995187 0 -0.0979908
    outer loop
      vertex 5.98715 -22.65 19.6076
      vertex 5.94867 -30.4995 19.2168
      vertex 5.94867 -22.65 19.2168
    endloop
  endfacet
  facet normal 0.995187 0 -0.0979908
    outer loop
      vertex 5.94867 -30.4995 19.2168
      vertex 5.98715 -22.65 19.6076
      vertex 5.98715 -30.5275 19.6076
    endloop
  endfacet
  facet normal 0.995187 0 -0.0979908
    outer loop
      vertex 5.94867 -53.65 19.2168
      vertex 5.98715 -32.9996 19.6076
      vertex 5.98715 -53.65 19.6076
    endloop
  endfacet
  facet normal 0.995187 0 -0.0979908
    outer loop
      vertex 5.98715 -32.9996 19.6076
      vertex 5.94867 -53.65 19.2168
      vertex 5.94867 -32.9716 19.2168
    endloop
  endfacet
  facet normal 0.999464 0 -0.0327297
    outer loop
      vertex 6 -22.65 20
      vertex 5.98715 -30.5275 19.6076
      vertex 5.98715 -22.65 19.6076
    endloop
  endfacet
  facet normal 0.999464 0 -0.0327297
    outer loop
      vertex 5.98715 -30.5275 19.6076
      vertex 6 -22.65 20
      vertex 6 -30.5368 20
    endloop
  endfacet
  facet normal 0.999464 0 -0.0327297
    outer loop
      vertex 5.98715 -53.65 19.6076
      vertex 6 -33.0089 20
      vertex 6 -53.65 20
    endloop
  endfacet
  facet normal 0.999464 0 -0.0327297
    outer loop
      vertex 6 -33.0089 20
      vertex 5.98715 -53.65 19.6076
      vertex 5.98715 -32.9996 19.6076
    endloop
  endfacet
  facet normal 0 0 1
    outer loop
      vertex 16.84 23.1783 20
      vertex 65.1746 21.1765 20
      vertex 71.3292 23.1763 20
    endloop
  endfacet
  facet normal 0 0 1
    outer loop
      vertex 16.84 23.1783 20
      vertex 15.387 21.1784 20
      vertex 65.1746 21.1765 20
    endloop
  endfacet
  facet normal -0 0 1
    outer loop
      vertex 0 68.5286 20
      vertex 16.84 23.1783 20
      vertex 0 75 20
    endloop
  endfacet
  facet normal 0 0 1
    outer loop
      vertex 16.84 23.1783 20
      vertex 0 68.5286 20
      vertex 15.387 21.1784 20
    endloop
  endfacet
  facet normal 0 0 1
    outer loop
      vertex -16.84 23.1783 20
      vertex 0 68.5286 20
      vertex 0 75 20
    endloop
  endfacet
  facet normal 0 0 1
    outer loop
      vertex 0 68.5286 20
      vertex -16.84 23.1783 20
      vertex -15.387 21.1784 20
    endloop
  endfacet
  facet normal 0 0 1
    outer loop
      vertex -16.84 23.1783 20
      vertex -65.1746 21.1765 20
      vertex -15.387 21.1784 20
    endloop
  endfacet
  facet normal 0 -0 1
    outer loop
      vertex -65.1746 21.1765 20
      vertex -16.84 23.1783 20
      vertex -71.3292 23.1763 20
    endloop
  endfacet
  facet normal -0 0 1
    outer loop
      vertex 65.1746 21.1765 20
      vertex 27.2478 -8.85333 20
      vertex 71.3292 23.1763 20
    endloop
  endfacet
  facet normal 0 -0 1
    outer loop
      vertex 27.2478 -8.85333 20
      vertex 65.1746 21.1765 20
      vertex 24.8967 -8.08942 20
    endloop
  endfacet
  facet normal 0 0 1
    outer loop
      vertex 27.2478 -8.85333 20
      vertex 40.2801 -55.4408 20
      vertex 44.0839 -60.6763 20
    endloop
  endfacet
  facet normal 0 0 1
    outer loop
      vertex 40.2801 -55.4408 20
      vertex 27.2478 -8.85333 20
      vertex 24.8967 -8.08942 20
    endloop
  endfacet
  facet normal -0 0 1
    outer loop
      vertex 6 -33.0089 20
      vertex 40.2801 -55.4408 20
      vertex 6 -30.5368 20
    endloop
  endfacet
  facet normal 0 0 1
    outer loop
      vertex 40.2801 -55.4408 20
      vertex 6 -33.0089 20
      vertex 44.0839 -60.6763 20
    endloop
  endfacet
  facet normal 0 0 1
    outer loop
      vertex -65.1746 21.1765 20
      vertex -27.2478 -8.85333 20
      vertex -24.8967 -8.08942 20
    endloop
  endfacet
  facet normal 0 0 1
    outer loop
      vertex -27.2478 -8.85333 20
      vertex -65.1746 21.1765 20
      vertex -71.3292 23.1763 20
    endloop
  endfacet
  facet normal -0 0 1
    outer loop
      vertex -27.2478 -8.85333 20
      vertex -40.2801 -55.4408 20
      vertex -24.8967 -8.08942 20
    endloop
  endfacet
  facet normal 0 -0 1
    outer loop
      vertex -40.2801 -55.4408 20
      vertex -27.2478 -8.85333 20
      vertex -44.0839 -60.6763 20
    endloop
  endfacet
  facet normal 0 0 1
    outer loop
      vertex -40.2801 -55.4408 20
      vertex -6 -33.0089 20
      vertex -6 -30.5368 20
    endloop
  endfacet
  facet normal 0 0 1
    outer loop
      vertex -6 -33.0089 20
      vertex -40.2801 -55.4408 20
      vertex -44.0839 -60.6763 20
    endloop
  endfacet
  facet normal 0 0 1
    outer loop
      vertex -6 -30.5368 20
      vertex 6 -30.5368 20
      vertex 6 -22.65 20
    endloop
  endfacet
  facet normal 0 0 1
    outer loop
      vertex 6 -30.5368 20
      vertex -6 -30.5368 20
      vertex 6 -33.0089 20
    endloop
  endfacet
  facet normal 0 0 1
    outer loop
      vertex -6 -30.5368 20
      vertex 6 -22.65 20
      vertex -6 -22.65 20
    endloop
  endfacet
  facet normal 0 0 1
    outer loop
      vertex 6 -33.0089 20
      vertex -6 -30.5368 20
      vertex -6 -33.0089 20
    endloop
  endfacet
  facet normal 0 0 1
    outer loop
      vertex 6 -33.0089 20
      vertex -6 -33.0089 20
      vertex 6 -53.65 20
    endloop
  endfacet
  facet normal 0 0 1
    outer loop
      vertex 6 -53.65 20
      vertex -6 -33.0089 20
      vertex -6 -53.65 20
    endloop
  endfacet
  facet normal 0 0 -1
    outer loop
      vertex 0 -28.65 0
      vertex 27.2478 -8.85333 0
      vertex 44.0839 -60.6763 0
    endloop
  endfacet
  facet normal -0 0 -1
    outer loop
      vertex 27.2478 -8.85333 0
      vertex 0 -28.65 0
      vertex 16.84 23.1783 0
    endloop
  endfacet
  facet normal 0 0 -1
    outer loop
      vertex -16.84 23.1783 0
      vertex 16.84 23.1783 0
      vertex 0 -28.65 0
    endloop
  endfacet
  facet normal 0 0 -1
    outer loop
      vertex 16.84 23.1783 0
      vertex -16.84 23.1783 0
      vertex 0 75 0
    endloop
  endfacet
  facet normal 0 0 -1
    outer loop
      vertex 0 -28.65 0
      vertex -27.2478 -8.85333 0
      vertex -16.84 23.1783 0
    endloop
  endfacet
  facet normal 0 -0 -1
    outer loop
      vertex -27.2478 -8.85333 0
      vertex 0 -28.65 0
      vertex -44.0839 -60.6763 0
    endloop
  endfacet
  facet normal -0 0 -1
    outer loop
      vertex 71.3292 23.1763 0
      vertex 27.2478 -8.85333 0
      vertex 16.84 23.1783 0
    endloop
  endfacet
  facet normal 0 0 -1
    outer loop
      vertex -16.84 23.1783 0
      vertex -27.2478 -8.85333 0
      vertex -71.3292 23.1763 0
    endloop
  endfacet
  facet normal 0.587817 -0.808994 0
    outer loop
      vertex 27.2478 -8.85333 0
      vertex 71.3292 23.1763 20
      vertex 27.2478 -8.85333 20
    endloop
  endfacet
  facet normal 0.587817 -0.808994 0
    outer loop
      vertex 71.3292 23.1763 20
      vertex 27.2478 -8.85333 0
      vertex 71.3292 23.1763 0
    endloop
  endfacet
  facet normal 3.67045e-05 1 -0
    outer loop
      vertex 71.3292 23.1763 0
      vertex 16.84 23.1783 20
      vertex 71.3292 23.1763 20
    endloop
  endfacet
  facet normal 3.67045e-05 1 0
    outer loop
      vertex 16.84 23.1783 20
      vertex 71.3292 23.1763 0
      vertex 16.84 23.1783 0
    endloop
  endfacet
  facet normal 0.951045 0.309052 0
    outer loop
      vertex 16.84 23.1783 20
      vertex 0 75 0
      vertex 0 75 20
    endloop
  endfacet
  facet normal 0.951045 0.309052 0
    outer loop
      vertex 0 75 0
      vertex 16.84 23.1783 20
      vertex 16.84 23.1783 0
    endloop
  endfacet
  facet normal -0.951045 0.309052 0
    outer loop
      vertex -16.84 23.1783 0
      vertex 0 75 20
      vertex 0 75 0
    endloop
  endfacet
  facet normal -0.951045 0.309052 0
    outer loop
      vertex 0 75 20
      vertex -16.84 23.1783 0
      vertex -16.84 23.1783 20
    endloop
  endfacet
  facet normal -3.67045e-05 1 0
    outer loop
      vertex -16.84 23.1783 0
      vertex -71.3292 23.1763 20
      vertex -16.84 23.1783 20
    endloop
  endfacet
  facet normal -3.67045e-05 1 0
    outer loop
      vertex -71.3292 23.1763 20
      vertex -16.84 23.1783 0
      vertex -71.3292 23.1763 0
    endloop
  endfacet
  facet normal -0.587817 -0.808994 0
    outer loop
      vertex -71.3292 23.1763 0
      vertex -27.2478 -8.85333 20
      vertex -71.3292 23.1763 20
    endloop
  endfacet
  facet normal -0.587817 -0.808994 -0
    outer loop
      vertex -27.2478 -8.85333 20
      vertex -71.3292 23.1763 0
      vertex -27.2478 -8.85333 0
    endloop
  endfacet
  facet normal -0.951068 0.30898 0
    outer loop
      vertex -44.0839 -60.6763 0
      vertex -27.2478 -8.85333 20
      vertex -27.2478 -8.85333 0
    endloop
  endfacet
  facet normal -0.951068 0.30898 0
    outer loop
      vertex -27.2478 -8.85333 20
      vertex -44.0839 -60.6763 0
      vertex -44.0839 -60.6763 20
    endloop
  endfacet
  facet normal 0.587755 -0.809039 7.28595e-05
    outer loop
      vertex -44.0839 -60.6763 20
      vertex -5.98715 -32.9996 19.6076
      vertex -6 -33.0089 20
    endloop
  endfacet
  facet normal 0.587754 -0.80904 -9.29948e-05
    outer loop
      vertex -44.0839 -60.6763 20
      vertex -5.94867 -32.9716 19.2168
      vertex -5.98715 -32.9996 19.6076
    endloop
  endfacet
  facet normal 0.587754 -0.80904 -7.12093e-05
    outer loop
      vertex -44.0839 -60.6763 20
      vertex -5.88471 -32.9251 18.8295
      vertex -5.94867 -32.9716 19.2168
    endloop
  endfacet
  facet normal 0.587759 -0.809036 0.00015672
    outer loop
      vertex -44.0839 -60.6763 20
      vertex -5.79555 -32.8604 18.4471
      vertex -5.88471 -32.9251 18.8295
    endloop
  endfacet
  facet normal 0.587754 -0.809039 -5.53808e-06
    outer loop
      vertex -44.0839 -60.6763 20
      vertex -5.68158 -32.7776 18.0714
      vertex -5.79555 -32.8604 18.4471
    endloop
  endfacet
  facet normal 0.587753 -0.809041 -6.09404e-05
    outer loop
      vertex -44.0839 -60.6763 20
      vertex -5.54328 -32.6771 17.7039
      vertex -5.68158 -32.7776 18.0714
    endloop
  endfacet
  facet normal 0.587755 -0.809039 0
    outer loop
      vertex -44.0839 -60.6763 0
      vertex -5.54328 -32.6771 17.7039
      vertex -44.0839 -60.6763 20
    endloop
  endfacet
  facet normal 0.587744 -0.809047 3.68981e-05
    outer loop
      vertex -5.54328 -32.6771 17.7039
      vertex -44.0839 -60.6763 0
      vertex -5.38124 -32.5594 17.3463
    endloop
  endfacet
  facet normal 0.587774 -0.809025 -6.57778e-05
    outer loop
      vertex -5.38124 -32.5594 17.3463
      vertex -44.0839 -60.6763 0
      vertex -5.19615 -32.4249 17
    endloop
  endfacet
  facet normal 0.587743 -0.809048 4.25681e-05
    outer loop
      vertex -5.19615 -32.4249 17
      vertex -44.0839 -60.6763 0
      vertex -4.98882 -32.2743 16.6666
    endloop
  endfacet
  facet normal 0.587784 -0.809018 -0.000102545
    outer loop
      vertex -4.98882 -32.2743 16.6666
      vertex -44.0839 -60.6763 0
      vertex -4.76012 -32.1081 16.3474
    endloop
  endfacet
  facet normal 0.587755 -0.809039 2.80275e-06
    outer loop
      vertex 0 -28.65 0
      vertex -4.76012 -32.1081 16.3474
      vertex -44.0839 -60.6763 0
    endloop
  endfacet
  facet normal 0.587584 -0.809163 -7.32558e-05
    outer loop
      vertex -4.76012 -32.1081 16.3474
      vertex 0 -28.65 0
      vertex -4.51104 -31.9272 16.0439
    endloop
  endfacet
  facet normal 0.587787 -0.809016 1.40448e-05
    outer loop
      vertex -4.51104 -31.9272 16.0439
      vertex 0 -28.65 0
      vertex -4.24264 -31.7322 15.7574
    endloop
  endfacet
  facet normal 0.587783 -0.809019 1.23607e-05
    outer loop
      vertex -4.24264 -31.7322 15.7574
      vertex 0 -28.65 0
      vertex -3.95607 -31.524 15.489
    endloop
  endfacet
  facet normal 0.587782 -0.80902 1.18529e-05
    outer loop
      vertex -3.95607 -31.524 15.489
      vertex 0 -28.65 0
      vertex -3.65257 -31.3035 15.2399
    endloop
  endfacet
  facet normal 0.58764 -0.809122 -3.9929e-05
    outer loop
      vertex -3.65257 -31.3035 15.2399
      vertex 0 -28.65 0
      vertex -3.33342 -31.0717 15.0112
    endloop
  endfacet
  facet normal 0.587893 -0.808939 4.58417e-05
    outer loop
      vertex -3.33342 -31.0717 15.0112
      vertex 0 -28.65 0
      vertex -3 -30.8294 14.8038
    endloop
  endfacet
  facet normal 0.587653 -0.809113 -2.84692e-05
    outer loop
      vertex -3 -30.8294 14.8038
      vertex 0 -28.65 0
      vertex -2.65373 -30.5779 14.6188
    endloop
  endfacet
  facet normal 0.587734 -0.809054 -6.04065e-06
    outer loop
      vertex -2.65373 -30.5779 14.6188
      vertex 0 -28.65 0
      vertex -2.2961 -30.3181 14.4567
    endloop
  endfacet
  facet normal 0.587825 -0.808988 1.59821e-05
    outer loop
      vertex -2.2961 -30.3181 14.4567
      vertex 0 -28.65 0
      vertex -1.92864 -30.0511 14.3184
    endloop
  endfacet
  facet normal 0.587664 -0.809105 -1.71617e-05
    outer loop
      vertex -1.92864 -30.0511 14.3184
      vertex 0 -28.65 0
      vertex -1.55291 -29.7782 14.2044
    endloop
  endfacet
  facet normal 0.587774 -0.809025 1.309e-06
    outer loop
      vertex -1.55291 -29.7782 14.2044
      vertex 0 -28.65 0
      vertex -1.17054 -29.5004 14.1153
    endloop
  endfacet
  facet normal 0.587854 -0.808967 1.13484e-05
    outer loop
      vertex -1.17054 -29.5004 14.1153
      vertex 0 -28.65 0
      vertex -0.783156 -29.2189 14.0513
    endloop
  endfacet
  facet normal 0.587666 -0.809104 -4.61961e-06
    outer loop
      vertex -0.783156 -29.2189 14.0513
      vertex 0 -28.65 0
      vertex -0.392418 -28.9351 14.0128
    endloop
  endfacet
  facet normal 0.587774 -0.809025 0
    outer loop
      vertex -0.392418 -28.9351 14.0128
      vertex 0 -28.65 0
      vertex 0 -28.65 14
    endloop
  endfacet
  facet normal -0.587755 -0.809039 7.28595e-05
    outer loop
      vertex 5.98715 -32.9996 19.6076
      vertex 44.0839 -60.6763 20
      vertex 6 -33.0089 20
    endloop
  endfacet
  facet normal -0.587754 -0.80904 -9.29948e-05
    outer loop
      vertex 5.94867 -32.9716 19.2168
      vertex 44.0839 -60.6763 20
      vertex 5.98715 -32.9996 19.6076
    endloop
  endfacet
  facet normal -0.587754 -0.80904 -7.12093e-05
    outer loop
      vertex 5.88471 -32.9251 18.8295
      vertex 44.0839 -60.6763 20
      vertex 5.94867 -32.9716 19.2168
    endloop
  endfacet
  facet normal -0.587759 -0.809036 0.00015672
    outer loop
      vertex 5.79555 -32.8604 18.4471
      vertex 44.0839 -60.6763 20
      vertex 5.88471 -32.9251 18.8295
    endloop
  endfacet
  facet normal -0.587754 -0.809039 -5.53808e-06
    outer loop
      vertex 5.68158 -32.7776 18.0714
      vertex 44.0839 -60.6763 20
      vertex 5.79555 -32.8604 18.4471
    endloop
  endfacet
  facet normal -0.587753 -0.809041 -6.09404e-05
    outer loop
      vertex 5.54328 -32.6771 17.7039
      vertex 44.0839 -60.6763 20
      vertex 5.68158 -32.7776 18.0714
    endloop
  endfacet
  facet normal -0.587744 -0.809047 3.68981e-05
    outer loop
      vertex 44.0839 -60.6763 0
      vertex 5.54328 -32.6771 17.7039
      vertex 5.38124 -32.5594 17.3463
    endloop
  endfacet
  facet normal -0.587774 -0.809025 -6.57778e-05
    outer loop
      vertex 44.0839 -60.6763 0
      vertex 5.38124 -32.5594 17.3463
      vertex 5.19615 -32.4249 17
    endloop
  endfacet
  facet normal -0.587743 -0.809048 4.25681e-05
    outer loop
      vertex 44.0839 -60.6763 0
      vertex 5.19615 -32.4249 17
      vertex 4.98882 -32.2743 16.6666
    endloop
  endfacet
  facet normal -0.587784 -0.809018 -0.000102545
    outer loop
      vertex 44.0839 -60.6763 0
      vertex 4.98882 -32.2743 16.6666
      vertex 4.76012 -32.1081 16.3474
    endloop
  endfacet
  facet normal -0.587584 -0.809163 -7.32558e-05
    outer loop
      vertex 0 -28.65 0
      vertex 4.76012 -32.1081 16.3474
      vertex 4.51104 -31.9272 16.0439
    endloop
  endfacet
  facet normal -0.587787 -0.809016 1.40448e-05
    outer loop
      vertex 0 -28.65 0
      vertex 4.51104 -31.9272 16.0439
      vertex 4.24264 -31.7322 15.7574
    endloop
  endfacet
  facet normal -0.587783 -0.809019 1.23607e-05
    outer loop
      vertex 0 -28.65 0
      vertex 4.24264 -31.7322 15.7574
      vertex 3.95607 -31.524 15.489
    endloop
  endfacet
  facet normal -0.587782 -0.80902 1.18529e-05
    outer loop
      vertex 0 -28.65 0
      vertex 3.95607 -31.524 15.489
      vertex 3.65257 -31.3035 15.2399
    endloop
  endfacet
  facet normal -0.58764 -0.809122 -3.9929e-05
    outer loop
      vertex 0 -28.65 0
      vertex 3.65257 -31.3035 15.2399
      vertex 3.33342 -31.0717 15.0112
    endloop
  endfacet
  facet normal -0.587893 -0.808939 4.58417e-05
    outer loop
      vertex 0 -28.65 0
      vertex 3.33342 -31.0717 15.0112
      vertex 3 -30.8294 14.8038
    endloop
  endfacet
  facet normal -0.587653 -0.809113 -2.84692e-05
    outer loop
      vertex 0 -28.65 0
      vertex 3 -30.8294 14.8038
      vertex 2.65373 -30.5779 14.6188
    endloop
  endfacet
  facet normal -0.587734 -0.809054 -6.04065e-06
    outer loop
      vertex 0 -28.65 0
      vertex 2.65373 -30.5779 14.6188
      vertex 2.2961 -30.3181 14.4567
    endloop
  endfacet
  facet normal -0.587825 -0.808988 1.59821e-05
    outer loop
      vertex 0 -28.65 0
      vertex 2.2961 -30.3181 14.4567
      vertex 1.92864 -30.0511 14.3184
    endloop
  endfacet
  facet normal -0.587664 -0.809105 -1.71617e-05
    outer loop
      vertex 0 -28.65 0
      vertex 1.92864 -30.0511 14.3184
      vertex 1.55291 -29.7782 14.2044
    endloop
  endfacet
  facet normal -0.587774 -0.809025 1.309e-06
    outer loop
      vertex 0 -28.65 0
      vertex 1.55291 -29.7782 14.2044
      vertex 1.17054 -29.5004 14.1153
    endloop
  endfacet
  facet normal -0.587854 -0.808967 1.13484e-05
    outer loop
      vertex 0 -28.65 0
      vertex 1.17054 -29.5004 14.1153
      vertex 0.783156 -29.2189 14.0513
    endloop
  endfacet
  facet normal -0.587774 -0.809025 0
    outer loop
      vertex 0 -28.65 0
      vertex 0.392418 -28.9351 14.0128
      vertex 0 -28.65 14
    endloop
  endfacet
  facet normal -0.587666 -0.809104 -4.61961e-06
    outer loop
      vertex 0 -28.65 0
      vertex 0.783156 -29.2189 14.0513
      vertex 0.392418 -28.9351 14.0128
    endloop
  endfacet
  facet normal -0.587755 -0.809039 2.80275e-06
    outer loop
      vertex 4.76012 -32.1081 16.3474
      vertex 0 -28.65 0
      vertex 44.0839 -60.6763 0
    endloop
  endfacet
  facet normal -0.587755 -0.809039 0
    outer loop
      vertex 5.54328 -32.6771 17.7039
      vertex 44.0839 -60.6763 0
      vertex 44.0839 -60.6763 20
    endloop
  endfacet
  facet normal 0.951068 0.30898 0
    outer loop
      vertex 44.0839 -60.6763 20
      vertex 27.2478 -8.85333 0
      vertex 27.2478 -8.85333 20
    endloop
  endfacet
  facet normal 0.951068 0.30898 0
    outer loop
      vertex 27.2478 -8.85333 0
      vertex 44.0839 -60.6763 20
      vertex 44.0839 -60.6763 0
    endloop
  endfacet
  facet normal 0 0 1
    outer loop
      vertex 65.1746 21.1765 2
      vertex 15.387 21.1784 2
      vertex 24.8967 -8.08942 2
    endloop
  endfacet
  facet normal 0 0 1
    outer loop
      vertex 0 -26.1779 2
      vertex 24.8967 -8.08942 2
      vertex 15.387 21.1784 2
    endloop
  endfacet
  facet normal 0 0 1
    outer loop
      vertex -15.387 21.1784 2
      vertex 15.387 21.1784 2
      vertex 0 68.5286 2
    endloop
  endfacet
  facet normal 0 0 1
    outer loop
      vertex 24.8967 -8.08942 2
      vertex 0 -26.1779 2
      vertex 40.2801 -55.4408 2
    endloop
  endfacet
  facet normal 0 0 1
    outer loop
      vertex 15.387 21.1784 2
      vertex -15.387 21.1784 2
      vertex 0 -26.1779 2
    endloop
  endfacet
  facet normal -0 0 1
    outer loop
      vertex -24.8967 -8.08942 2
      vertex 0 -26.1779 2
      vertex -15.387 21.1784 2
    endloop
  endfacet
  facet normal 0 0 1
    outer loop
      vertex 0 -26.1779 2
      vertex -24.8967 -8.08942 2
      vertex -40.2801 -55.4408 2
    endloop
  endfacet
  facet normal 0 0 1
    outer loop
      vertex -15.387 21.1784 2
      vertex -65.1746 21.1765 2
      vertex -24.8967 -8.08942 2
    endloop
  endfacet
  facet normal -0.587816 0.808995 0
    outer loop
      vertex 65.1746 21.1765 2
      vertex 24.8967 -8.08942 12.6
      vertex 65.1746 21.1765 12.6
    endloop
  endfacet
  facet normal -0.587816 0.808995 0
    outer loop
      vertex 24.8967 -8.08942 12.6
      vertex 65.1746 21.1765 2
      vertex 24.8967 -8.08942 2
    endloop
  endfacet
  facet normal -0.587816 0.808995 0
    outer loop
      vertex 65.1746 21.1765 14.4
      vertex 24.8967 -8.08942 20
      vertex 65.1746 21.1765 20
    endloop
  endfacet
  facet normal -0.587816 0.808995 0
    outer loop
      vertex 24.8967 -8.08942 20
      vertex 65.1746 21.1765 14.4
      vertex 24.8967 -8.08942 14.4
    endloop
  endfacet
  facet normal -3.81621e-05 -1 0
    outer loop
      vertex 15.387 21.1784 2
      vertex 65.1746 21.1765 12.6
      vertex 15.387 21.1784 12.6
    endloop
  endfacet
  facet normal -3.81621e-05 -1 -0
    outer loop
      vertex 65.1746 21.1765 12.6
      vertex 15.387 21.1784 2
      vertex 65.1746 21.1765 2
    endloop
  endfacet
  facet normal -3.81621e-05 -1 0
    outer loop
      vertex 15.387 21.1784 14.4
      vertex 65.1746 21.1765 20
      vertex 15.387 21.1784 20
    endloop
  endfacet
  facet normal -3.81621e-05 -1 -0
    outer loop
      vertex 65.1746 21.1765 20
      vertex 15.387 21.1784 14.4
      vertex 65.1746 21.1765 14.4
    endloop
  endfacet
  facet normal -0.951045 -0.309053 0
    outer loop
      vertex 15.387 21.1784 2
      vertex 0 68.5286 12.6
      vertex 0 68.5286 2
    endloop
  endfacet
  facet normal -0.951045 -0.309053 0
    outer loop
      vertex 0 68.5286 12.6
      vertex 15.387 21.1784 2
      vertex 15.387 21.1784 12.6
    endloop
  endfacet
  facet normal -0.951045 -0.309053 0
    outer loop
      vertex 15.387 21.1784 14.4
      vertex 0 68.5286 20
      vertex 0 68.5286 14.4
    endloop
  endfacet
  facet normal -0.951045 -0.309053 0
    outer loop
      vertex 0 68.5286 20
      vertex 15.387 21.1784 14.4
      vertex 15.387 21.1784 20
    endloop
  endfacet
  facet normal 0.951045 -0.309053 0
    outer loop
      vertex -15.387 21.1784 12.6
      vertex 0 68.5286 2
      vertex 0 68.5286 12.6
    endloop
  endfacet
  facet normal 0.951045 -0.309053 0
    outer loop
      vertex 0 68.5286 2
      vertex -15.387 21.1784 12.6
      vertex -15.387 21.1784 2
    endloop
  endfacet
  facet normal 0.951045 -0.309053 0
    outer loop
      vertex -15.387 21.1784 20
      vertex 0 68.5286 14.4
      vertex 0 68.5286 20
    endloop
  endfacet
  facet normal 0.951045 -0.309053 0
    outer loop
      vertex 0 68.5286 14.4
      vertex -15.387 21.1784 20
      vertex -15.387 21.1784 14.4
    endloop
  endfacet
  facet normal 3.81621e-05 -1 0
    outer loop
      vertex -65.1746 21.1765 2
      vertex -15.387 21.1784 12.6
      vertex -65.1746 21.1765 12.6
    endloop
  endfacet
  facet normal 3.81621e-05 -1 0
    outer loop
      vertex -15.387 21.1784 12.6
      vertex -65.1746 21.1765 2
      vertex -15.387 21.1784 2
    endloop
  endfacet
  facet normal 3.81621e-05 -1 0
    outer loop
      vertex -65.1746 21.1765 14.4
      vertex -15.387 21.1784 20
      vertex -65.1746 21.1765 20
    endloop
  endfacet
  facet normal 3.81621e-05 -1 0
    outer loop
      vertex -15.387 21.1784 20
      vertex -65.1746 21.1765 14.4
      vertex -15.387 21.1784 14.4
    endloop
  endfacet
  facet normal 0.587816 0.808995 -0
    outer loop
      vertex -24.8967 -8.08942 2
      vertex -65.1746 21.1765 12.6
      vertex -24.8967 -8.08942 12.6
    endloop
  endfacet
  facet normal 0.587816 0.808995 0
    outer loop
      vertex -65.1746 21.1765 12.6
      vertex -24.8967 -8.08942 2
      vertex -65.1746 21.1765 2
    endloop
  endfacet
  facet normal 0.587816 0.808995 -0
    outer loop
      vertex -24.8967 -8.08942 14.4
      vertex -65.1746 21.1765 20
      vertex -24.8967 -8.08942 20
    endloop
  endfacet
  facet normal 0.587816 0.808995 0
    outer loop
      vertex -65.1746 21.1765 20
      vertex -24.8967 -8.08942 14.4
      vertex -65.1746 21.1765 14.4
    endloop
  endfacet
  facet normal 0.951068 -0.308981 0
    outer loop
      vertex -40.2801 -55.4408 12.6
      vertex -24.8967 -8.08942 2
      vertex -24.8967 -8.08942 12.6
    endloop
  endfacet
  facet normal 0.951068 -0.308981 0
    outer loop
      vertex -24.8967 -8.08942 2
      vertex -40.2801 -55.4408 12.6
      vertex -40.2801 -55.4408 2
    endloop
  endfacet
  facet normal 0.951068 -0.308981 0
    outer loop
      vertex -40.2801 -55.4408 20
      vertex -24.8967 -8.08942 14.4
      vertex -24.8967 -8.08942 20
    endloop
  endfacet
  facet normal 0.951068 -0.308981 0
    outer loop
      vertex -24.8967 -8.08942 14.4
      vertex -40.2801 -55.4408 20
      vertex -40.2801 -55.4408 14.4
    endloop
  endfacet
  facet normal -0.587755 0.809039 0
    outer loop
      vertex 0 -26.1779 2
      vertex -40.2801 -55.4408 12.6
      vertex 0 -26.1779 12.6
    endloop
  endfacet
  facet normal -0.587755 0.809039 0
    outer loop
      vertex -40.2801 -55.4408 12.6
      vertex 0 -26.1779 2
      vertex -40.2801 -55.4408 2
    endloop
  endfacet
  facet normal -0.587755 0.809039 -7.28637e-05
    outer loop
      vertex -5.98715 -30.5275 19.6076
      vertex -40.2801 -55.4408 20
      vertex -6 -30.5368 20
    endloop
  endfacet
  facet normal -0.587754 0.80904 9.30008e-05
    outer loop
      vertex -5.94867 -30.4995 19.2168
      vertex -40.2801 -55.4408 20
      vertex -5.98715 -30.5275 19.6076
    endloop
  endfacet
  facet normal -0.587743 0.809048 -0.000134827
    outer loop
      vertex -40.2801 -55.4408 14.4
      vertex -5.94867 -30.4995 19.2168
      vertex -5.88471 -30.4531 18.8295
    endloop
  endfacet
  facet normal -0.587759 0.809036 5.4817e-05
    outer loop
      vertex -40.2801 -55.4408 14.4
      vertex -5.88471 -30.4531 18.8295
      vertex -5.79555 -30.3883 18.4471
    endloop
  endfacet
  facet normal -0.587755 0.809039 5.26502e-06
    outer loop
      vertex -40.2801 -55.4408 14.4
      vertex -5.79555 -30.3883 18.4471
      vertex -5.68158 -30.3055 18.0714
    endloop
  endfacet
  facet normal -0.587759 0.809036 5.74696e-05
    outer loop
      vertex -40.2801 -55.4408 14.4
      vertex -5.68158 -30.3055 18.0714
      vertex -5.54328 -30.205 17.7039
    endloop
  endfacet
  facet normal -0.587752 0.809041 -4.27907e-05
    outer loop
      vertex -40.2801 -55.4408 14.4
      vertex -5.54328 -30.205 17.7039
      vertex -5.38124 -30.0873 17.3463
    endloop
  endfacet
  facet normal -0.587747 0.809045 -0.000145563
    outer loop
      vertex -40.2801 -55.4408 14.4
      vertex -5.38124 -30.0873 17.3463
      vertex -5.19615 -29.9529 17
    endloop
  endfacet
  facet normal -0.587763 0.809033 0.000181493
    outer loop
      vertex -40.2801 -55.4408 14.4
      vertex -5.19615 -29.9529 17
      vertex -4.98882 -29.8022 16.6666
    endloop
  endfacet
  facet normal -0.58775 0.809042 -0.000114402
    outer loop
      vertex -40.2801 -55.4408 14.4
      vertex -4.98882 -29.8022 16.6666
      vertex -4.76012 -29.6361 16.3474
    endloop
  endfacet
  facet normal -0.587759 0.809036 0.000120774
    outer loop
      vertex -40.2801 -55.4408 14.4
      vertex -4.76012 -29.6361 16.3474
      vertex -4.51104 -29.4551 16.0439
    endloop
  endfacet
  facet normal -0.587756 0.809038 3.06402e-05
    outer loop
      vertex -40.2801 -55.4408 14.4
      vertex -4.51104 -29.4551 16.0439
      vertex -4.24264 -29.2601 15.7574
    endloop
  endfacet
  facet normal -0.587749 0.809043 -0.000257938
    outer loop
      vertex -40.2801 -55.4408 14.4
      vertex -4.24264 -29.2601 15.7574
      vertex -3.95607 -29.052 15.489
    endloop
  endfacet
  facet normal -0.587755 0.809039 3.86296e-05
    outer loop
      vertex -40.2801 -55.4408 14.4
      vertex -3.95607 -29.052 15.489
      vertex -3.65257 -28.8315 15.2399
    endloop
  endfacet
  facet normal -0.587756 0.809038 0.000146568
    outer loop
      vertex -40.2801 -55.4408 14.4
      vertex -3.65257 -28.8315 15.2399
      vertex -3.33342 -28.5996 15.0112
    endloop
  endfacet
  facet normal -0.587754 0.80904 -9.3282e-05
    outer loop
      vertex -40.2801 -55.4408 14.4
      vertex -3.33342 -28.5996 15.0112
      vertex -3 -28.3574 14.8038
    endloop
  endfacet
  facet normal -0.587756 0.809039 0.00017295
    outer loop
      vertex -40.2801 -55.4408 14.4
      vertex -3 -28.3574 14.8038
      vertex -2.65373 -28.1058 14.6188
    endloop
  endfacet
  facet normal -0.587755 0.809039 -6.35347e-05
    outer loop
      vertex -40.2801 -55.4408 14.4
      vertex -2.65373 -28.1058 14.6188
      vertex -2.2961 -27.846 14.4567
    endloop
  endfacet
  facet normal -0.587755 0.809039 0.000163022
    outer loop
      vertex -40.2801 -55.4408 14.4
      vertex -2.2961 -27.846 14.4567
      vertex -2.14539 -27.7365 14.4
    endloop
  endfacet
  facet normal -0.587755 0.809039 0
    outer loop
      vertex -5.94867 -30.4995 19.2168
      vertex -40.2801 -55.4408 14.4
      vertex -40.2801 -55.4408 20
    endloop
  endfacet
  facet normal 0.587755 0.809039 -0
    outer loop
      vertex 40.2801 -55.4408 2
      vertex 0 -26.1779 12.6
      vertex 40.2801 -55.4408 12.6
    endloop
  endfacet
  facet normal 0.587755 0.809039 0
    outer loop
      vertex 0 -26.1779 12.6
      vertex 40.2801 -55.4408 2
      vertex 0 -26.1779 2
    endloop
  endfacet
  facet normal 0.587755 0.809039 -7.28637e-05
    outer loop
      vertex 40.2801 -55.4408 20
      vertex 5.98715 -30.5275 19.6076
      vertex 6 -30.5368 20
    endloop
  endfacet
  facet normal 0.587754 0.80904 9.30008e-05
    outer loop
      vertex 40.2801 -55.4408 20
      vertex 5.94867 -30.4995 19.2168
      vertex 5.98715 -30.5275 19.6076
    endloop
  endfacet
  facet normal 0.587755 0.809039 -0
    outer loop
      vertex 40.2801 -55.4408 14.4
      vertex 5.94867 -30.4995 19.2168
      vertex 40.2801 -55.4408 20
    endloop
  endfacet
  facet normal 0.587743 0.809048 -0.000134827
    outer loop
      vertex 5.94867 -30.4995 19.2168
      vertex 40.2801 -55.4408 14.4
      vertex 5.88471 -30.4531 18.8295
    endloop
  endfacet
  facet normal 0.587759 0.809036 5.4817e-05
    outer loop
      vertex 5.88471 -30.4531 18.8295
      vertex 40.2801 -55.4408 14.4
      vertex 5.79555 -30.3883 18.4471
    endloop
  endfacet
  facet normal 0.587755 0.809039 5.26502e-06
    outer loop
      vertex 5.79555 -30.3883 18.4471
      vertex 40.2801 -55.4408 14.4
      vertex 5.68158 -30.3055 18.0714
    endloop
  endfacet
  facet normal 0.587759 0.809036 5.74696e-05
    outer loop
      vertex 5.68158 -30.3055 18.0714
      vertex 40.2801 -55.4408 14.4
      vertex 5.54328 -30.205 17.7039
    endloop
  endfacet
  facet normal 0.587752 0.809041 -4.27907e-05
    outer loop
      vertex 5.54328 -30.205 17.7039
      vertex 40.2801 -55.4408 14.4
      vertex 5.38124 -30.0873 17.3463
    endloop
  endfacet
  facet normal 0.587747 0.809045 -0.000145563
    outer loop
      vertex 5.38124 -30.0873 17.3463
      vertex 40.2801 -55.4408 14.4
      vertex 5.19615 -29.9529 17
    endloop
  endfacet
  facet normal 0.587763 0.809033 0.000181493
    outer loop
      vertex 5.19615 -29.9529 17
      vertex 40.2801 -55.4408 14.4
      vertex 4.98882 -29.8022 16.6666
    endloop
  endfacet
  facet normal 0.58775 0.809042 -0.000114402
    outer loop
      vertex 4.98882 -29.8022 16.6666
      vertex 40.2801 -55.4408 14.4
      vertex 4.76012 -29.6361 16.3474
    endloop
  endfacet
  facet normal 0.587759 0.809036 0.000120774
    outer loop
      vertex 4.76012 -29.6361 16.3474
      vertex 40.2801 -55.4408 14.4
      vertex 4.51104 -29.4551 16.0439
    endloop
  endfacet
  facet normal 0.587756 0.809038 3.06402e-05
    outer loop
      vertex 4.51104 -29.4551 16.0439
      vertex 40.2801 -55.4408 14.4
      vertex 4.24264 -29.2601 15.7574
    endloop
  endfacet
  facet normal 0.587749 0.809043 -0.000257938
    outer loop
      vertex 4.24264 -29.2601 15.7574
      vertex 40.2801 -55.4408 14.4
      vertex 3.95607 -29.052 15.489
    endloop
  endfacet
  facet normal 0.587755 0.809039 3.86296e-05
    outer loop
      vertex 3.95607 -29.052 15.489
      vertex 40.2801 -55.4408 14.4
      vertex 3.65257 -28.8315 15.2399
    endloop
  endfacet
  facet normal 0.587756 0.809038 0.000146568
    outer loop
      vertex 3.65257 -28.8315 15.2399
      vertex 40.2801 -55.4408 14.4
      vertex 3.33342 -28.5996 15.0112
    endloop
  endfacet
  facet normal 0.587754 0.80904 -9.3282e-05
    outer loop
      vertex 3.33342 -28.5996 15.0112
      vertex 40.2801 -55.4408 14.4
      vertex 3 -28.3574 14.8038
    endloop
  endfacet
  facet normal 0.587756 0.809039 0.00017295
    outer loop
      vertex 3 -28.3574 14.8038
      vertex 40.2801 -55.4408 14.4
      vertex 2.65373 -28.1058 14.6188
    endloop
  endfacet
  facet normal 0.587755 0.809039 -6.35347e-05
    outer loop
      vertex 2.65373 -28.1058 14.6188
      vertex 40.2801 -55.4408 14.4
      vertex 2.2961 -27.846 14.4567
    endloop
  endfacet
  facet normal 0.587755 0.809039 0.000163022
    outer loop
      vertex 2.2961 -27.846 14.4567
      vertex 40.2801 -55.4408 14.4
      vertex 2.14539 -27.7365 14.4
    endloop
  endfacet
  facet normal -0.951068 -0.308981 0
    outer loop
      vertex 40.2801 -55.4408 2
      vertex 24.8967 -8.08942 12.6
      vertex 24.8967 -8.08942 2
    endloop
  endfacet
  facet normal -0.951068 -0.308981 0
    outer loop
      vertex 24.8967 -8.08942 12.6
      vertex 40.2801 -55.4408 2
      vertex 40.2801 -55.4408 12.6
    endloop
  endfacet
  facet normal -0.951068 -0.308981 0
    outer loop
      vertex 40.2801 -55.4408 14.4
      vertex 24.8967 -8.08942 20
      vertex 24.8967 -8.08942 14.4
    endloop
  endfacet
  facet normal -0.951068 -0.308981 0
    outer loop
      vertex 24.8967 -8.08942 20
      vertex 40.2801 -55.4408 14.4
      vertex 40.2801 -55.4408 20
    endloop
  endfacet
  facet normal 0 0 1
    outer loop
      vertex 15.6776 21.5784 12.6
      vertex 65.1746 21.1765 12.6
      vertex 66.4055 21.5764 12.6
    endloop
  endfacet
  facet normal 0 0 1
    outer loop
      vertex 15.6776 21.5784 12.6
      vertex 15.387 21.1784 12.6
      vertex 65.1746 21.1765 12.6
    endloop
  endfacet
  facet normal -0 0 1
    outer loop
      vertex 0 68.5286 12.6
      vertex 15.6776 21.5784 12.6
      vertex 0 69.8229 12.6
    endloop
  endfacet
  facet normal 0 0 1
    outer loop
      vertex 15.6776 21.5784 12.6
      vertex 0 68.5286 12.6
      vertex 15.387 21.1784 12.6
    endloop
  endfacet
  facet normal 0 0 1
    outer loop
      vertex -15.6776 21.5784 12.6
      vertex 0 68.5286 12.6
      vertex 0 69.8229 12.6
    endloop
  endfacet
  facet normal 0 0 1
    outer loop
      vertex 0 68.5286 12.6
      vertex -15.6776 21.5784 12.6
      vertex -15.387 21.1784 12.6
    endloop
  endfacet
  facet normal 0 0 1
    outer loop
      vertex -15.6776 21.5784 12.6
      vertex -65.1746 21.1765 12.6
      vertex -15.387 21.1784 12.6
    endloop
  endfacet
  facet normal 0 -0 1
    outer loop
      vertex -65.1746 21.1765 12.6
      vertex -15.6776 21.5784 12.6
      vertex -66.4055 21.5764 12.6
    endloop
  endfacet
  facet normal -0 0 1
    outer loop
      vertex 65.1746 21.1765 12.6
      vertex 25.3669 -8.2422 12.6
      vertex 66.4055 21.5764 12.6
    endloop
  endfacet
  facet normal 0 -0 1
    outer loop
      vertex 25.3669 -8.2422 12.6
      vertex 65.1746 21.1765 12.6
      vertex 24.8967 -8.08942 12.6
    endloop
  endfacet
  facet normal 0 0 1
    outer loop
      vertex 25.3669 -8.2422 12.6
      vertex 40.2801 -55.4408 12.6
      vertex 41.0409 -56.4879 12.6
    endloop
  endfacet
  facet normal 0 0 1
    outer loop
      vertex 40.2801 -55.4408 12.6
      vertex 25.3669 -8.2422 12.6
      vertex 24.8967 -8.08942 12.6
    endloop
  endfacet
  facet normal -0 0 1
    outer loop
      vertex 0 -26.6723 12.6
      vertex 40.2801 -55.4408 12.6
      vertex 0 -26.1779 12.6
    endloop
  endfacet
  facet normal 0 0 1
    outer loop
      vertex 40.2801 -55.4408 12.6
      vertex 0 -26.6723 12.6
      vertex 41.0409 -56.4879 12.6
    endloop
  endfacet
  facet normal 0 0 1
    outer loop
      vertex -40.2801 -55.4408 12.6
      vertex 0 -26.6723 12.6
      vertex 0 -26.1779 12.6
    endloop
  endfacet
  facet normal 0 0 1
    outer loop
      vertex 0 -26.6723 12.6
      vertex -40.2801 -55.4408 12.6
      vertex -41.0409 -56.4879 12.6
    endloop
  endfacet
  facet normal 0 0 1
    outer loop
      vertex -65.1746 21.1765 12.6
      vertex -25.3669 -8.2422 12.6
      vertex -24.8967 -8.08942 12.6
    endloop
  endfacet
  facet normal 0 0 1
    outer loop
      vertex -25.3669 -8.2422 12.6
      vertex -65.1746 21.1765 12.6
      vertex -66.4055 21.5764 12.6
    endloop
  endfacet
  facet normal -0 0 1
    outer loop
      vertex -25.3669 -8.2422 12.6
      vertex -40.2801 -55.4408 12.6
      vertex -24.8967 -8.08942 12.6
    endloop
  endfacet
  facet normal 0 -0 1
    outer loop
      vertex -40.2801 -55.4408 12.6
      vertex -25.3669 -8.2422 12.6
      vertex -41.0409 -56.4879 12.6
    endloop
  endfacet
  facet normal -0 0 -1
    outer loop
      vertex -2.14539 -28.2309 14.4
      vertex -40.2801 -55.4408 14.4
      vertex -2.14539 -27.7365 14.4
    endloop
  endfacet
  facet normal 0 -0 -1
    outer loop
      vertex -40.2801 -55.4408 14.4
      vertex -2.14539 -28.2309 14.4
      vertex -41.0409 -56.4879 14.4
    endloop
  endfacet
  facet normal 0 0 -1
    outer loop
      vertex 2.14539 -28.2309 14.4
      vertex 40.2801 -55.4408 14.4
      vertex 41.0409 -56.4879 14.4
    endloop
  endfacet
  facet normal 0 0 -1
    outer loop
      vertex 40.2801 -55.4408 14.4
      vertex 2.14539 -28.2309 14.4
      vertex 2.14539 -27.7365 14.4
    endloop
  endfacet
  facet normal 0 0 -1
    outer loop
      vertex 40.2801 -55.4408 14.4
      vertex 25.3669 -8.2422 14.4
      vertex 41.0409 -56.4879 14.4
    endloop
  endfacet
  facet normal -0 -0 -1
    outer loop
      vertex 25.3669 -8.2422 14.4
      vertex 40.2801 -55.4408 14.4
      vertex 24.8967 -8.08942 14.4
    endloop
  endfacet
  facet normal 0 0 -1
    outer loop
      vertex 25.3669 -8.2422 14.4
      vertex 65.1746 21.1765 14.4
      vertex 66.4055 21.5764 14.4
    endloop
  endfacet
  facet normal 0 0 -1
    outer loop
      vertex 65.1746 21.1765 14.4
      vertex 25.3669 -8.2422 14.4
      vertex 24.8967 -8.08942 14.4
    endloop
  endfacet
  facet normal 0 0 -1
    outer loop
      vertex 65.1746 21.1765 14.4
      vertex 15.6776 21.5784 14.4
      vertex 66.4055 21.5764 14.4
    endloop
  endfacet
  facet normal 0 0 -1
    outer loop
      vertex 15.387 21.1784 14.4
      vertex 15.6776 21.5784 14.4
      vertex 65.1746 21.1765 14.4
    endloop
  endfacet
  facet normal 0 0 -1
    outer loop
      vertex 0 68.5286 14.4
      vertex 15.6776 21.5784 14.4
      vertex 15.387 21.1784 14.4
    endloop
  endfacet
  facet normal 0 0 -1
    outer loop
      vertex 0 68.5286 14.4
      vertex 0 69.8229 14.4
      vertex 15.6776 21.5784 14.4
    endloop
  endfacet
  facet normal 0 0 -1
    outer loop
      vertex -15.6776 21.5784 14.4
      vertex 0 68.5286 14.4
      vertex -15.387 21.1784 14.4
    endloop
  endfacet
  facet normal -0 0 -1
    outer loop
      vertex 0 68.5286 14.4
      vertex -15.6776 21.5784 14.4
      vertex 0 69.8229 14.4
    endloop
  endfacet
  facet normal 0 0 -1
    outer loop
      vertex -65.1746 21.1765 14.4
      vertex -15.6776 21.5784 14.4
      vertex -15.387 21.1784 14.4
    endloop
  endfacet
  facet normal 0 0 -1
    outer loop
      vertex -15.6776 21.5784 14.4
      vertex -65.1746 21.1765 14.4
      vertex -66.4055 21.5764 14.4
    endloop
  endfacet
  facet normal 0 0 -1
    outer loop
      vertex -40.2801 -55.4408 14.4
      vertex -25.3669 -8.2422 14.4
      vertex -24.8967 -8.08942 14.4
    endloop
  endfacet
  facet normal 0 0 -1
    outer loop
      vertex -25.3669 -8.2422 14.4
      vertex -40.2801 -55.4408 14.4
      vertex -41.0409 -56.4879 14.4
    endloop
  endfacet
  facet normal 0 0 -1
    outer loop
      vertex -25.3669 -8.2422 14.4
      vertex -65.1746 21.1765 14.4
      vertex -24.8967 -8.08942 14.4
    endloop
  endfacet
  facet normal -0 -0 -1
    outer loop
      vertex -65.1746 21.1765 14.4
      vertex -25.3669 -8.2422 14.4
      vertex -66.4055 21.5764 14.4
    endloop
  endfacet
  facet normal -0.587815 0.808995 0
    outer loop
      vertex 66.4055 21.5764 12.6
      vertex 25.3669 -8.2422 14.4
      vertex 66.4055 21.5764 14.4
    endloop
  endfacet
  facet normal -0.587815 0.808995 0
    outer loop
      vertex 25.3669 -8.2422 14.4
      vertex 66.4055 21.5764 12.6
      vertex 25.3669 -8.2422 12.6
    endloop
  endfacet
  facet normal -3.9426e-05 -1 0
    outer loop
      vertex 15.6776 21.5784 12.6
      vertex 66.4055 21.5764 14.4
      vertex 15.6776 21.5784 14.4
    endloop
  endfacet
  facet normal -3.9426e-05 -1 -0
    outer loop
      vertex 66.4055 21.5764 14.4
      vertex 15.6776 21.5784 12.6
      vertex 66.4055 21.5764 12.6
    endloop
  endfacet
  facet normal -0.951045 -0.309053 0
    outer loop
      vertex 15.6776 21.5784 12.6
      vertex 0 69.8229 14.4
      vertex 0 69.8229 12.6
    endloop
  endfacet
  facet normal -0.951045 -0.309053 0
    outer loop
      vertex 0 69.8229 14.4
      vertex 15.6776 21.5784 12.6
      vertex 15.6776 21.5784 14.4
    endloop
  endfacet
  facet normal 0.951045 -0.309053 0
    outer loop
      vertex -15.6776 21.5784 14.4
      vertex 0 69.8229 12.6
      vertex 0 69.8229 14.4
    endloop
  endfacet
  facet normal 0.951045 -0.309053 0
    outer loop
      vertex 0 69.8229 12.6
      vertex -15.6776 21.5784 14.4
      vertex -15.6776 21.5784 12.6
    endloop
  endfacet
  facet normal 3.9426e-05 -1 0
    outer loop
      vertex -66.4055 21.5764 12.6
      vertex -15.6776 21.5784 14.4
      vertex -66.4055 21.5764 14.4
    endloop
  endfacet
  facet normal 3.9426e-05 -1 0
    outer loop
      vertex -15.6776 21.5784 14.4
      vertex -66.4055 21.5764 12.6
      vertex -15.6776 21.5784 12.6
    endloop
  endfacet
  facet normal 0.587815 0.808995 -0
    outer loop
      vertex -25.3669 -8.2422 12.6
      vertex -66.4055 21.5764 14.4
      vertex -25.3669 -8.2422 14.4
    endloop
  endfacet
  facet normal 0.587815 0.808995 0
    outer loop
      vertex -66.4055 21.5764 14.4
      vertex -25.3669 -8.2422 12.6
      vertex -66.4055 21.5764 12.6
    endloop
  endfacet
  facet normal 0.951068 -0.308982 0
    outer loop
      vertex -41.0409 -56.4879 14.4
      vertex -25.3669 -8.2422 12.6
      vertex -25.3669 -8.2422 14.4
    endloop
  endfacet
  facet normal 0.951068 -0.308982 0
    outer loop
      vertex -25.3669 -8.2422 12.6
      vertex -41.0409 -56.4879 14.4
      vertex -41.0409 -56.4879 12.6
    endloop
  endfacet
  facet normal -0.587462 0.809251 0.000534885
    outer loop
      vertex 0 -26.6723 12.6
      vertex -2.14539 -28.2309 14.4
      vertex -1.92864 -28.0735 14.3184
    endloop
  endfacet
  facet normal -0.587825 0.808988 -8.71023e-05
    outer loop
      vertex 0 -26.6723 12.6
      vertex -1.92864 -28.0735 14.3184
      vertex -1.55291 -27.8005 14.2044
    endloop
  endfacet
  facet normal -0.587776 0.809023 -1.45829e-05
    outer loop
      vertex 0 -26.6723 12.6
      vertex -1.55291 -27.8005 14.2044
      vertex -1.17054 -27.5227 14.1153
    endloop
  endfacet
  facet normal -0.587709 0.809073 6.5406e-05
    outer loop
      vertex 0 -26.6723 12.6
      vertex -1.17054 -27.5227 14.1153
      vertex -0.783156 -27.2413 14.0513
    endloop
  endfacet
  facet normal -0.587803 0.809004 -1.21539e-05
    outer loop
      vertex 0 -26.6723 12.6
      vertex -0.783156 -27.2413 14.0513
      vertex -0.392418 -26.9574 14.0128
    endloop
  endfacet
  facet normal -0.587774 0.809025 0
    outer loop
      vertex 0 -26.6723 12.6
      vertex -0.392418 -26.9574 14.0128
      vertex 0 -26.6723 14
    endloop
  endfacet
  facet normal -0.587755 0.809039 2.81081e-06
    outer loop
      vertex -2.14539 -28.2309 14.4
      vertex 0 -26.6723 12.6
      vertex -41.0409 -56.4879 12.6
    endloop
  endfacet
  facet normal -0.587755 0.809039 0
    outer loop
      vertex -2.14539 -28.2309 14.4
      vertex -41.0409 -56.4879 12.6
      vertex -41.0409 -56.4879 14.4
    endloop
  endfacet
  facet normal 0.587755 0.809039 -0
    outer loop
      vertex 41.0409 -56.4879 12.6
      vertex 2.14539 -28.2309 14.4
      vertex 41.0409 -56.4879 14.4
    endloop
  endfacet
  facet normal 0.587755 0.809039 2.81081e-06
    outer loop
      vertex 0 -26.6723 12.6
      vertex 2.14539 -28.2309 14.4
      vertex 41.0409 -56.4879 12.6
    endloop
  endfacet
  facet normal 0.587462 0.809251 0.000534885
    outer loop
      vertex 2.14539 -28.2309 14.4
      vertex 0 -26.6723 12.6
      vertex 1.92864 -28.0735 14.3184
    endloop
  endfacet
  facet normal 0.587825 0.808988 -8.71023e-05
    outer loop
      vertex 1.92864 -28.0735 14.3184
      vertex 0 -26.6723 12.6
      vertex 1.55291 -27.8005 14.2044
    endloop
  endfacet
  facet normal 0.587776 0.809023 -1.45829e-05
    outer loop
      vertex 1.55291 -27.8005 14.2044
      vertex 0 -26.6723 12.6
      vertex 1.17054 -27.5227 14.1153
    endloop
  endfacet
  facet normal 0.587709 0.809073 6.5406e-05
    outer loop
      vertex 1.17054 -27.5227 14.1153
      vertex 0 -26.6723 12.6
      vertex 0.783156 -27.2413 14.0513
    endloop
  endfacet
  facet normal 0.587803 0.809004 -1.21539e-05
    outer loop
      vertex 0.783156 -27.2413 14.0513
      vertex 0 -26.6723 12.6
      vertex 0.392418 -26.9574 14.0128
    endloop
  endfacet
  facet normal 0.587774 0.809025 0
    outer loop
      vertex 0.392418 -26.9574 14.0128
      vertex 0 -26.6723 12.6
      vertex 0 -26.6723 14
    endloop
  endfacet
  facet normal -0.951068 -0.308982 0
    outer loop
      vertex 41.0409 -56.4879 12.6
      vertex 25.3669 -8.2422 14.4
      vertex 25.3669 -8.2422 12.6
    endloop
  endfacet
  facet normal -0.951068 -0.308982 0
    outer loop
      vertex 25.3669 -8.2422 14.4
      vertex 41.0409 -56.4879 12.6
      vertex 41.0409 -56.4879 14.4
    endloop
  endfacet
endsolid OpenSCAD_Model
