solid OpenSCAD_Model
  facet normal 0 0 -1
    outer loop
      vertex 15.0964 -20.7784 5
      vertex 63.9189 -20.7685 5
      vertex 63.9436 -20.7766 5
    endloop
  endfacet
  facet normal 0 0 -1
    outer loop
      vertex 15.0964 -20.7784 5
      vertex 15.0907 -20.7704 5
      vertex 63.9189 -20.7685 5
    endloop
  endfacet
  facet normal 0 0 -1
    outer loop
      vertex 15.0905 -20.7705 5
      vertex 15.0907 -20.7704 5
      vertex 15.0964 -20.7784 5
    endloop
  endfacet
  facet normal -0 0 -1
    outer loop
      vertex 15.0907 -20.7704 5
      vertex 15.0905 -20.7705 5
      vertex 15.0906 -20.7704 5
    endloop
  endfacet
  facet normal 0 0 -1
    outer loop
      vertex 0 -67.2084 5
      vertex 15.0964 -20.7784 5
      vertex 0 -67.2344 5
    endloop
  endfacet
  facet normal -0 0 -1
    outer loop
      vertex 15.0964 -20.7784 5
      vertex 0 -67.2084 5
      vertex 15.0905 -20.7705 5
    endloop
  endfacet
  facet normal 0 0 -1
    outer loop
      vertex -15.0964 -20.7784 5
      vertex 0 -67.2084 5
      vertex 0 -67.2344 5
    endloop
  endfacet
  facet normal 0 0 -1
    outer loop
      vertex -15.0905 -20.7705 5
      vertex -15.0907 -20.7704 5
      vertex -15.0906 -20.7704 5
    endloop
  endfacet
  facet normal 0 0 -1
    outer loop
      vertex 0 -67.2084 5
      vertex -15.0964 -20.7784 5
      vertex -15.0905 -20.7705 5
    endloop
  endfacet
  facet normal -0 0 -1
    outer loop
      vertex -15.0905 -20.7705 5
      vertex -15.0964 -20.7784 5
      vertex -15.0907 -20.7704 5
    endloop
  endfacet
  facet normal 0 0 -1
    outer loop
      vertex -15.0964 -20.7784 5
      vertex -63.9189 -20.7685 5
      vertex -15.0907 -20.7704 5
    endloop
  endfacet
  facet normal 0 -0 -1
    outer loop
      vertex -63.9189 -20.7685 5
      vertex -15.0964 -20.7784 5
      vertex -63.9436 -20.7766 5
    endloop
  endfacet
  facet normal 0 0 -1
    outer loop
      vertex 63.9189 -20.7685 5
      vertex 24.4265 7.93665 5
      vertex 63.9436 -20.7766 5
    endloop
  endfacet
  facet normal 0 -0 -1
    outer loop
      vertex 24.4265 7.93665 5
      vertex 63.9189 -20.7685 5
      vertex 24.4172 7.93346 5
    endloop
  endfacet
  facet normal 0 0 -1
    outer loop
      vertex 24.4265 7.93665 5
      vertex 39.5041 54.3727 5
      vertex 39.5193 54.3937 5
    endloop
  endfacet
  facet normal 0 0 -1
    outer loop
      vertex 24.4171 7.93376 5
      vertex 24.4265 7.93665 5
      vertex 24.4172 7.93346 5
    endloop
  endfacet
  facet normal -0 0 -1
    outer loop
      vertex 24.4265 7.93665 5
      vertex 24.4171 7.93376 5
      vertex 39.5041 54.3727 5
    endloop
  endfacet
  facet normal 0 -0 -1
    outer loop
      vertex 24.4171 7.93376 5
      vertex 24.4172 7.93346 5
      vertex 24.417 7.93358 5
    endloop
  endfacet
  facet normal 0 0 -1
    outer loop
      vertex 0 25.6835 5
      vertex 39.5041 54.3727 5
      vertex 0.000154361 25.6737 5
    endloop
  endfacet
  facet normal -0 0 -1
    outer loop
      vertex 39.5041 54.3727 5
      vertex 0 25.6835 5
      vertex 39.5193 54.3937 5
    endloop
  endfacet
  facet normal 0 0 -1
    outer loop
      vertex -0.000154361 25.6737 5
      vertex 0.000154361 25.6737 5
      vertex 0 25.6736 5
    endloop
  endfacet
  facet normal 0 0 -1
    outer loop
      vertex 0.000154361 25.6737 5
      vertex -0.000154361 25.6737 5
      vertex 0 25.6835 5
    endloop
  endfacet
  facet normal 0 0 -1
    outer loop
      vertex -39.5041 54.3727 5
      vertex 0 25.6835 5
      vertex -0.000154361 25.6737 5
    endloop
  endfacet
  facet normal 0 0 -1
    outer loop
      vertex 0 25.6835 5
      vertex -39.5041 54.3727 5
      vertex -39.5193 54.3937 5
    endloop
  endfacet
  facet normal 0 0 -1
    outer loop
      vertex -63.9189 -20.7685 5
      vertex -24.4265 7.93665 5
      vertex -24.4172 7.93346 5
    endloop
  endfacet
  facet normal 0 0 -1
    outer loop
      vertex -24.4265 7.93665 5
      vertex -63.9189 -20.7685 5
      vertex -63.9436 -20.7766 5
    endloop
  endfacet
  facet normal 0 0 -1
    outer loop
      vertex -24.4172 7.93346 5
      vertex -24.4171 7.93376 5
      vertex -24.417 7.93358 5
    endloop
  endfacet
  facet normal 0 0 -1
    outer loop
      vertex -24.4265 7.93665 5
      vertex -24.4171 7.93376 5
      vertex -24.4172 7.93346 5
    endloop
  endfacet
  facet normal 0 0 -1
    outer loop
      vertex -24.4265 7.93665 5
      vertex -39.5041 54.3727 5
      vertex -24.4171 7.93376 5
    endloop
  endfacet
  facet normal -0 -0 -1
    outer loop
      vertex -39.5041 54.3727 5
      vertex -24.4265 7.93665 5
      vertex -39.5193 54.3937 5
    endloop
  endfacet
  facet normal -0 0 1
    outer loop
      vertex 0 0.286499 33
      vertex 0.272477 0.0885324 33
      vertex 0.440839 0.606762 33
    endloop
  endfacet
  facet normal 0 0 1
    outer loop
      vertex 0.272477 0.0885324 33
      vertex 0 0.286499 33
      vertex 0.1684 -0.231783 33
    endloop
  endfacet
  facet normal 0 0 1
    outer loop
      vertex -0.1684 -0.231783 33
      vertex 0.1684 -0.231783 33
      vertex 0 0.286499 33
    endloop
  endfacet
  facet normal 0 0 1
    outer loop
      vertex 0.1684 -0.231783 33
      vertex -0.1684 -0.231783 33
      vertex 0 -0.75 33
    endloop
  endfacet
  facet normal 0 0 1
    outer loop
      vertex 0 0.286499 33
      vertex -0.272477 0.0885324 33
      vertex -0.1684 -0.231783 33
    endloop
  endfacet
  facet normal 0 -0 1
    outer loop
      vertex -0.272477 0.0885324 33
      vertex 0 0.286499 33
      vertex -0.440839 0.606762 33
    endloop
  endfacet
  facet normal 0 0 1
    outer loop
      vertex 0.713292 -0.231762 33
      vertex 0.272477 0.0885324 33
      vertex 0.1684 -0.231783 33
    endloop
  endfacet
  facet normal 0 0 1
    outer loop
      vertex -0.1684 -0.231783 33
      vertex -0.272477 0.0885324 33
      vertex -0.713292 -0.231762 33
    endloop
  endfacet
  facet normal 2.83888e-05 -0.773442 0.633867
    outer loop
      vertex 16.84 -23.1783 5
      vertex 71.3292 -23.1763 5
      vertex 0.713292 -0.231762 33
    endloop
  endfacet
  facet normal 2.98082e-05 -0.773442 0.633867
    outer loop
      vertex 16.84 -23.1783 5
      vertex 0.713292 -0.231762 33
      vertex 0.1684 -0.231783 33
    endloop
  endfacet
  facet normal 0.454642 0.625709 0.633868
    outer loop
      vertex 71.3292 -23.1763 5
      vertex 27.2478 8.85333 5
      vertex 0.713292 -0.231762 33
    endloop
  endfacet
  facet normal 0.45464 0.625712 0.633867
    outer loop
      vertex 0.713292 -0.231762 33
      vertex 27.2478 8.85333 5
      vertex 0.272477 0.0885324 33
    endloop
  endfacet
  facet normal 0.735595 -0.238978 0.633869
    outer loop
      vertex 27.2478 8.85333 5
      vertex 44.0839 60.6763 5
      vertex 0.440839 0.606762 33
    endloop
  endfacet
  facet normal 0.735595 -0.238979 0.633868
    outer loop
      vertex 27.2478 8.85333 5
      vertex 0.440839 0.606762 33
      vertex 0.272477 0.0885324 33
    endloop
  endfacet
  facet normal -0.454594 0.625744 0.633868
    outer loop
      vertex 0.440839 0.606762 33
      vertex 44.0839 60.6763 5
      vertex 0 28.65 5
    endloop
  endfacet
  facet normal -0.454594 0.625744 0.633868
    outer loop
      vertex 0.440839 0.606762 33
      vertex 0 28.65 5
      vertex 0 0.286499 33
    endloop
  endfacet
  facet normal 0.454594 0.625744 0.633868
    outer loop
      vertex -0.440839 0.606762 33
      vertex 0 28.65 5
      vertex -44.0839 60.6763 5
    endloop
  endfacet
  facet normal 0.454594 0.625744 0.633868
    outer loop
      vertex 0 0.286499 33
      vertex 0 28.65 5
      vertex -0.440839 0.606762 33
    endloop
  endfacet
  facet normal -0.735595 -0.238978 0.633869
    outer loop
      vertex -27.2478 8.85333 5
      vertex -0.440839 0.606762 33
      vertex -44.0839 60.6763 5
    endloop
  endfacet
  facet normal -0.735595 -0.238979 0.633868
    outer loop
      vertex -0.272477 0.0885324 33
      vertex -0.440839 0.606762 33
      vertex -27.2478 8.85333 5
    endloop
  endfacet
  facet normal -0.454642 0.625709 0.633868
    outer loop
      vertex -0.713292 -0.231762 33
      vertex -27.2478 8.85333 5
      vertex -71.3292 -23.1763 5
    endloop
  endfacet
  facet normal -0.45464 0.625712 0.633867
    outer loop
      vertex -0.713292 -0.231762 33
      vertex -0.272477 0.0885324 33
      vertex -27.2478 8.85333 5
    endloop
  endfacet
  facet normal -2.83888e-05 -0.773442 0.633867
    outer loop
      vertex -16.84 -23.1783 5
      vertex -0.713292 -0.231762 33
      vertex -71.3292 -23.1763 5
    endloop
  endfacet
  facet normal -2.98082e-05 -0.773442 0.633867
    outer loop
      vertex -0.1684 -0.231783 33
      vertex -0.713292 -0.231762 33
      vertex -16.84 -23.1783 5
    endloop
  endfacet
  facet normal -0.735579 -0.239034 0.633867
    outer loop
      vertex 0 -75 5
      vertex 0 -0.75 33
      vertex -16.84 -23.1783 5
    endloop
  endfacet
  facet normal -0.735579 -0.239034 0.633867
    outer loop
      vertex 0 -0.75 33
      vertex -0.1684 -0.231783 33
      vertex -16.84 -23.1783 5
    endloop
  endfacet
  facet normal 0.735579 -0.239034 0.633867
    outer loop
      vertex 16.84 -23.1783 5
      vertex 0 -0.75 33
      vertex 0 -75 5
    endloop
  endfacet
  facet normal 0.735579 -0.239034 0.633867
    outer loop
      vertex 16.84 -23.1783 5
      vertex 0.1684 -0.231783 33
      vertex 0 -0.75 33
    endloop
  endfacet
  facet normal -0 0 -1
    outer loop
      vertex 0.639436 -0.207765 30.59
      vertex 0.150964 -0.207784 30.59
      vertex 0.244265 0.0793657 30.59
    endloop
  endfacet
  facet normal 0 0 -1
    outer loop
      vertex 0 0.256835 30.59
      vertex 0.244265 0.0793657 30.59
      vertex 0.150964 -0.207784 30.59
    endloop
  endfacet
  facet normal 0 0 -1
    outer loop
      vertex -0.150964 -0.207784 30.59
      vertex 0.150964 -0.207784 30.59
      vertex 0 -0.672343 30.59
    endloop
  endfacet
  facet normal 0 0 -1
    outer loop
      vertex 0.244265 0.0793657 30.59
      vertex 0 0.256835 30.59
      vertex 0.395193 0.543937 30.59
    endloop
  endfacet
  facet normal 0 0 -1
    outer loop
      vertex 0.150964 -0.207784 30.59
      vertex -0.150964 -0.207784 30.59
      vertex 0 0.256835 30.59
    endloop
  endfacet
  facet normal 0 0 -1
    outer loop
      vertex -0.244265 0.0793657 30.59
      vertex 0 0.256835 30.59
      vertex -0.150964 -0.207784 30.59
    endloop
  endfacet
  facet normal -0 0 -1
    outer loop
      vertex 0 0.256835 30.59
      vertex -0.244265 0.0793657 30.59
      vertex -0.395193 0.543937 30.59
    endloop
  endfacet
  facet normal 0 0 -1
    outer loop
      vertex -0.150964 -0.207784 30.59
      vertex -0.639436 -0.207765 30.59
      vertex -0.244265 0.0793657 30.59
    endloop
  endfacet
  facet normal -3.03323e-05 0.779512 -0.626387
    outer loop
      vertex 15.0907 -20.7704 5
      vertex 0.639436 -0.207765 30.59
      vertex 63.9189 -20.7685 5
    endloop
  endfacet
  facet normal 0 0.77952 -0.626377
    outer loop
      vertex 15.0906 -20.7704 5
      vertex 0.639436 -0.207765 30.59
      vertex 15.0907 -20.7704 5
    endloop
  endfacet
  facet normal -3.03205e-05 0.779512 -0.626387
    outer loop
      vertex 0.639436 -0.207765 30.59
      vertex 15.0906 -20.7704 5
      vertex 0.150964 -0.207784 30.59
    endloop
  endfacet
  facet normal -0.45821 -0.630621 -0.626387
    outer loop
      vertex 63.9189 -20.7685 5
      vertex 0.639436 -0.207765 30.59
      vertex 24.4172 7.93346 5
    endloop
  endfacet
  facet normal -0.458209 -0.630622 -0.626386
    outer loop
      vertex 24.417 7.93358 5
      vertex 0.639436 -0.207765 30.59
      vertex 0.244265 0.0793657 30.59
    endloop
  endfacet
  facet normal -0.411426 -0.68571 -0.600442
    outer loop
      vertex 0.639436 -0.207765 30.59
      vertex 24.417 7.93358 5
      vertex 24.4172 7.93346 5
    endloop
  endfacet
  facet normal -0.741369 0.240855 -0.626387
    outer loop
      vertex 24.4171 7.93376 5
      vertex 0.395193 0.543937 30.59
      vertex 39.5041 54.3727 5
    endloop
  endfacet
  facet normal -0.722747 0.401526 -0.562507
    outer loop
      vertex 24.417 7.93358 5
      vertex 0.395193 0.543937 30.59
      vertex 24.4171 7.93376 5
    endloop
  endfacet
  facet normal -0.74137 0.240853 -0.626386
    outer loop
      vertex 0.395193 0.543937 30.59
      vertex 24.417 7.93358 5
      vertex 0.244265 0.0793657 30.59
    endloop
  endfacet
  facet normal 0.458162 -0.630656 -0.626387
    outer loop
      vertex 0.395193 0.543937 30.59
      vertex 0.000154361 25.6737 5
      vertex 39.5041 54.3727 5
    endloop
  endfacet
  facet normal 0.417635 -0.644666 -0.640302
    outer loop
      vertex 0.000154361 25.6737 5
      vertex 0 0.256835 30.59
      vertex 0 25.6736 5
    endloop
  endfacet
  facet normal 0.458163 -0.630656 -0.626386
    outer loop
      vertex 0 0.256835 30.59
      vertex 0.000154361 25.6737 5
      vertex 0.395193 0.543937 30.59
    endloop
  endfacet
  facet normal -0.458162 -0.630656 -0.626387
    outer loop
      vertex -0.395193 0.543937 30.59
      vertex -39.5041 54.3727 5
      vertex -0.000154361 25.6737 5
    endloop
  endfacet
  facet normal -0.458163 -0.630656 -0.626386
    outer loop
      vertex -0.000154361 25.6737 5
      vertex 0 0.256835 30.59
      vertex -0.395193 0.543937 30.59
    endloop
  endfacet
  facet normal -0.417635 -0.644666 -0.640302
    outer loop
      vertex 0 0.256835 30.59
      vertex -0.000154361 25.6737 5
      vertex 0 25.6736 5
    endloop
  endfacet
  facet normal 0.741369 0.240855 -0.626387
    outer loop
      vertex -24.4171 7.93376 5
      vertex -39.5041 54.3727 5
      vertex -0.395193 0.543937 30.59
    endloop
  endfacet
  facet normal 0.722747 0.401526 -0.562507
    outer loop
      vertex -0.395193 0.543937 30.59
      vertex -24.417 7.93358 5
      vertex -24.4171 7.93376 5
    endloop
  endfacet
  facet normal 0.74137 0.240853 -0.626386
    outer loop
      vertex -24.417 7.93358 5
      vertex -0.395193 0.543937 30.59
      vertex -0.244265 0.0793657 30.59
    endloop
  endfacet
  facet normal 0.45821 -0.630621 -0.626387
    outer loop
      vertex -0.639436 -0.207765 30.59
      vertex -63.9189 -20.7685 5
      vertex -24.4172 7.93346 5
    endloop
  endfacet
  facet normal 0.411426 -0.68571 -0.600442
    outer loop
      vertex -24.417 7.93358 5
      vertex -0.639436 -0.207765 30.59
      vertex -24.4172 7.93346 5
    endloop
  endfacet
  facet normal 0.458209 -0.630622 -0.626386
    outer loop
      vertex -0.639436 -0.207765 30.59
      vertex -24.417 7.93358 5
      vertex -0.244265 0.0793657 30.59
    endloop
  endfacet
  facet normal 3.03323e-05 0.779512 -0.626387
    outer loop
      vertex -15.0907 -20.7704 5
      vertex -63.9189 -20.7685 5
      vertex -0.639436 -0.207765 30.59
    endloop
  endfacet
  facet normal 3.03205e-05 0.779512 -0.626387
    outer loop
      vertex -15.0906 -20.7704 5
      vertex -0.639436 -0.207765 30.59
      vertex -0.150964 -0.207784 30.59
    endloop
  endfacet
  facet normal 0 0.77952 -0.626377
    outer loop
      vertex -0.639436 -0.207765 30.59
      vertex -15.0906 -20.7704 5
      vertex -15.0907 -20.7704 5
    endloop
  endfacet
  facet normal 0.741352 0.24091 -0.626386
    outer loop
      vertex 0 -67.2084 5
      vertex -15.0905 -20.7705 5
      vertex 0 -0.672343 30.59
    endloop
  endfacet
  facet normal 0.74135 0.240911 -0.626388
    outer loop
      vertex 0 -0.672343 30.59
      vertex -15.0906 -20.7704 5
      vertex -0.150964 -0.207784 30.59
    endloop
  endfacet
  facet normal 0.506963 0.506963 -0.697121
    outer loop
      vertex -15.0906 -20.7704 5
      vertex 0 -0.672343 30.59
      vertex -15.0905 -20.7705 5
    endloop
  endfacet
  facet normal -0.741352 0.24091 -0.626386
    outer loop
      vertex 15.0905 -20.7705 5
      vertex 0 -67.2084 5
      vertex 0 -0.672343 30.59
    endloop
  endfacet
  facet normal -0.74135 0.240911 -0.626388
    outer loop
      vertex 15.0906 -20.7704 5
      vertex 0 -0.672343 30.59
      vertex 0.150964 -0.207784 30.59
    endloop
  endfacet
  facet normal -0.506963 0.506963 -0.697121
    outer loop
      vertex 0 -0.672343 30.59
      vertex 15.0906 -20.7704 5
      vertex 15.0905 -20.7705 5
    endloop
  endfacet
  facet normal 0 0 -1
    outer loop
      vertex 16.84 -23.1783 0
      vertex 67.6364 -21.9764 0
      vertex 71.3292 -23.1763 0
    endloop
  endfacet
  facet normal 0 0 -1
    outer loop
      vertex 16.84 -23.1783 0
      vertex 15.9682 -21.9784 0
      vertex 67.6364 -21.9764 0
    endloop
  endfacet
  facet normal 0 0 -1
    outer loop
      vertex 0 -71.1172 0
      vertex 16.84 -23.1783 0
      vertex 0 -75 0
    endloop
  endfacet
  facet normal -0 0 -1
    outer loop
      vertex 16.84 -23.1783 0
      vertex 0 -71.1172 0
      vertex 15.9682 -21.9784 0
    endloop
  endfacet
  facet normal 0 0 -1
    outer loop
      vertex -16.84 -23.1783 0
      vertex 0 -71.1172 0
      vertex 0 -75 0
    endloop
  endfacet
  facet normal 0 0 -1
    outer loop
      vertex 0 -71.1172 0
      vertex -16.84 -23.1783 0
      vertex -15.9682 -21.9784 0
    endloop
  endfacet
  facet normal 0 0 -1
    outer loop
      vertex -16.84 -23.1783 0
      vertex -67.6364 -21.9764 0
      vertex -15.9682 -21.9784 0
    endloop
  endfacet
  facet normal 0 -0 -1
    outer loop
      vertex -67.6364 -21.9764 0
      vertex -16.84 -23.1783 0
      vertex -71.3292 -23.1763 0
    endloop
  endfacet
  facet normal 0 0 -1
    outer loop
      vertex 67.6364 -21.9764 0
      vertex 27.2478 8.85333 0
      vertex 71.3292 -23.1763 0
    endloop
  endfacet
  facet normal 0 -0 -1
    outer loop
      vertex 27.2478 8.85333 0
      vertex 67.6364 -21.9764 0
      vertex 25.8371 8.39499 0
    endloop
  endfacet
  facet normal 0 0 -1
    outer loop
      vertex 27.2478 8.85333 0
      vertex 41.8016 57.535 0
      vertex 44.0839 60.6763 0
    endloop
  endfacet
  facet normal 0 0 -1
    outer loop
      vertex 41.8016 57.535 0
      vertex 27.2478 8.85333 0
      vertex 25.8371 8.39499 0
    endloop
  endfacet
  facet normal 0 0 -1
    outer loop
      vertex 0 28.65 0
      vertex 41.8016 57.535 0
      vertex 0 27.1667 0
    endloop
  endfacet
  facet normal -0 0 -1
    outer loop
      vertex 41.8016 57.535 0
      vertex 0 28.65 0
      vertex 44.0839 60.6763 0
    endloop
  endfacet
  facet normal 0 0 -1
    outer loop
      vertex -41.8016 57.535 0
      vertex 0 28.65 0
      vertex 0 27.1667 0
    endloop
  endfacet
  facet normal 0 0 -1
    outer loop
      vertex 0 28.65 0
      vertex -41.8016 57.535 0
      vertex -44.0839 60.6763 0
    endloop
  endfacet
  facet normal 0 0 -1
    outer loop
      vertex -67.6364 -21.9764 0
      vertex -27.2478 8.85333 0
      vertex -25.8371 8.39499 0
    endloop
  endfacet
  facet normal 0 0 -1
    outer loop
      vertex -27.2478 8.85333 0
      vertex -67.6364 -21.9764 0
      vertex -71.3292 -23.1763 0
    endloop
  endfacet
  facet normal 0 0 -1
    outer loop
      vertex -27.2478 8.85333 0
      vertex -41.8016 57.535 0
      vertex -25.8371 8.39499 0
    endloop
  endfacet
  facet normal -0 -0 -1
    outer loop
      vertex -41.8016 57.535 0
      vertex -27.2478 8.85333 0
      vertex -44.0839 60.6763 0
    endloop
  endfacet
  facet normal 3.67045e-05 -1 0
    outer loop
      vertex 16.84 -23.1783 0
      vertex 71.3292 -23.1763 5
      vertex 16.84 -23.1783 5
    endloop
  endfacet
  facet normal 3.67045e-05 -1 0
    outer loop
      vertex 71.3292 -23.1763 5
      vertex 16.84 -23.1783 0
      vertex 71.3292 -23.1763 0
    endloop
  endfacet
  facet normal 0.587817 0.808994 -0
    outer loop
      vertex 71.3292 -23.1763 0
      vertex 27.2478 8.85333 5
      vertex 71.3292 -23.1763 5
    endloop
  endfacet
  facet normal 0.587817 0.808994 0
    outer loop
      vertex 27.2478 8.85333 5
      vertex 71.3292 -23.1763 0
      vertex 27.2478 8.85333 0
    endloop
  endfacet
  facet normal 0.951068 -0.30898 0
    outer loop
      vertex 27.2478 8.85333 5
      vertex 44.0839 60.6763 0
      vertex 44.0839 60.6763 5
    endloop
  endfacet
  facet normal 0.951068 -0.30898 0
    outer loop
      vertex 44.0839 60.6763 0
      vertex 27.2478 8.85333 5
      vertex 27.2478 8.85333 0
    endloop
  endfacet
  facet normal -0.587755 0.809039 0
    outer loop
      vertex 44.0839 60.6763 0
      vertex 0 28.65 5
      vertex 44.0839 60.6763 5
    endloop
  endfacet
  facet normal -0.587755 0.809039 0
    outer loop
      vertex 0 28.65 5
      vertex 44.0839 60.6763 0
      vertex 0 28.65 0
    endloop
  endfacet
  facet normal 0.587755 0.809039 -0
    outer loop
      vertex 0 28.65 0
      vertex -44.0839 60.6763 5
      vertex 0 28.65 5
    endloop
  endfacet
  facet normal 0.587755 0.809039 0
    outer loop
      vertex -44.0839 60.6763 5
      vertex 0 28.65 0
      vertex -44.0839 60.6763 0
    endloop
  endfacet
  facet normal -0.951068 -0.30898 0
    outer loop
      vertex -27.2478 8.85333 0
      vertex -44.0839 60.6763 5
      vertex -44.0839 60.6763 0
    endloop
  endfacet
  facet normal -0.951068 -0.30898 0
    outer loop
      vertex -44.0839 60.6763 5
      vertex -27.2478 8.85333 0
      vertex -27.2478 8.85333 5
    endloop
  endfacet
  facet normal -0.587817 0.808994 0
    outer loop
      vertex -27.2478 8.85333 0
      vertex -71.3292 -23.1763 5
      vertex -27.2478 8.85333 5
    endloop
  endfacet
  facet normal -0.587817 0.808994 0
    outer loop
      vertex -71.3292 -23.1763 5
      vertex -27.2478 8.85333 0
      vertex -71.3292 -23.1763 0
    endloop
  endfacet
  facet normal -3.67045e-05 -1 0
    outer loop
      vertex -71.3292 -23.1763 0
      vertex -16.84 -23.1783 5
      vertex -71.3292 -23.1763 5
    endloop
  endfacet
  facet normal -3.67045e-05 -1 -0
    outer loop
      vertex -16.84 -23.1783 5
      vertex -71.3292 -23.1763 0
      vertex -16.84 -23.1783 0
    endloop
  endfacet
  facet normal -0.951045 -0.309052 0
    outer loop
      vertex 0 -75 0
      vertex -16.84 -23.1783 5
      vertex -16.84 -23.1783 0
    endloop
  endfacet
  facet normal -0.951045 -0.309052 0
    outer loop
      vertex -16.84 -23.1783 5
      vertex 0 -75 0
      vertex 0 -75 5
    endloop
  endfacet
  facet normal 0.951045 -0.309052 0
    outer loop
      vertex 0 -75 5
      vertex 16.84 -23.1783 0
      vertex 16.84 -23.1783 5
    endloop
  endfacet
  facet normal 0.951045 -0.309052 0
    outer loop
      vertex 16.84 -23.1783 0
      vertex 0 -75 5
      vertex 0 -75 0
    endloop
  endfacet
  facet normal 3.68496e-05 1 -0
    outer loop
      vertex -15.0964 -20.7784 4.05
      vertex -63.9436 -20.7766 5
      vertex -15.0964 -20.7784 5
    endloop
  endfacet
  facet normal 3.68496e-05 1 0
    outer loop
      vertex -63.9436 -20.7766 5
      vertex -15.0964 -20.7784 4.05
      vertex -63.9436 -20.7766 4.05
    endloop
  endfacet
  facet normal 0.587817 -0.808994 0
    outer loop
      vertex -63.9436 -20.7766 4.05
      vertex -24.4265 7.93665 5
      vertex -63.9436 -20.7766 5
    endloop
  endfacet
  facet normal 0.587817 -0.808994 0
    outer loop
      vertex -24.4265 7.93665 5
      vertex -63.9436 -20.7766 4.05
      vertex -24.4265 7.93665 4.05
    endloop
  endfacet
  facet normal 0.951069 0.30898 0
    outer loop
      vertex -24.4265 7.93665 5
      vertex -39.5193 54.3937 4.05
      vertex -39.5193 54.3937 5
    endloop
  endfacet
  facet normal 0.951069 0.30898 0
    outer loop
      vertex -39.5193 54.3937 4.05
      vertex -24.4265 7.93665 5
      vertex -24.4265 7.93665 4.05
    endloop
  endfacet
  facet normal -0.587755 -0.809039 0
    outer loop
      vertex -39.5193 54.3937 4.05
      vertex 0 25.6835 5
      vertex -39.5193 54.3937 5
    endloop
  endfacet
  facet normal -0.587755 -0.809039 -0
    outer loop
      vertex 0 25.6835 5
      vertex -39.5193 54.3937 4.05
      vertex 0 25.6835 4.05
    endloop
  endfacet
  facet normal 0.587755 -0.809039 0
    outer loop
      vertex 0 25.6835 4.05
      vertex 39.5193 54.3937 5
      vertex 0 25.6835 5
    endloop
  endfacet
  facet normal 0.587755 -0.809039 0
    outer loop
      vertex 39.5193 54.3937 5
      vertex 0 25.6835 4.05
      vertex 39.5193 54.3937 4.05
    endloop
  endfacet
  facet normal -0.951069 0.30898 0
    outer loop
      vertex 24.4265 7.93665 4.05
      vertex 39.5193 54.3937 5
      vertex 39.5193 54.3937 4.05
    endloop
  endfacet
  facet normal -0.951069 0.30898 0
    outer loop
      vertex 39.5193 54.3937 5
      vertex 24.4265 7.93665 4.05
      vertex 24.4265 7.93665 5
    endloop
  endfacet
  facet normal -0.587817 -0.808994 0
    outer loop
      vertex 24.4265 7.93665 4.05
      vertex 63.9436 -20.7766 5
      vertex 24.4265 7.93665 5
    endloop
  endfacet
  facet normal -0.587817 -0.808994 -0
    outer loop
      vertex 63.9436 -20.7766 5
      vertex 24.4265 7.93665 4.05
      vertex 63.9436 -20.7766 4.05
    endloop
  endfacet
  facet normal -3.68496e-05 1 0
    outer loop
      vertex 63.9436 -20.7766 4.05
      vertex 15.0964 -20.7784 5
      vertex 63.9436 -20.7766 5
    endloop
  endfacet
  facet normal -3.68496e-05 1 0
    outer loop
      vertex 15.0964 -20.7784 5
      vertex 63.9436 -20.7766 4.05
      vertex 15.0964 -20.7784 4.05
    endloop
  endfacet
  facet normal -0.951045 0.309053 0
    outer loop
      vertex 0 -67.2344 4.05
      vertex 15.0964 -20.7784 5
      vertex 15.0964 -20.7784 4.05
    endloop
  endfacet
  facet normal -0.951045 0.309053 0
    outer loop
      vertex 15.0964 -20.7784 5
      vertex 0 -67.2344 4.05
      vertex 0 -67.2344 5
    endloop
  endfacet
  facet normal 0.951045 0.309053 0
    outer loop
      vertex 0 -67.2344 5
      vertex -15.0964 -20.7784 4.05
      vertex -15.0964 -20.7784 5
    endloop
  endfacet
  facet normal 0.951045 0.309053 0
    outer loop
      vertex -15.0964 -20.7784 4.05
      vertex 0 -67.2344 5
      vertex 0 -67.2344 4.05
    endloop
  endfacet
  facet normal 0 0 -1
    outer loop
      vertex 15.9682 -21.9784 4.05
      vertex 63.9436 -20.7766 4.05
      vertex 67.6364 -21.9764 4.05
    endloop
  endfacet
  facet normal 0 0 -1
    outer loop
      vertex 15.9682 -21.9784 4.05
      vertex 15.0964 -20.7784 4.05
      vertex 63.9436 -20.7766 4.05
    endloop
  endfacet
  facet normal 0 0 -1
    outer loop
      vertex 0 -67.2344 4.05
      vertex 15.9682 -21.9784 4.05
      vertex 0 -71.1172 4.05
    endloop
  endfacet
  facet normal -0 0 -1
    outer loop
      vertex 15.9682 -21.9784 4.05
      vertex 0 -67.2344 4.05
      vertex 15.0964 -20.7784 4.05
    endloop
  endfacet
  facet normal 0 0 -1
    outer loop
      vertex -15.9682 -21.9784 4.05
      vertex 0 -67.2344 4.05
      vertex 0 -71.1172 4.05
    endloop
  endfacet
  facet normal 0 0 -1
    outer loop
      vertex 0 -67.2344 4.05
      vertex -15.9682 -21.9784 4.05
      vertex -15.0964 -20.7784 4.05
    endloop
  endfacet
  facet normal 0 0 -1
    outer loop
      vertex -15.9682 -21.9784 4.05
      vertex -63.9436 -20.7766 4.05
      vertex -15.0964 -20.7784 4.05
    endloop
  endfacet
  facet normal 0 -0 -1
    outer loop
      vertex -63.9436 -20.7766 4.05
      vertex -15.9682 -21.9784 4.05
      vertex -67.6364 -21.9764 4.05
    endloop
  endfacet
  facet normal 0 0 -1
    outer loop
      vertex 63.9436 -20.7766 4.05
      vertex 25.8371 8.39499 4.05
      vertex 67.6364 -21.9764 4.05
    endloop
  endfacet
  facet normal 0 -0 -1
    outer loop
      vertex 25.8371 8.39499 4.05
      vertex 63.9436 -20.7766 4.05
      vertex 24.4265 7.93665 4.05
    endloop
  endfacet
  facet normal 0 0 -1
    outer loop
      vertex 25.8371 8.39499 4.05
      vertex 39.5193 54.3937 4.05
      vertex 41.8016 57.535 4.05
    endloop
  endfacet
  facet normal 0 0 -1
    outer loop
      vertex 39.5193 54.3937 4.05
      vertex 25.8371 8.39499 4.05
      vertex 24.4265 7.93665 4.05
    endloop
  endfacet
  facet normal 0 0 -1
    outer loop
      vertex 0 27.1667 4.05
      vertex 39.5193 54.3937 4.05
      vertex 0 25.6835 4.05
    endloop
  endfacet
  facet normal -0 0 -1
    outer loop
      vertex 39.5193 54.3937 4.05
      vertex 0 27.1667 4.05
      vertex 41.8016 57.535 4.05
    endloop
  endfacet
  facet normal 0 0 -1
    outer loop
      vertex -39.5193 54.3937 4.05
      vertex 0 27.1667 4.05
      vertex 0 25.6835 4.05
    endloop
  endfacet
  facet normal 0 0 -1
    outer loop
      vertex 0 27.1667 4.05
      vertex -39.5193 54.3937 4.05
      vertex -41.8016 57.535 4.05
    endloop
  endfacet
  facet normal 0 0 -1
    outer loop
      vertex -63.9436 -20.7766 4.05
      vertex -25.8371 8.39499 4.05
      vertex -24.4265 7.93665 4.05
    endloop
  endfacet
  facet normal 0 0 -1
    outer loop
      vertex -25.8371 8.39499 4.05
      vertex -63.9436 -20.7766 4.05
      vertex -67.6364 -21.9764 4.05
    endloop
  endfacet
  facet normal 0 0 -1
    outer loop
      vertex -25.8371 8.39499 4.05
      vertex -39.5193 54.3937 4.05
      vertex -24.4265 7.93665 4.05
    endloop
  endfacet
  facet normal -0 -0 -1
    outer loop
      vertex -39.5193 54.3937 4.05
      vertex -25.8371 8.39499 4.05
      vertex -41.8016 57.535 4.05
    endloop
  endfacet
  facet normal -3.87085e-05 1 0
    outer loop
      vertex 67.6364 -21.9764 3.5
      vertex 15.9682 -21.9784 4.05
      vertex 67.6364 -21.9764 4.05
    endloop
  endfacet
  facet normal -3.87085e-05 1 0
    outer loop
      vertex 15.9682 -21.9784 4.05
      vertex 67.6364 -21.9764 3.5
      vertex 15.9682 -21.9784 3.5
    endloop
  endfacet
  facet normal -3.87085e-05 1 0
    outer loop
      vertex 67.6364 -21.9764 0
      vertex 15.9682 -21.9784 1.7
      vertex 67.6364 -21.9764 1.7
    endloop
  endfacet
  facet normal -3.87085e-05 1 0
    outer loop
      vertex 15.9682 -21.9784 1.7
      vertex 67.6364 -21.9764 0
      vertex 15.9682 -21.9784 0
    endloop
  endfacet
  facet normal -0.587816 -0.808995 0
    outer loop
      vertex 25.8371 8.39499 3.5
      vertex 67.6364 -21.9764 4.05
      vertex 25.8371 8.39499 4.05
    endloop
  endfacet
  facet normal -0.587816 -0.808995 -0
    outer loop
      vertex 67.6364 -21.9764 4.05
      vertex 25.8371 8.39499 3.5
      vertex 67.6364 -21.9764 3.5
    endloop
  endfacet
  facet normal -0.587816 -0.808995 0
    outer loop
      vertex 25.8371 8.39499 0
      vertex 67.6364 -21.9764 1.7
      vertex 25.8371 8.39499 1.7
    endloop
  endfacet
  facet normal -0.587816 -0.808995 -0
    outer loop
      vertex 67.6364 -21.9764 1.7
      vertex 25.8371 8.39499 0
      vertex 67.6364 -21.9764 0
    endloop
  endfacet
  facet normal -0.951068 0.308981 0
    outer loop
      vertex 25.8371 8.39499 3.5
      vertex 41.8016 57.535 4.05
      vertex 41.8016 57.535 3.5
    endloop
  endfacet
  facet normal -0.951068 0.308981 0
    outer loop
      vertex 41.8016 57.535 4.05
      vertex 25.8371 8.39499 3.5
      vertex 25.8371 8.39499 4.05
    endloop
  endfacet
  facet normal -0.951068 0.308981 0
    outer loop
      vertex 25.8371 8.39499 0
      vertex 41.8016 57.535 1.7
      vertex 41.8016 57.535 0
    endloop
  endfacet
  facet normal -0.951068 0.308981 0
    outer loop
      vertex 41.8016 57.535 1.7
      vertex 25.8371 8.39499 0
      vertex 25.8371 8.39499 1.7
    endloop
  endfacet
  facet normal 0.587756 -0.809039 0
    outer loop
      vertex 0 27.1667 3.5
      vertex 41.8016 57.535 4.05
      vertex 0 27.1667 4.05
    endloop
  endfacet
  facet normal 0.587756 -0.809039 0
    outer loop
      vertex 41.8016 57.535 4.05
      vertex 0 27.1667 3.5
      vertex 41.8016 57.535 3.5
    endloop
  endfacet
  facet normal 0.587756 -0.809039 0
    outer loop
      vertex 0 27.1667 0
      vertex 41.8016 57.535 1.7
      vertex 0 27.1667 1.7
    endloop
  endfacet
  facet normal 0.587756 -0.809039 0
    outer loop
      vertex 41.8016 57.535 1.7
      vertex 0 27.1667 0
      vertex 41.8016 57.535 0
    endloop
  endfacet
  facet normal -0.587756 -0.809039 0
    outer loop
      vertex -41.8016 57.535 3.5
      vertex 0 27.1667 4.05
      vertex -41.8016 57.535 4.05
    endloop
  endfacet
  facet normal -0.587756 -0.809039 -0
    outer loop
      vertex 0 27.1667 4.05
      vertex -41.8016 57.535 3.5
      vertex 0 27.1667 3.5
    endloop
  endfacet
  facet normal -0.587756 -0.809039 0
    outer loop
      vertex -41.8016 57.535 0
      vertex 0 27.1667 1.7
      vertex -41.8016 57.535 1.7
    endloop
  endfacet
  facet normal -0.587756 -0.809039 -0
    outer loop
      vertex 0 27.1667 1.7
      vertex -41.8016 57.535 0
      vertex 0 27.1667 0
    endloop
  endfacet
  facet normal 0.951068 0.308981 0
    outer loop
      vertex -25.8371 8.39499 4.05
      vertex -41.8016 57.535 3.5
      vertex -41.8016 57.535 4.05
    endloop
  endfacet
  facet normal 0.951068 0.308981 0
    outer loop
      vertex -41.8016 57.535 3.5
      vertex -25.8371 8.39499 4.05
      vertex -25.8371 8.39499 3.5
    endloop
  endfacet
  facet normal 0.951068 0.308981 0
    outer loop
      vertex -25.8371 8.39499 1.7
      vertex -41.8016 57.535 0
      vertex -41.8016 57.535 1.7
    endloop
  endfacet
  facet normal 0.951068 0.308981 0
    outer loop
      vertex -41.8016 57.535 0
      vertex -25.8371 8.39499 1.7
      vertex -25.8371 8.39499 0
    endloop
  endfacet
  facet normal 0.587816 -0.808995 0
    outer loop
      vertex -67.6364 -21.9764 3.5
      vertex -25.8371 8.39499 4.05
      vertex -67.6364 -21.9764 4.05
    endloop
  endfacet
  facet normal 0.587816 -0.808995 0
    outer loop
      vertex -25.8371 8.39499 4.05
      vertex -67.6364 -21.9764 3.5
      vertex -25.8371 8.39499 3.5
    endloop
  endfacet
  facet normal 0.587816 -0.808995 0
    outer loop
      vertex -67.6364 -21.9764 0
      vertex -25.8371 8.39499 1.7
      vertex -67.6364 -21.9764 1.7
    endloop
  endfacet
  facet normal 0.587816 -0.808995 0
    outer loop
      vertex -25.8371 8.39499 1.7
      vertex -67.6364 -21.9764 0
      vertex -25.8371 8.39499 0
    endloop
  endfacet
  facet normal 3.87085e-05 1 -0
    outer loop
      vertex -15.9682 -21.9784 3.5
      vertex -67.6364 -21.9764 4.05
      vertex -15.9682 -21.9784 4.05
    endloop
  endfacet
  facet normal 3.87085e-05 1 0
    outer loop
      vertex -67.6364 -21.9764 4.05
      vertex -15.9682 -21.9784 3.5
      vertex -67.6364 -21.9764 3.5
    endloop
  endfacet
  facet normal 3.87085e-05 1 -0
    outer loop
      vertex -15.9682 -21.9784 0
      vertex -67.6364 -21.9764 1.7
      vertex -15.9682 -21.9784 1.7
    endloop
  endfacet
  facet normal 3.87085e-05 1 0
    outer loop
      vertex -67.6364 -21.9764 1.7
      vertex -15.9682 -21.9784 0
      vertex -67.6364 -21.9764 0
    endloop
  endfacet
  facet normal 0.951045 0.309053 0
    outer loop
      vertex 0 -71.1172 4.05
      vertex -15.9682 -21.9784 3.5
      vertex -15.9682 -21.9784 4.05
    endloop
  endfacet
  facet normal 0.951045 0.309053 0
    outer loop
      vertex -15.9682 -21.9784 3.5
      vertex 0 -71.1172 4.05
      vertex 0 -71.1172 3.5
    endloop
  endfacet
  facet normal 0.951045 0.309053 0
    outer loop
      vertex 0 -71.1172 1.7
      vertex -15.9682 -21.9784 0
      vertex -15.9682 -21.9784 1.7
    endloop
  endfacet
  facet normal 0.951045 0.309053 0
    outer loop
      vertex -15.9682 -21.9784 0
      vertex 0 -71.1172 1.7
      vertex 0 -71.1172 0
    endloop
  endfacet
  facet normal -0.951045 0.309053 0
    outer loop
      vertex 0 -71.1172 3.5
      vertex 15.9682 -21.9784 4.05
      vertex 15.9682 -21.9784 3.5
    endloop
  endfacet
  facet normal -0.951045 0.309053 0
    outer loop
      vertex 15.9682 -21.9784 4.05
      vertex 0 -71.1172 3.5
      vertex 0 -71.1172 4.05
    endloop
  endfacet
  facet normal -0.951045 0.309053 0
    outer loop
      vertex 0 -71.1172 0
      vertex 15.9682 -21.9784 1.7
      vertex 15.9682 -21.9784 0
    endloop
  endfacet
  facet normal -0.951045 0.309053 0
    outer loop
      vertex 15.9682 -21.9784 1.7
      vertex 0 -71.1172 0
      vertex 0 -71.1172 1.7
    endloop
  endfacet
  facet normal 0 0 1
    outer loop
      vertex 0 27.5994 1.7
      vertex 41.8016 57.535 1.7
      vertex 42.4673 58.4512 1.7
    endloop
  endfacet
  facet normal -0 0 1
    outer loop
      vertex 0 27.5994 1.7
      vertex 0 27.1667 1.7
      vertex 41.8016 57.535 1.7
    endloop
  endfacet
  facet normal 0 0 1
    outer loop
      vertex 0 27.5994 1.7
      vertex -41.8016 57.535 1.7
      vertex 0 27.1667 1.7
    endloop
  endfacet
  facet normal -0 -0 1
    outer loop
      vertex -41.8016 57.535 1.7
      vertex 0 27.5994 1.7
      vertex -42.4673 58.4512 1.7
    endloop
  endfacet
  facet normal -0 0 1
    outer loop
      vertex 41.8016 57.535 1.7
      vertex 26.2486 8.52867 1.7
      vertex 42.4673 58.4512 1.7
    endloop
  endfacet
  facet normal 0 -0 1
    outer loop
      vertex 26.2486 8.52867 1.7
      vertex 41.8016 57.535 1.7
      vertex 25.8371 8.39499 1.7
    endloop
  endfacet
  facet normal 0 0 1
    outer loop
      vertex 26.2486 8.52867 1.7
      vertex 67.6364 -21.9764 1.7
      vertex 68.7135 -22.3264 1.7
    endloop
  endfacet
  facet normal 0 0 1
    outer loop
      vertex 67.6364 -21.9764 1.7
      vertex 26.2486 8.52867 1.7
      vertex 25.8371 8.39499 1.7
    endloop
  endfacet
  facet normal 0 0 1
    outer loop
      vertex 67.6364 -21.9764 1.7
      vertex 16.2225 -22.3284 1.7
      vertex 68.7135 -22.3264 1.7
    endloop
  endfacet
  facet normal -0 0 1
    outer loop
      vertex 15.9682 -21.9784 1.7
      vertex 16.2225 -22.3284 1.7
      vertex 67.6364 -21.9764 1.7
    endloop
  endfacet
  facet normal 0 0 1
    outer loop
      vertex 0 -71.1172 1.7
      vertex 16.2225 -22.3284 1.7
      vertex 15.9682 -21.9784 1.7
    endloop
  endfacet
  facet normal -0 0 1
    outer loop
      vertex 0 -71.1172 1.7
      vertex 0 -72.2496 1.7
      vertex 16.2225 -22.3284 1.7
    endloop
  endfacet
  facet normal -0 0 1
    outer loop
      vertex -16.2225 -22.3284 1.7
      vertex 0 -71.1172 1.7
      vertex -15.9682 -21.9784 1.7
    endloop
  endfacet
  facet normal 0 0 1
    outer loop
      vertex 0 -71.1172 1.7
      vertex -16.2225 -22.3284 1.7
      vertex 0 -72.2496 1.7
    endloop
  endfacet
  facet normal 0 0 1
    outer loop
      vertex -67.6364 -21.9764 1.7
      vertex -16.2225 -22.3284 1.7
      vertex -15.9682 -21.9784 1.7
    endloop
  endfacet
  facet normal 0 0 1
    outer loop
      vertex -16.2225 -22.3284 1.7
      vertex -67.6364 -21.9764 1.7
      vertex -68.7135 -22.3264 1.7
    endloop
  endfacet
  facet normal 0 0 1
    outer loop
      vertex -41.8016 57.535 1.7
      vertex -26.2486 8.52867 1.7
      vertex -25.8371 8.39499 1.7
    endloop
  endfacet
  facet normal 0 0 1
    outer loop
      vertex -26.2486 8.52867 1.7
      vertex -41.8016 57.535 1.7
      vertex -42.4673 58.4512 1.7
    endloop
  endfacet
  facet normal 0 0 1
    outer loop
      vertex -26.2486 8.52867 1.7
      vertex -67.6364 -21.9764 1.7
      vertex -25.8371 8.39499 1.7
    endloop
  endfacet
  facet normal 0 -0 1
    outer loop
      vertex -67.6364 -21.9764 1.7
      vertex -26.2486 8.52867 1.7
      vertex -68.7135 -22.3264 1.7
    endloop
  endfacet
  facet normal 0 0 -1
    outer loop
      vertex 16.2225 -22.3284 3.5
      vertex 67.6364 -21.9764 3.5
      vertex 68.7135 -22.3264 3.5
    endloop
  endfacet
  facet normal 0 0 -1
    outer loop
      vertex 16.2225 -22.3284 3.5
      vertex 15.9682 -21.9784 3.5
      vertex 67.6364 -21.9764 3.5
    endloop
  endfacet
  facet normal 0 0 -1
    outer loop
      vertex 0 -71.1172 3.5
      vertex 16.2225 -22.3284 3.5
      vertex 0 -72.2496 3.5
    endloop
  endfacet
  facet normal -0 0 -1
    outer loop
      vertex 16.2225 -22.3284 3.5
      vertex 0 -71.1172 3.5
      vertex 15.9682 -21.9784 3.5
    endloop
  endfacet
  facet normal 0 0 -1
    outer loop
      vertex -16.2225 -22.3284 3.5
      vertex 0 -71.1172 3.5
      vertex 0 -72.2496 3.5
    endloop
  endfacet
  facet normal 0 0 -1
    outer loop
      vertex 0 -71.1172 3.5
      vertex -16.2225 -22.3284 3.5
      vertex -15.9682 -21.9784 3.5
    endloop
  endfacet
  facet normal 0 0 -1
    outer loop
      vertex -16.2225 -22.3284 3.5
      vertex -67.6364 -21.9764 3.5
      vertex -15.9682 -21.9784 3.5
    endloop
  endfacet
  facet normal 0 -0 -1
    outer loop
      vertex -67.6364 -21.9764 3.5
      vertex -16.2225 -22.3284 3.5
      vertex -68.7135 -22.3264 3.5
    endloop
  endfacet
  facet normal 0 0 -1
    outer loop
      vertex 67.6364 -21.9764 3.5
      vertex 26.2486 8.52867 3.5
      vertex 68.7135 -22.3264 3.5
    endloop
  endfacet
  facet normal 0 -0 -1
    outer loop
      vertex 26.2486 8.52867 3.5
      vertex 67.6364 -21.9764 3.5
      vertex 25.8371 8.39499 3.5
    endloop
  endfacet
  facet normal 0 0 -1
    outer loop
      vertex 26.2486 8.52867 3.5
      vertex 41.8016 57.535 3.5
      vertex 42.4673 58.4512 3.5
    endloop
  endfacet
  facet normal 0 0 -1
    outer loop
      vertex 41.8016 57.535 3.5
      vertex 26.2486 8.52867 3.5
      vertex 25.8371 8.39499 3.5
    endloop
  endfacet
  facet normal 0 0 -1
    outer loop
      vertex 0 27.5994 3.5
      vertex 41.8016 57.535 3.5
      vertex 0 27.1667 3.5
    endloop
  endfacet
  facet normal -0 0 -1
    outer loop
      vertex 41.8016 57.535 3.5
      vertex 0 27.5994 3.5
      vertex 42.4673 58.4512 3.5
    endloop
  endfacet
  facet normal 0 0 -1
    outer loop
      vertex -41.8016 57.535 3.5
      vertex 0 27.5994 3.5
      vertex 0 27.1667 3.5
    endloop
  endfacet
  facet normal 0 0 -1
    outer loop
      vertex 0 27.5994 3.5
      vertex -41.8016 57.535 3.5
      vertex -42.4673 58.4512 3.5
    endloop
  endfacet
  facet normal 0 0 -1
    outer loop
      vertex -67.6364 -21.9764 3.5
      vertex -26.2486 8.52867 3.5
      vertex -25.8371 8.39499 3.5
    endloop
  endfacet
  facet normal 0 0 -1
    outer loop
      vertex -26.2486 8.52867 3.5
      vertex -67.6364 -21.9764 3.5
      vertex -68.7135 -22.3264 3.5
    endloop
  endfacet
  facet normal 0 0 -1
    outer loop
      vertex -26.2486 8.52867 3.5
      vertex -41.8016 57.535 3.5
      vertex -25.8371 8.39499 3.5
    endloop
  endfacet
  facet normal -0 -0 -1
    outer loop
      vertex -41.8016 57.535 3.5
      vertex -26.2486 8.52867 3.5
      vertex -42.4673 58.4512 3.5
    endloop
  endfacet
  facet normal -3.81018e-05 1 0
    outer loop
      vertex 68.7135 -22.3264 1.7
      vertex 16.2225 -22.3284 3.5
      vertex 68.7135 -22.3264 3.5
    endloop
  endfacet
  facet normal -3.81018e-05 1 0
    outer loop
      vertex 16.2225 -22.3284 3.5
      vertex 68.7135 -22.3264 1.7
      vertex 16.2225 -22.3284 1.7
    endloop
  endfacet
  facet normal -0.587817 -0.808994 0
    outer loop
      vertex 26.2486 8.52867 1.7
      vertex 68.7135 -22.3264 3.5
      vertex 26.2486 8.52867 3.5
    endloop
  endfacet
  facet normal -0.587817 -0.808994 -0
    outer loop
      vertex 68.7135 -22.3264 3.5
      vertex 26.2486 8.52867 1.7
      vertex 68.7135 -22.3264 1.7
    endloop
  endfacet
  facet normal -0.951068 0.308981 0
    outer loop
      vertex 26.2486 8.52867 1.7
      vertex 42.4673 58.4512 3.5
      vertex 42.4673 58.4512 1.7
    endloop
  endfacet
  facet normal -0.951068 0.308981 0
    outer loop
      vertex 42.4673 58.4512 3.5
      vertex 26.2486 8.52867 1.7
      vertex 26.2486 8.52867 3.5
    endloop
  endfacet
  facet normal 0.587754 -0.80904 0
    outer loop
      vertex 0 27.5994 1.7
      vertex 42.4673 58.4512 3.5
      vertex 0 27.5994 3.5
    endloop
  endfacet
  facet normal 0.587754 -0.80904 0
    outer loop
      vertex 42.4673 58.4512 3.5
      vertex 0 27.5994 1.7
      vertex 42.4673 58.4512 1.7
    endloop
  endfacet
  facet normal -0.587754 -0.80904 0
    outer loop
      vertex -42.4673 58.4512 1.7
      vertex 0 27.5994 3.5
      vertex -42.4673 58.4512 3.5
    endloop
  endfacet
  facet normal -0.587754 -0.80904 -0
    outer loop
      vertex 0 27.5994 3.5
      vertex -42.4673 58.4512 1.7
      vertex 0 27.5994 1.7
    endloop
  endfacet
  facet normal 0.951068 0.308981 0
    outer loop
      vertex -26.2486 8.52867 3.5
      vertex -42.4673 58.4512 1.7
      vertex -42.4673 58.4512 3.5
    endloop
  endfacet
  facet normal 0.951068 0.308981 0
    outer loop
      vertex -42.4673 58.4512 1.7
      vertex -26.2486 8.52867 3.5
      vertex -26.2486 8.52867 1.7
    endloop
  endfacet
  facet normal 0.587817 -0.808994 0
    outer loop
      vertex -68.7135 -22.3264 1.7
      vertex -26.2486 8.52867 3.5
      vertex -68.7135 -22.3264 3.5
    endloop
  endfacet
  facet normal 0.587817 -0.808994 0
    outer loop
      vertex -26.2486 8.52867 3.5
      vertex -68.7135 -22.3264 1.7
      vertex -26.2486 8.52867 1.7
    endloop
  endfacet
  facet normal 3.81018e-05 1 -0
    outer loop
      vertex -16.2225 -22.3284 1.7
      vertex -68.7135 -22.3264 3.5
      vertex -16.2225 -22.3284 3.5
    endloop
  endfacet
  facet normal 3.81018e-05 1 0
    outer loop
      vertex -68.7135 -22.3264 3.5
      vertex -16.2225 -22.3284 1.7
      vertex -68.7135 -22.3264 1.7
    endloop
  endfacet
  facet normal 0.951045 0.309054 0
    outer loop
      vertex 0 -72.2496 3.5
      vertex -16.2225 -22.3284 1.7
      vertex -16.2225 -22.3284 3.5
    endloop
  endfacet
  facet normal 0.951045 0.309054 0
    outer loop
      vertex -16.2225 -22.3284 1.7
      vertex 0 -72.2496 3.5
      vertex 0 -72.2496 1.7
    endloop
  endfacet
  facet normal -0.951045 0.309054 0
    outer loop
      vertex 0 -72.2496 1.7
      vertex 16.2225 -22.3284 3.5
      vertex 16.2225 -22.3284 1.7
    endloop
  endfacet
  facet normal -0.951045 0.309054 0
    outer loop
      vertex 16.2225 -22.3284 3.5
      vertex 0 -72.2496 1.7
      vertex 0 -72.2496 3.5
    endloop
  endfacet
endsolid OpenSCAD_Model
